<svg width="64" height="64" viewBox="0 0 64 64" fill="none" xmlns="http://www.w3.org/2000/svg">
<path d="M10.0099 29.1413H17.188C17.4777 29.141 17.7554 29.0258 17.9603 28.821C18.1652 28.6162 18.2805 28.3384 18.2809 28.0488V25.622C18.2809 25.4231 18.2018 25.2323 18.0612 25.0917C17.9205 24.951 17.7298 24.872 17.5309 24.872C17.332 24.872 17.1412 24.951 17.0005 25.0917C16.8599 25.2323 16.7809 25.4231 16.7809 25.622V27.6413H10.417V21.2875H13.5989C13.7978 21.2875 13.9885 21.2085 14.1292 21.0678C14.2698 20.9272 14.3489 20.7364 14.3489 20.5375C14.3489 20.3386 14.2698 20.1478 14.1292 20.0072C13.9885 19.8665 13.7978 19.7875 13.5989 19.7875H10.0099C9.72016 19.7878 9.4424 19.9029 9.23751 20.1078C9.03263 20.3126 8.91736 20.5903 8.91699 20.88V28.0488C8.91739 28.3384 9.03267 28.6162 9.23755 28.821C9.44243 29.0258 9.72017 29.141 10.0099 29.1413Z" fill="#141414"/>
<path d="M18.9011 19.3673C18.8254 19.3043 18.738 19.2568 18.6439 19.2276C18.5499 19.1983 18.451 19.1879 18.3529 19.1969C18.2548 19.2059 18.1595 19.2341 18.0723 19.2799C17.9851 19.3258 17.9078 19.3883 17.8448 19.464L14.2671 23.7631L13.1191 22.8343C13.0427 22.771 12.9544 22.7234 12.8595 22.6945C12.7646 22.6655 12.6648 22.6557 12.5661 22.6655C12.4673 22.6754 12.3715 22.7048 12.2842 22.7519C12.1969 22.7991 12.1198 22.8631 12.0574 22.9403C11.995 23.0175 11.9485 23.1063 11.9207 23.2015C11.8929 23.2968 11.8842 23.3966 11.8953 23.4953C11.9063 23.5939 11.9368 23.6893 11.985 23.7761C12.0332 23.8628 12.0982 23.9392 12.1761 24.0006L13.5561 25.1171C13.7828 25.3037 14.0706 25.3997 14.3639 25.3867C14.6573 25.3738 14.9354 25.2527 15.1448 25.0469L15.175 25.018L18.998 20.4238C19.061 20.348 19.1085 20.2606 19.1377 20.1666C19.167 20.0725 19.1774 19.9736 19.1684 19.8754C19.1594 19.7773 19.1312 19.682 19.0853 19.5948C19.0394 19.5076 18.9768 19.4303 18.9011 19.3673Z" fill="#141414"/>
<path d="M55.2627 20.3109H25.9971C25.7982 20.3109 25.6074 20.39 25.4667 20.5306C25.3261 20.6713 25.2471 20.862 25.2471 21.0609C25.2471 21.2599 25.3261 21.4506 25.4667 21.5913C25.6074 21.7319 25.7982 21.8109 25.9971 21.8109H55.2627C55.4616 21.8109 55.6524 21.7319 55.793 21.5913C55.9337 21.4506 56.0127 21.2599 56.0127 21.0609C56.0127 20.862 55.9337 20.6713 55.793 20.5306C55.6524 20.39 55.4616 20.3109 55.2627 20.3109Z" fill="#141414"/>
<path d="M55.2627 26.5234H25.9971C25.7982 26.5234 25.6074 26.6025 25.4667 26.7431C25.3261 26.8838 25.2471 27.0745 25.2471 27.2734C25.2471 27.4723 25.3261 27.6631 25.4667 27.8038C25.6074 27.9444 25.7982 28.0234 25.9971 28.0234H55.2627C55.4616 28.0234 55.6524 27.9444 55.793 27.8038C55.9337 27.6631 56.0127 27.4723 56.0127 27.2734C56.0127 27.0745 55.9337 26.8838 55.793 26.7431C55.6524 26.6025 55.4616 26.5234 55.2627 26.5234Z" fill="#141414"/>
<path d="M17.5299 40.7673C17.331 40.7673 17.1402 40.8463 16.9996 40.987C16.8589 41.1276 16.7799 41.3184 16.7799 41.5173V43.5368H10.416V37.1828H13.5979C13.7968 37.1828 13.9876 37.1038 14.1282 36.9631C14.2689 36.8225 14.3479 36.6317 14.3479 36.4328C14.3479 36.2339 14.2689 36.0431 14.1282 35.9025C13.9876 35.7618 13.7968 35.6828 13.5979 35.6828H10.0089C9.7192 35.6831 9.44145 35.7983 9.23657 36.0031C9.03169 36.2079 8.91641 36.4856 8.91602 36.7753V43.9441C8.91638 44.2338 9.03165 44.5115 9.23653 44.7163C9.44141 44.9212 9.71918 45.0364 10.0089 45.0367H17.187C17.4767 45.0364 17.7545 44.9212 17.9594 44.7163C18.1643 44.5115 18.2795 44.2338 18.2799 43.9441V41.5173C18.2799 41.3184 18.2009 41.1276 18.0602 40.987C17.9196 40.8463 17.7288 40.7673 17.5299 40.7673Z" fill="#141414"/>
<path d="M18.9002 35.2625C18.8245 35.1995 18.7371 35.152 18.643 35.1228C18.549 35.0936 18.4501 35.0832 18.352 35.0922C18.2539 35.1012 18.1585 35.1294 18.0714 35.1753C17.9842 35.2211 17.9069 35.2837 17.8439 35.3594L14.2665 39.6584L13.1185 38.7296C13.0421 38.6664 12.9539 38.619 12.8591 38.5902C12.7642 38.5613 12.6646 38.5515 12.5659 38.5614C12.4672 38.5713 12.3715 38.6006 12.2843 38.6477C12.197 38.6948 12.12 38.7588 12.0576 38.8359C11.9952 38.913 11.9487 39.0016 11.9209 39.0968C11.893 39.192 11.8843 39.2917 11.8952 39.3903C11.9061 39.4888 11.9365 39.5842 11.9845 39.671C12.0325 39.7577 12.0973 39.8341 12.175 39.8956L13.555 41.0121C13.7818 41.1986 14.0695 41.2947 14.3629 41.2817C14.6562 41.2688 14.9344 41.1478 15.1438 40.942L15.1739 40.913L18.9969 36.3188C19.0599 36.2431 19.1074 36.1557 19.1366 36.0616C19.1659 35.9676 19.1763 35.8687 19.1673 35.7706C19.1583 35.6725 19.1301 35.5772 19.0843 35.49C19.0384 35.4028 18.9759 35.3255 18.9002 35.2625Z" fill="#141414"/>
<path d="M55.2624 36.2062H49.1689C48.97 36.2062 48.7793 36.2853 48.6386 36.4259C48.498 36.5666 48.4189 36.7573 48.4189 36.9562C48.4189 37.1552 48.498 37.3459 48.6386 37.4866C48.7793 37.6272 48.97 37.7062 49.1689 37.7062H55.2624C55.4614 37.7062 55.6521 37.6272 55.7928 37.4866C55.9334 37.3459 56.0124 37.1552 56.0124 36.9562C56.0124 36.7573 55.9334 36.5666 55.7928 36.4259C55.6521 36.2853 55.4614 36.2062 55.2624 36.2062Z" fill="#141414"/>
<path d="M35.5019 36.2062H25.9971C25.7982 36.2062 25.6074 36.2853 25.4667 36.4259C25.3261 36.5666 25.2471 36.7573 25.2471 36.9562C25.2471 37.1552 25.3261 37.3459 25.4667 37.4866C25.6074 37.6272 25.7982 37.7062 25.9971 37.7062H35.5019C35.7009 37.7062 35.8916 37.6272 36.0323 37.4866C36.1729 37.3459 36.2519 37.1552 36.2519 36.9562C36.2519 36.7573 36.1729 36.5666 36.0323 36.4259C35.8916 36.2853 35.7009 36.2062 35.5019 36.2062Z" fill="#141414"/>
<path d="M28.5587 42.4203H25.9971C25.7982 42.4203 25.6074 42.4993 25.4667 42.6399C25.3261 42.7806 25.2471 42.9713 25.2471 43.1703C25.2471 43.3692 25.3261 43.5599 25.4667 43.7006C25.6074 43.8412 25.7982 43.9203 25.9971 43.9203H28.5587C28.7576 43.9203 28.9484 43.8412 29.089 43.7006C29.2297 43.5599 29.3087 43.3692 29.3087 43.1703C29.3087 42.9713 29.2297 42.7806 29.089 42.6399C28.9484 42.4993 28.7576 42.4203 28.5587 42.4203Z" fill="#141414"/>
<path d="M59.0455 1.25H4.9545C4.03869 1.25096 3.16066 1.61515 2.51304 2.26268C1.86541 2.91021 1.50109 3.78819 1.5 4.704V49.529C1.50082 50.444 1.86434 51.3213 2.51089 51.9687C3.15744 52.6161 4.03428 52.9808 4.94925 52.9829L33.5539 53.1852L35.0029 58.8792C35.0054 58.8894 35.0083 58.8995 35.0112 58.9096C35.3389 60.0222 36.0191 60.9982 36.9494 61.6908C37.8796 62.3834 39.0097 62.7551 40.1695 62.75H50.6269C52.055 62.7481 53.424 62.1798 54.4336 61.1698C55.4433 60.1598 56.0111 58.7906 56.0125 57.3625V53.15L59.0674 52.9834C59.9794 52.9766 60.8518 52.6099 61.4947 51.963C62.1376 51.3161 62.4989 50.4414 62.5 49.5294V4.704C62.4989 3.78819 62.1346 2.91021 61.487 2.26268C60.8393 1.61515 59.9613 1.25096 59.0455 1.25ZM4.9545 2.75H59.0455C59.5636 2.7505 60.0604 2.95651 60.4268 3.32283C60.7932 3.68916 60.9994 4.18587 61 4.704V12.2976H3V4.704C3.00063 4.18587 3.20677 3.68916 3.57318 3.32283C3.9396 2.95651 4.43637 2.7505 4.9545 2.75ZM54.5125 57.3625C54.5115 58.3929 54.1019 59.3808 53.3734 60.1096C52.645 60.8384 51.6573 61.2485 50.6269 61.25H40.1695C39.3353 61.2537 38.5224 60.9872 37.8524 60.4903C37.1823 59.9934 36.6912 59.2929 36.4525 58.4936L34.865 52.2547C34.4907 50.7856 33.9915 49.3513 33.3727 47.9672L33.25 47.676C34.0492 47.676 34.8365 47.87 35.5441 48.2415C36.2518 48.6129 36.8586 49.1507 37.3125 49.8085L38.6022 51.6771V54.4625C38.6022 54.6614 38.6813 54.8522 38.8219 54.9928C38.9626 55.1335 39.1533 55.2125 39.3522 55.2125C39.5512 55.2125 39.7419 55.1335 39.8826 54.9928C40.0232 54.8522 40.1022 54.6614 40.1022 54.4625V34.0786C40.1022 33.7045 40.2509 33.3456 40.5154 33.0811C40.78 32.8165 41.1388 32.6679 41.513 32.6679C41.8872 32.6679 42.246 32.8165 42.5106 33.0811C42.7751 33.3456 42.9238 33.7045 42.9238 34.0786V47.392C42.9238 47.4653 42.9346 47.5381 42.9557 47.6082V50.6656C42.9557 50.8645 43.0348 51.0553 43.1754 51.1959C43.3161 51.3366 43.5068 51.4156 43.7057 51.4156C43.9047 51.4156 44.0954 51.3366 44.2361 51.1959C44.3767 51.0553 44.4557 50.8645 44.4557 50.6656V46.4767C44.4557 46.18 44.5736 45.8955 44.7834 45.6857C44.9932 45.4759 45.2778 45.358 45.5745 45.358C45.8712 45.358 46.1558 45.4759 46.3656 45.6857C46.5754 45.8955 46.6932 46.18 46.6932 46.4767V47.3267C46.6739 47.4576 46.6641 47.5898 46.664 47.7221V50.6661C46.664 50.865 46.743 51.0558 46.8837 51.1965C47.0243 51.3371 47.2151 51.4161 47.414 51.4161H47.4286C47.4286 51.4161 47.4382 51.4161 47.4432 51.4161C47.6422 51.4161 47.8329 51.3371 47.9736 51.1965C48.1142 51.0558 48.1932 50.865 48.1932 50.6661V47.4609C48.257 47.171 48.4257 46.9149 48.6669 46.7418C48.9081 46.5687 49.2047 46.4908 49.4998 46.5232C49.7948 46.5555 50.0675 46.6958 50.2655 46.917C50.4634 47.1382 50.5726 47.4248 50.5721 47.7216V51.4435C50.5721 51.6424 50.6511 51.8332 50.7918 51.9738C50.9324 52.1145 51.1232 52.1935 51.3221 52.1935C51.521 52.1935 51.7118 52.1145 51.8525 51.9738C51.9931 51.8332 52.0721 51.6424 52.0721 51.4435V48.8971C52.0705 48.7359 52.1008 48.5759 52.1614 48.4264C52.222 48.277 52.3116 48.141 52.4251 48.0264C52.5385 47.9118 52.6736 47.8208 52.8224 47.7587C52.9712 47.6966 53.1309 47.6646 53.2922 47.6646C53.4535 47.6646 53.6131 47.6966 53.762 47.7587C53.9108 47.8208 54.0458 47.9118 54.1593 48.0264C54.2728 48.141 54.3624 48.277 54.4229 48.4264C54.4835 48.5759 54.5139 48.7359 54.5122 48.8971L54.5125 57.3625ZM59.0457 51.4839C59.0321 51.4839 59.0185 51.4839 59.0049 51.4851L56.0125 51.6476V48.8976C56.0131 48.4098 55.8824 47.9307 55.6341 47.5108C55.3858 47.0909 55.029 46.7455 54.6012 46.511C54.1734 46.2765 53.6903 46.1615 53.2028 46.178C52.7152 46.1946 52.2411 46.342 51.8301 46.605C51.6725 46.2565 51.4427 45.9455 51.1558 45.6924C50.869 45.4394 50.5317 45.2502 50.1663 45.1373C49.8008 45.0244 49.4156 44.9904 49.036 45.0376C48.6564 45.0848 48.2912 45.212 47.9645 45.4109C47.8223 45.089 47.6164 44.7993 47.3593 44.5591C47.1021 44.319 46.799 44.1334 46.4682 44.0134C46.1374 43.8935 45.7857 43.8418 45.4344 43.8614C45.0831 43.881 44.7394 43.9715 44.424 44.1275V34.0786C44.424 33.3066 44.1173 32.5663 43.5715 32.0204C43.0256 31.4745 42.2852 31.1679 41.5132 31.1679C40.7413 31.1679 40.0009 31.4745 39.455 32.0204C38.9092 32.5663 38.6025 33.3066 38.6025 34.0786V49.0365L38.5472 48.9565C37.9555 48.0987 37.1642 47.3975 36.2414 46.9132C35.3187 46.4288 34.2921 46.1758 33.25 46.176C32.9989 46.176 32.7518 46.2389 32.5311 46.3589C32.3105 46.4788 32.1234 46.6521 31.9869 46.8628C31.8503 47.0736 31.7687 47.3152 31.7494 47.5655C31.73 47.8159 31.7737 48.0672 31.8762 48.2964L32.0026 48.5791C32.453 49.5873 32.8363 50.6241 33.1501 51.6827L4.954 51.4827C4.43607 51.4821 3.93952 51.2761 3.57323 50.91C3.20694 50.5438 3.00079 50.0473 3 49.5294V13.7976H61V49.5294C60.9993 50.0475 60.7932 50.5442 60.4268 50.9105C60.0604 51.2768 59.5636 51.4827 59.0455 51.4832L59.0457 51.4839Z" fill="#141414"/>
<path d="M7.77539 10.3031C8.34401 10.3031 8.89986 10.1345 9.37266 9.81861C9.84545 9.5027 10.2139 9.05368 10.4315 8.52835C10.6491 8.00301 10.7061 7.42494 10.5951 6.86725C10.4842 6.30955 10.2104 5.79728 9.80832 5.3952C9.40625 4.99312 8.89397 4.71931 8.33628 4.60837C7.77858 4.49744 7.20051 4.55438 6.67518 4.77198C6.14984 4.98958 5.70082 5.35808 5.38492 5.83087C5.06901 6.30366 4.90039 6.85951 4.90039 7.42813C4.90118 8.19039 5.20434 8.92119 5.74334 9.46019C6.28233 9.99918 7.01314 10.3023 7.77539 10.3031ZM7.77539 6.05413C8.04734 6.05413 8.31318 6.13477 8.5393 6.28586C8.76542 6.43695 8.94165 6.65169 9.04573 6.90294C9.1498 7.15419 9.17703 7.43066 9.12397 7.69738C9.07092 7.96411 8.93996 8.20911 8.74766 8.4014C8.55536 8.5937 8.31036 8.72466 8.04364 8.77771C7.77692 8.83077 7.50045 8.80354 7.2492 8.69947C6.99795 8.5954 6.78321 8.41916 6.63212 8.19304C6.48103 7.96692 6.40039 7.70108 6.40039 7.42913C6.40072 7.06456 6.54569 6.71502 6.80348 6.45723C7.06128 6.19944 7.41082 6.05446 7.77539 6.05413Z" fill="#141414"/>
<path d="M15.3535 10.3031C15.9221 10.3031 16.478 10.1345 16.9508 9.81861C17.4236 9.5027 17.7921 9.05368 18.0097 8.52835C18.2273 8.00301 18.2842 7.42494 18.1733 6.86725C18.0623 6.30955 17.7885 5.79728 17.3864 5.3952C16.9844 4.99312 16.4721 4.71931 15.9144 4.60837C15.3567 4.49744 14.7786 4.55438 14.2533 4.77198C13.728 4.98958 13.2789 5.35808 12.963 5.83087C12.6471 6.30366 12.4785 6.85951 12.4785 7.42813C12.4793 8.19039 12.7825 8.92119 13.3215 9.46019C13.8605 9.99918 14.5913 10.3023 15.3535 10.3031ZM15.3535 6.05413C15.6255 6.05413 15.8913 6.13477 16.1174 6.28586C16.3435 6.43695 16.5198 6.65169 16.6239 6.90294C16.7279 7.15419 16.7552 7.43066 16.7021 7.69738C16.649 7.96411 16.5181 8.20911 16.3258 8.4014C16.1335 8.5937 15.8885 8.72466 15.6218 8.77771C15.355 8.83077 15.0786 8.80354 14.8273 8.69947C14.5761 8.5954 14.3613 8.41916 14.2102 8.19304C14.0592 7.96692 13.9785 7.70108 13.9785 7.42913C13.9788 7.06456 14.1238 6.71502 14.3816 6.45723C14.6394 6.19944 14.9889 6.05446 15.3535 6.05413Z" fill="#141414"/>
<path d="M22.9346 10.3031C23.5032 10.3031 24.059 10.1345 24.5318 9.81861C25.0046 9.5027 25.3731 9.05368 25.5907 8.52835C25.8083 8.00301 25.8653 7.42494 25.7543 6.86725C25.6434 6.30955 25.3696 5.79728 24.9675 5.3952C24.5654 4.99312 24.0532 4.71931 23.4955 4.60837C22.9378 4.49744 22.3597 4.55438 21.8344 4.77198C21.309 4.98958 20.86 5.35808 20.5441 5.83087C20.2282 6.30366 20.0596 6.85951 20.0596 7.42813C20.0604 8.19039 20.3635 8.92119 20.9025 9.46019C21.4415 9.99918 22.1723 10.3023 22.9346 10.3031ZM22.9346 6.05413C23.2065 6.05413 23.4724 6.13477 23.6985 6.28586C23.9246 6.43695 24.1008 6.65169 24.2049 6.90294C24.309 7.15419 24.3362 7.43066 24.2831 7.69738C24.2301 7.96411 24.0991 8.20911 23.9068 8.4014C23.7145 8.5937 23.4695 8.72466 23.2028 8.77771C22.9361 8.83077 22.6596 8.80354 22.4084 8.69947C22.1571 8.5954 21.9424 8.41916 21.7913 8.19304C21.6402 7.96692 21.5596 7.70108 21.5596 7.42913C21.5599 7.06456 21.7049 6.71502 21.9627 6.45723C22.2205 6.19944 22.57 6.05446 22.9346 6.05413Z" fill="#141414"/>
<path d="M34.125 8.03751H58.4916C58.6905 8.03751 58.8813 7.95849 59.022 7.81784C59.1626 7.67718 59.2416 7.48642 59.2416 7.28751C59.2416 7.08859 59.1626 6.89783 59.022 6.75718C58.8813 6.61652 58.6905 6.53751 58.4916 6.53751H34.125C33.9261 6.53751 33.7353 6.61652 33.5947 6.75718C33.454 6.89783 33.375 7.08859 33.375 7.28751C33.375 7.48642 33.454 7.67718 33.5947 7.81784C33.7353 7.95849 33.9261 8.03751 34.125 8.03751Z" fill="#141414"/>
</svg>
