<svg width="64" height="64" viewBox="0 0 64 64" fill="none" xmlns="http://www.w3.org/2000/svg">
<path d="M49.3061 9.49467C44.8019 5.07844 38.7454 2.60469 32.4374 2.60469C26.1293 2.60469 20.0729 5.07844 15.5686 9.49467C11.2591 13.7432 8.65309 19.4218 8.24204 25.4595C8.02814 28.7555 8.52082 32.0592 9.68711 35.1495C10.8303 38.2317 12.6903 41.1358 15.2156 43.7817L31.7437 61.1002C31.8332 61.194 31.9409 61.2687 32.0601 61.3197C32.1793 61.3707 32.3077 61.397 32.4374 61.397C32.5671 61.397 32.6954 61.3707 32.8147 61.3197C32.9339 61.2687 33.0415 61.194 33.1311 61.1002L49.6592 43.7817C52.1845 41.1356 54.0445 38.2312 55.1877 35.1495C56.3539 32.0592 56.8466 28.7555 56.6327 25.4595C56.2217 19.4218 53.6157 13.7432 49.3061 9.49467ZM53.3894 34.4825C52.3378 37.3181 50.6159 40.0014 48.2719 42.4576L32.4374 59.0491L16.6029 42.4576C14.2589 40.0014 12.537 37.3181 11.4853 34.4825C10.4137 31.6468 9.9603 28.615 10.1553 25.5899C10.535 20.0191 12.9397 14.7797 16.916 10.8597C21.0613 6.7979 26.6337 4.52287 32.4374 4.52287C38.241 4.52287 43.8134 6.7979 47.9588 10.8597C51.9351 14.7797 54.3398 20.0191 54.7194 25.5899C54.9145 28.615 54.461 31.6468 53.3894 34.4825Z" fill="#141414"/>
<path d="M32.4379 7.86406C22.9434 7.86406 15.2188 15.6624 15.2188 25.2476C15.2188 34.8328 22.943 42.6312 32.4379 42.6312C41.9329 42.6312 49.6571 34.8328 49.6571 25.2476C49.6571 15.6624 41.9324 7.86406 32.4379 7.86406ZM32.4379 40.7134C24.0009 40.7134 17.1366 33.7754 17.1366 25.2476C17.1366 16.7198 24.0009 9.78187 32.4379 9.78187C40.8749 9.78187 47.7393 16.72 47.7393 25.2476C47.7393 33.7753 40.8749 40.7138 32.4379 40.7138V40.7134Z" fill="#141414"/>
<path d="M29.728 18V25.3536L36.6208 18H38.7328L33.3376 23.7024L39.1168 31.728H37.1008L32.1856 24.8928L29.728 27.4848V31.728H28V18H29.728Z" fill="#141414"/>
</svg>
