<svg width="64" height="64" viewBox="0 0 64 64" fill="none" xmlns="http://www.w3.org/2000/svg">
<g clip-path="url(#clip0_1993_6603)">
<path d="M59.4501 0H18.544C18.0386 0 17.629 0.409617 17.629 0.915005V5.22086C17.629 5.72625 18.0386 6.13587 18.544 6.13587H20.8584V24.5436H4.54977C4.04438 24.5436 3.63477 24.9532 3.63477 25.4586C3.63477 25.964 4.04438 26.3736 4.54977 26.3736H5.78777V51.6709H4.54977C4.04438 51.6709 3.63477 52.0805 3.63477 52.5859C3.63477 53.0913 4.04438 53.5009 4.54977 53.5009H15.3685C16.7032 56.1413 18.9953 58.1728 21.7769 59.1807C23.0252 59.631 24.3424 59.8613 25.6695 59.8613C27.5782 59.859 29.457 59.387 31.1401 58.4869C33.1545 60.5373 35.4043 62.3422 37.8428 63.864C38.273 64.129 38.8367 63.9951 39.1017 63.5648C39.3668 63.1346 39.2329 62.5709 38.8027 62.3059C36.5957 60.9331 34.5522 59.3135 32.7115 57.4786C34.1006 56.4216 35.2297 55.0612 36.0125 53.5009H56.2207C56.7261 53.5009 57.1357 53.0913 57.1357 52.5859V6.13587H59.4501C59.9554 6.13587 60.3651 5.72625 60.3651 5.22086V0.915005C60.3651 0.409617 59.9554 0 59.4501 0V0ZM20.8584 26.3736V31.4824L17.6661 29.4352C17.2409 29.1621 16.6748 29.2853 16.4017 29.7105C16.3271 29.8267 16.2797 29.9583 16.2631 30.0953L14.4262 45.2113H7.61778V26.3736H20.8584ZM7.61778 47.0421H14.2067C14.0352 48.5982 14.1816 50.1731 14.6369 51.6709H7.61778V47.0421ZM22.3966 57.4588C18.1283 55.9223 15.4896 51.6387 16.0374 47.1356L17.5715 34.5105C18.5092 37.5896 19.6597 40.6001 21.0142 43.5201C23.7428 49.3956 26.8294 53.8035 29.8249 57.1015C27.4944 58.2016 24.822 58.3302 22.3966 57.4588ZM31.4302 56.1534C27.4022 51.7873 24.5623 46.8097 22.6919 42.7902C21.1319 39.4309 19.8517 35.9487 18.8641 32.379L30.9393 40.1222C33.1392 41.5238 34.6787 43.7558 35.2073 46.3104L35.2085 46.3151C35.5783 48.0777 35.4507 49.9085 34.8399 51.6028C34.7654 51.8099 34.6829 52.0173 34.5946 52.2189C33.9082 53.7882 32.8159 55.1464 31.4302 56.1534ZM36.7441 51.6709C37.2006 50.1732 37.3475 48.5983 37.1756 47.0421H55.3057V51.6709H36.7441ZM55.3057 45.2121H36.8208C36.0683 42.4718 34.3246 40.1088 31.9282 38.5816L22.6884 32.6567V6.13587H55.3057V45.2121ZM58.535 4.30586H19.459V1.83001H58.535V4.30586Z" fill="#141414"/>
<path d="M26.7246 14.5331H31.6763C32.1817 14.5331 32.5913 14.1235 32.5913 13.6181C32.5913 13.1127 32.1817 12.7031 31.6763 12.7031H26.7246C26.2192 12.7031 25.8096 13.1127 25.8096 13.6181C25.8096 14.1235 26.2192 14.5331 26.7246 14.5331Z" fill="#141414"/>
<path d="M36.4131 14.5331H41.3649C41.8703 14.5331 42.2799 14.1235 42.2799 13.6181C42.2799 13.1127 41.8703 12.7031 41.3649 12.7031H36.4131C35.9077 12.7031 35.498 13.1127 35.498 13.6181C35.498 14.1235 35.9077 14.5331 36.4131 14.5331Z" fill="#141414"/>
<path d="M46.1025 14.5331H51.0542C51.5596 14.5331 51.9692 14.1235 51.9692 13.6181C51.9692 13.1127 51.5596 12.7031 51.0542 12.7031H46.1025C45.5971 12.7031 45.1875 13.1127 45.1875 13.6181C45.1875 14.1235 45.5971 14.5331 46.1025 14.5331Z" fill="#141414"/>
<path d="M26.7246 20.9909H31.6763C32.1817 20.9909 32.5913 20.5813 32.5913 20.0759C32.5913 19.5706 32.1817 19.1609 31.6763 19.1609H26.7246C26.2192 19.1609 25.8096 19.5706 25.8096 20.0759C25.8096 20.5813 26.2192 20.9909 26.7246 20.9909Z" fill="#141414"/>
<path d="M36.4131 20.9909H41.3649C41.8703 20.9909 42.2799 20.5813 42.2799 20.0759C42.2799 19.5706 41.8703 19.1609 41.3649 19.1609H36.4131C35.9077 19.1609 35.498 19.5706 35.498 20.0759C35.498 20.5813 35.9077 20.9909 36.4131 20.9909Z" fill="#141414"/>
<path d="M46.1025 20.9909H51.0542C51.5596 20.9909 51.9692 20.5813 51.9692 20.0759C51.9692 19.5706 51.5596 19.1609 51.0542 19.1609H46.1025C45.5971 19.1609 45.1875 19.5706 45.1875 20.0759C45.1875 20.5813 45.5971 20.9909 46.1025 20.9909Z" fill="#141414"/>
<path d="M26.7256 27.4503H31.6773C32.1826 27.4503 32.5923 27.0407 32.5923 26.5353C32.5923 26.0299 32.1826 25.6203 31.6773 25.6203H26.7256C26.2202 25.6203 25.8105 26.0299 25.8105 26.5353C25.8105 27.0407 26.2202 27.4503 26.7256 27.4503Z" fill="#141414"/>
<path d="M36.4131 27.4501H41.3649C41.8703 27.4501 42.2799 27.0405 42.2799 26.5351C42.2799 26.0297 41.8703 25.6201 41.3649 25.6201H36.4131C35.9077 25.6201 35.498 26.0297 35.498 26.5351C35.498 27.0405 35.9077 27.4501 36.4131 27.4501Z" fill="#141414"/>
<path d="M46.1025 27.4503H51.0542C51.5596 27.4503 51.9692 27.0407 51.9692 26.5353C51.9692 26.0299 51.5596 25.6203 51.0542 25.6203H46.1025C45.5971 25.6203 45.1875 26.0299 45.1875 26.5353C45.1875 27.0407 45.5971 27.4503 46.1025 27.4503Z" fill="#141414"/>
<path d="M31.6763 32.0797H26.7246C26.2192 32.0797 25.8096 32.4893 25.8096 32.9947C25.8096 33.5001 26.2192 33.9097 26.7246 33.9097H31.6763C32.1817 33.9097 32.5913 33.5001 32.5913 32.9947C32.5913 32.4893 32.1817 32.0797 31.6763 32.0797Z" fill="#141414"/>
<path d="M36.4131 33.9097H41.3649C41.8703 33.9097 42.2799 33.5001 42.2799 32.9947C42.2799 32.4893 41.8703 32.0797 41.3649 32.0797H36.4131C35.9077 32.0797 35.498 32.4893 35.498 32.9947C35.498 33.5001 35.9077 33.9097 36.4131 33.9097Z" fill="#141414"/>
<path d="M46.1025 33.9097H51.0542C51.5596 33.9097 51.9692 33.5001 51.9692 32.9947C51.9692 32.4893 51.5596 32.0797 51.0542 32.0797H46.1025C45.5971 32.0797 45.1875 32.4893 45.1875 32.9947C45.1875 33.5001 45.5971 33.9097 46.1025 33.9097Z" fill="#141414"/>
<path d="M36.4131 40.3675H41.3649C41.8703 40.3675 42.2799 39.9579 42.2799 39.4525C42.2799 38.9471 41.8703 38.5375 41.3649 38.5375H36.4131C35.9077 38.5375 35.498 38.9471 35.498 39.4525C35.498 39.9579 35.9077 40.3675 36.4131 40.3675Z" fill="#141414"/>
<path d="M46.1025 40.3675H51.0542C51.5596 40.3675 51.9692 39.9579 51.9692 39.4525C51.9692 38.9471 51.5596 38.5375 51.0542 38.5375H46.1025C45.5971 38.5375 45.1875 38.9471 45.1875 39.4525C45.1875 39.9579 45.5971 40.3675 46.1025 40.3675Z" fill="#141414"/>
</g>
<defs>
<clipPath id="clip0_1993_6603">
<rect width="64" height="64" fill="white"/>
</clipPath>
</defs>
</svg>
