<svg width="64" height="64" viewBox="0 0 64 64" fill="none" xmlns="http://www.w3.org/2000/svg">
<path d="M57.352 1.375H6.648C5.38693 1.37468 4.17701 1.87356 3.28265 2.76261C2.38828 3.65165 1.8822 4.85858 1.875 6.11962V45.546C1.875 48.1625 4.02812 50.25 6.648 50.25H22.1413L22.2006 56.75H20.3784C19.6993 56.7472 19.0263 56.8783 18.398 57.1358C17.7696 57.3933 17.1982 57.7722 16.7164 58.2508C16.2346 58.7293 15.8519 59.2982 15.5901 59.9248C15.3283 60.5514 15.1927 61.2234 15.1909 61.9025C15.1914 61.9996 15.2114 62.0955 15.2497 62.1847C15.2879 62.2739 15.3436 62.3546 15.4135 62.4219C15.4834 62.4892 15.5661 62.5419 15.6567 62.5768C15.7472 62.6117 15.8439 62.6281 15.9409 62.625H48.0591C48.1561 62.6281 48.2528 62.6117 48.3433 62.5768C48.4339 62.5419 48.5166 62.4892 48.5865 62.4219C48.6564 62.3546 48.7121 62.2739 48.7503 62.1847C48.7886 62.0955 48.8086 61.9996 48.8091 61.9025C48.8073 61.2234 48.6717 60.5514 48.4099 59.9248C48.1481 59.2982 47.7654 58.7293 47.2836 58.2508C46.8018 57.7722 46.2304 57.3933 45.602 57.1358C44.9737 56.8783 44.3007 56.7472 43.6216 56.75H41.8L41.8594 50.25H57.352C59.9719 50.25 62.125 48.1625 62.125 45.546V6.11962C62.1178 4.85858 61.6117 3.65165 60.7174 2.76261C59.823 1.87356 58.6131 1.37468 57.352 1.375ZM43.6217 58.25C44.4629 58.2388 45.282 58.519 45.9401 59.043C46.5982 59.5671 47.0546 60.3027 47.232 61.125H16.7681C16.9455 60.3027 17.402 59.5671 18.06 59.043C18.7181 58.519 19.5372 58.2388 20.3784 58.25H43.6217ZM23.6414 50.25H40.3587L40.2994 56.75H23.7008L23.6414 50.25ZM60.625 39.75H16.625C16.4261 39.75 16.2353 39.829 16.0947 39.9697C15.954 40.1103 15.875 40.3011 15.875 40.5C15.875 40.6989 15.954 40.8897 16.0947 41.0303C16.2353 41.171 16.4261 41.25 16.625 41.25H60.625V45.546C60.625 47.3351 59.1449 48.75 57.352 48.75H6.648C4.85512 48.75 3.375 47.3351 3.375 45.546V41.25H19.375C19.5739 41.25 19.7647 41.171 19.9053 41.0303C20.046 40.8897 20.125 40.6989 20.125 40.5C20.125 40.3011 20.046 40.1103 19.9053 39.9697C19.7647 39.829 19.5739 39.75 19.375 39.75H3.375V6.11962C3.38177 5.25627 3.72967 4.43063 4.34282 3.82279C4.95598 3.21495 5.78462 2.87425 6.648 2.875H57.352C58.2154 2.87425 59.044 3.21495 59.6572 3.82279C60.2703 4.43063 60.6182 5.25627 60.625 6.11962V39.75Z" fill="#141414"/>
<path d="M31.9994 47.2632C32.4548 47.2628 32.9 47.1272 33.2784 46.8738C33.6569 46.6204 33.9518 46.2605 34.1257 45.8395C34.2997 45.4186 34.345 44.9555 34.2558 44.5088C34.1666 44.0622 33.947 43.6519 33.6248 43.33C33.3025 43.0081 32.8921 42.789 32.4453 42.7003C31.9986 42.6117 31.5355 42.6574 31.1148 42.8318C30.694 43.0063 30.3344 43.3015 30.0814 43.6803C29.8284 44.059 29.6934 44.5043 29.6934 44.9598C29.6944 45.5708 29.9377 46.1565 30.3701 46.5883C30.8024 47.0202 31.3883 47.2629 31.9994 47.2632ZM31.9994 44.1563C32.1582 44.1567 32.3133 44.2043 32.4451 44.2929C32.5769 44.3815 32.6795 44.5071 32.7399 44.654C32.8003 44.8009 32.8159 44.9623 32.7846 45.118C32.7533 45.2737 32.6766 45.4167 32.5641 45.5288C32.4517 45.6409 32.3085 45.7172 32.1527 45.748C31.9969 45.7788 31.8355 45.7627 31.6888 45.7018C31.5421 45.641 31.4168 45.538 31.3286 45.4059C31.2404 45.2738 31.1934 45.1186 31.1934 44.9598C31.1939 44.7464 31.2791 44.542 31.4302 44.3913C31.5813 44.2407 31.786 44.1562 31.9994 44.1563Z" fill="#141414"/>
<path d="M19.7764 30.4535C19.9041 30.4535 20.0297 30.4207 20.1411 30.3582L22.845 28.8493L31.6255 33.9106C31.7394 33.9763 31.8685 34.0108 32 34.0108C32.1315 34.0108 32.2606 33.9763 32.3745 33.9106L41.1555 28.8493L43.8594 30.3582C44.0331 30.4566 44.2387 30.4819 44.431 30.4286C44.6233 30.3753 44.7866 30.2477 44.8849 30.0741C44.9832 29.9004 45.0085 29.6948 44.9552 29.5024C44.9019 29.3101 44.7744 29.1468 44.6007 29.0485L41.7505 27.4517V17.7342C41.7484 17.6017 41.7118 17.4719 41.6441 17.3579C41.5764 17.2439 41.48 17.1495 41.3646 17.0842L32.7505 12.125V8.875C32.7505 8.67609 32.6715 8.48532 32.5308 8.34467C32.3902 8.20402 32.1994 8.125 32.0005 8.125C31.8016 8.125 31.6108 8.20402 31.4702 8.34467C31.3295 8.48532 31.2505 8.67609 31.2505 8.875V12.125L22.6364 17.0841C22.521 17.1494 22.4246 17.2437 22.3569 17.3578C22.2892 17.4718 22.2525 17.6015 22.2505 17.7341V27.4516L19.3997 29.0484C19.314 29.0966 19.2386 29.1613 19.1779 29.2388C19.1172 29.3162 19.0724 29.4048 19.046 29.4996C19.0196 29.5944 19.0121 29.6934 19.0241 29.7911C19.036 29.8888 19.0671 29.9831 19.1155 30.0688C19.1817 30.1857 19.2778 30.2829 19.3939 30.3505C19.51 30.4181 19.642 30.4537 19.7764 30.4535ZM40.2505 27.6519L32.7505 31.9625V23.3424L40.2505 19.0315V27.6519ZM32.0005 13.425L39.4772 17.7345L32.0005 22.0434L24.5237 17.7339L32.0005 13.425ZM23.7505 19.0321L31.2505 23.343V31.9625L23.7505 27.6515V19.0321Z" fill="#141414"/>
<path d="M47.7717 36.25H14.3119L14.3201 33.4319L16.6739 33.4386C16.7708 33.4423 16.8674 33.4264 16.958 33.3918C17.0485 33.3573 17.1312 33.3048 17.201 33.2375C17.2707 33.1702 17.3262 33.0896 17.3641 33.0003C17.4019 32.9111 17.4213 32.8151 17.4212 32.7182C17.421 32.6213 17.4013 32.5254 17.3632 32.4363C17.3251 32.3471 17.2694 32.2666 17.1994 32.1995C17.1294 32.1325 17.0466 32.0802 16.956 32.0459C16.8653 32.0117 16.7687 31.996 16.6718 32H16.6698L14.3244 31.9819L14.3323 29.2006L15.6922 29.191C15.8939 29.1819 16.0844 29.0953 16.2238 28.9493C16.3632 28.8032 16.4409 28.609 16.4407 28.407C16.4404 28.2051 16.3622 28.0111 16.2224 27.8654C16.0826 27.7197 15.8919 27.6336 15.6902 27.625H15.6883L14.3367 27.6586L14.3452 24.7666L16.6854 24.7681C16.8851 24.7653 17.0756 24.684 17.2157 24.5417C17.3558 24.3995 17.4342 24.2078 17.4339 24.0081C17.4337 23.8085 17.3548 23.617 17.2144 23.4751C17.0739 23.3332 16.8832 23.2523 16.6836 23.25H16.6816L14.3494 23.2689L14.3573 20.5064H15.7038C15.8027 20.5062 15.9006 20.4866 15.992 20.4487C16.0833 20.4107 16.1663 20.3551 16.2361 20.2851C16.306 20.215 16.3613 20.1319 16.3991 20.0405C16.4368 19.9491 16.4561 19.8511 16.456 19.7522C16.4559 19.6533 16.4363 19.5554 16.3983 19.464C16.3603 19.3727 16.3047 19.2897 16.2347 19.2199C16.1647 19.15 16.0816 19.0947 15.9901 19.0569C15.8987 19.0192 15.8007 18.9999 15.7018 19H15.6994L14.3612 19.008L14.3697 16.1034L16.6966 16.0984C16.7941 16.0995 16.8909 16.0813 16.9814 16.0448C17.0718 16.0082 17.1541 15.9541 17.2235 15.8855C17.2928 15.8169 17.3479 15.7352 17.3854 15.6451C17.423 15.5551 17.4422 15.4585 17.4421 15.3609C17.442 15.2634 17.4226 15.1668 17.3848 15.0768C17.3471 14.9869 17.2919 14.9053 17.2224 14.8368C17.1529 14.7684 17.0705 14.7144 16.98 14.678C16.8895 14.6417 16.7926 14.6236 16.6951 14.625H16.6938L14.3744 14.6184L14.3824 11.8434L15.7156 11.8366C15.9094 11.8364 16.0952 11.7591 16.232 11.6219C16.3689 11.4846 16.4456 11.2986 16.4454 11.1048C16.4451 10.911 16.3679 10.7252 16.2306 10.5883C16.0934 10.4515 15.9074 10.3747 15.7136 10.375H15.7119L14.3869 10.3575L14.3951 7.51662C14.3964 7.31613 14.3187 7.12318 14.1786 6.97966C14.0386 6.83614 13.8477 6.75362 13.6472 6.75H13.6449C13.446 6.75089 13.2555 6.83043 13.115 6.97127C12.9745 7.11211 12.8954 7.30281 12.8949 7.50175L12.8096 37.0476C12.8094 37.1426 12.8288 37.2366 12.8665 37.3238C12.9041 37.4109 12.9592 37.4895 13.0284 37.5545C13.0995 37.6209 13.183 37.6723 13.2743 37.7059C13.3655 37.7395 13.4625 37.7545 13.5596 37.75H47.7721C47.971 37.75 48.1618 37.671 48.3024 37.5303C48.4431 37.3897 48.5221 37.1989 48.5221 37C48.5221 36.8011 48.4431 36.6103 48.3024 36.4697C48.1618 36.329 47.971 36.25 47.7721 36.25H47.7717Z" fill="#141414"/>
</svg>
