<svg width="64" height="64" viewBox="0 0 64 64" fill="none" xmlns="http://www.w3.org/2000/svg">
<path d="M37.3885 36.5148C38.7985 36.4889 40.1973 35.8353 41.226 34.7213L53.2635 21.6907C55.3125 19.4727 55.4615 16.2708 53.6029 14.4014L49.5215 10.2959C49.0934 9.87165 48.585 9.5371 48.0259 9.31187C47.4668 9.08665 46.8684 8.97528 46.2658 8.9843C44.8854 8.9843 43.4357 9.54092 42.2628 10.6373L29.3084 22.7455C28.2024 23.7794 27.5533 25.1838 27.5274 26.5988C27.5078 27.161 27.6022 27.7214 27.8049 28.2462C28.0076 28.771 28.3144 29.2493 28.7069 29.6523L34.3478 35.3263C34.7471 35.7208 35.2228 36.0297 35.7456 36.234C36.2685 36.4384 36.8275 36.5339 37.3885 36.5148ZM43.2874 11.7332C44.8999 10.2257 47.171 10.0589 48.4582 11.3534L52.5393 15.459C53.8295 16.7568 53.6643 19.0465 52.1618 20.6729L50.0643 22.9435L41.023 13.8492L43.2874 11.7332ZM39.9272 14.8738L49.0459 24.0463L43.7424 29.7872L34.2199 20.2083L39.9272 14.8738ZM29.0272 26.6264C29.0457 25.6147 29.5215 24.5997 30.3327 23.8414L33.1235 21.2328L42.7235 30.8897L40.1249 33.7034C39.3719 34.5185 38.3647 34.9967 37.3615 35.015H37.304C36.9549 35.0224 36.6077 34.9602 36.2829 34.832C35.958 34.7038 35.6619 34.5122 35.4119 34.2683L29.771 28.5943C29.5208 28.3333 29.326 28.0245 29.1981 27.6863C29.0703 27.3481 29.0121 26.9876 29.0272 26.6264Z" fill="#141414"/>
<path d="M35.5996 37.3137C35.2389 37.3128 34.8817 37.3838 34.5488 37.5225C34.2159 37.6611 33.9139 37.8647 33.6604 38.1213C33.1484 38.6388 32.8611 39.3374 32.8611 40.0655C32.8611 40.7935 33.1484 41.4922 33.6604 42.0097C33.9144 42.2656 34.2165 42.4686 34.5493 42.6072C34.8821 42.7458 35.239 42.8172 35.5995 42.8172C35.96 42.8172 36.317 42.7458 36.6498 42.6072C36.9826 42.4686 37.2846 42.2656 37.5386 42.0097C38.0507 41.4921 38.3379 40.7935 38.3379 40.0654C38.3379 39.3374 38.0507 38.6387 37.5386 38.1212C37.2851 37.8646 36.9832 37.6611 36.6503 37.5224C36.3174 37.3838 35.9602 37.3128 35.5996 37.3137ZM36.4746 40.9522C36.36 41.0677 36.2237 41.1595 36.0736 41.2221C35.9234 41.2847 35.7623 41.3169 35.5996 41.3169C35.4369 41.3169 35.2758 41.2847 35.1256 41.2221C34.9754 41.1595 34.8391 41.0677 34.7246 40.9522C34.4911 40.7161 34.3601 40.3975 34.3601 40.0655C34.3601 39.7335 34.4911 39.4148 34.7246 39.1788C34.8391 39.0632 34.9754 38.9715 35.1256 38.9089C35.2758 38.8463 35.4369 38.814 35.5996 38.814C35.7623 38.814 35.9234 38.8463 36.0736 38.9089C36.2237 38.9715 36.36 39.0632 36.4746 39.1788C36.7081 39.4148 36.8392 39.7333 36.8393 40.0654C36.8394 40.3974 36.7086 40.716 36.4752 40.9522H36.4746Z" fill="#141414"/>
<path d="M2.19961 61.9936C2.49035 62.2825 2.85357 62.4877 3.25105 62.5876C3.64853 62.6875 4.06559 62.6784 4.45836 62.5614L9.31111 61.1489C9.433 61.1134 9.54389 61.0476 9.63336 60.9575L12.5309 58.0435C12.58 57.9942 12.6221 57.9383 12.6559 57.8774L14.7371 54.1078L17.01 53.4125C17.1281 53.3764 17.2354 53.3117 17.3225 53.2241L22.2811 48.2366C22.3897 48.1275 22.462 47.9875 22.4882 47.8358L22.8265 45.8799H24.2565C24.3553 45.8799 24.4532 45.8603 24.5445 45.8224C24.6358 45.7844 24.7187 45.7287 24.7884 45.6586L28.5605 41.8643L30.5817 43.8974C31.3003 44.6218 32.1587 45.1924 33.1047 45.5746C34.0508 45.9568 35.0647 46.1425 36.0848 46.1205C37.1048 46.0985 38.1098 45.8692 39.0385 45.4465C39.9671 45.0239 40.8001 44.4167 41.4867 43.662L60.2936 23.0434C61.7589 21.4401 62.5505 19.3341 62.5039 17.1626C62.4574 14.9911 61.5763 12.921 60.0436 11.382L52.5234 3.8165C51.0007 2.27486 48.9378 1.38654 46.7715 1.33974C44.6052 1.29293 42.5058 2.09131 40.918 3.56575L20.4214 22.4837C19.6707 23.1784 19.0676 24.017 18.648 24.9497C18.2284 25.8824 18.0009 26.89 17.9791 27.9125C17.9572 28.935 18.1415 29.9514 18.5209 30.9012C18.9002 31.8509 19.467 32.7146 20.1872 33.4406L22.0706 35.3351L18.2644 39.1638C18.1984 39.2302 18.1454 39.3084 18.1081 39.3944L17.2724 41.3229L15.1849 42.3229C15.0573 42.384 14.9496 42.4799 14.8742 42.5996C14.7989 42.7193 14.7589 42.8578 14.7589 42.9993V44.3069L12.8904 44.734C12.7521 44.7656 12.6256 44.8358 12.5256 44.9364L9.62836 47.8508C9.50339 47.9765 9.42699 48.1424 9.41273 48.3191L9.29223 49.8125L7.58173 50.1063C7.42819 50.1326 7.28666 50.2061 7.17686 50.3166L3.10961 54.4079C3.01728 54.5007 2.9509 54.616 2.91711 54.7425L1.58061 59.7271C1.47065 60.1257 1.4701 60.5465 1.57903 60.9453C1.68795 61.3442 1.90232 61.7063 2.19961 61.9936ZM21.251 32.3831C20.6729 31.8001 20.218 31.1067 19.9135 30.3442C19.609 29.5817 19.4611 28.7657 19.4786 27.9449C19.4961 27.124 19.6786 26.315 20.0154 25.5662C20.3521 24.8174 20.836 24.144 21.4385 23.5861L41.9352 4.66812C43.2383 3.45806 44.9613 2.80284 46.7391 2.84127C48.517 2.8797 50.21 3.60876 51.4596 4.874L58.9806 12.4395C60.2413 13.7056 60.9659 15.4087 61.0041 17.195C61.0422 18.9813 60.3909 20.7137 59.1854 22.0325L40.3784 42.65C39.8301 43.2567 39.1632 43.7445 38.4189 44.0833C37.6746 44.4221 36.8687 44.6046 36.0511 44.6196C36.0064 44.6206 35.962 44.6211 35.9175 44.6211C35.1226 44.6231 34.3354 44.4664 33.6018 44.1604C32.8683 43.8543 32.2031 43.405 31.6454 42.8388L21.251 32.3831ZM3.02961 60.1155L4.31436 55.3238L8.07186 51.544L10.1201 51.1924C10.2843 51.1642 10.4344 51.0821 10.5467 50.9592C10.6591 50.8363 10.7274 50.6794 10.7407 50.5134L10.8859 48.7134L13.4359 46.1478L15.6756 45.6353C15.8412 45.5974 15.989 45.5045 16.0949 45.3716C16.2008 45.2388 16.2585 45.074 16.2585 44.9041V43.471L18.1726 42.5541C18.3356 42.476 18.4649 42.3417 18.5367 42.1759L19.4276 40.1201L23.1276 36.3983L27.5026 40.7983L23.9441 44.3776H22.1941C22.0174 44.3776 21.8463 44.4401 21.7111 44.5539C21.5759 44.6678 21.4852 44.8257 21.4551 44.9999L21.0496 47.3448L16.3905 52.0315L14.008 52.7625C13.8216 52.8194 13.6647 52.9465 13.5705 53.117L11.3926 57.0604L8.70636 59.7625L4.03936 61.1206C3.90186 61.1618 3.75576 61.165 3.61661 61.1298C3.47746 61.0945 3.35046 61.0223 3.24911 60.9206C3.14366 60.8185 3.06764 60.6898 3.02902 60.5481C2.9904 60.4065 2.9906 60.2571 3.02961 60.1155Z" fill="#141414"/>
</svg>
