<svg width="46" height="18" viewBox="0 0 46 18" fill="none" xmlns="http://www.w3.org/2000/svg">
<path d="M0 17.4003V0.624003H2.91418V9.26062L11.6047 0.600342H14.8311L7.54564 8.0302L15.2474 17.4003H11.9429L5.69826 9.7102L2.91418 12.3367V17.4003H0Z" fill="white"/>
<path d="M17.1769 17.4003V0.600342H29.4841V2.94288H20.0911V7.95922H27.949V10.1598H20.0911V17.4003H17.1769Z" fill="white"/>
<path d="M32.2448 17.4003V0.600342H39.9986C40.8312 0.600342 41.5945 0.758088 42.2883 1.07358C42.9822 1.38907 43.5893 1.8071 44.1097 2.32767C44.6301 2.84823 45.029 3.43189 45.3066 4.07865C45.5841 4.72541 45.7229 5.38795 45.7229 6.06626C45.7229 6.99696 45.4887 7.88823 45.0204 8.74006C44.5694 9.57612 43.9189 10.2544 43.0689 10.775C42.2363 11.2956 41.2649 11.5558 40.1547 11.5558H35.159V17.4003H32.2448ZM35.159 9.2133H39.9726C40.5277 9.2133 41.0134 9.07922 41.4297 8.81105C41.846 8.5271 42.1669 8.14851 42.3924 7.67527C42.6352 7.20203 42.7567 6.66569 42.7567 6.06626C42.7567 5.45105 42.6179 4.90682 42.3404 4.43358C42.0628 3.96034 41.6985 3.59753 41.2475 3.34513C40.8139 3.07696 40.3369 2.94288 39.8165 2.94288H35.159V9.2133Z" fill="white"/>
</svg>
