<svg width="120" height="40" viewBox="0 0 120 40" fill="none" xmlns="http://www.w3.org/2000/svg">
<g clip-path="url(#clip0_1741_8182)">
<path fill-rule="evenodd" clip-rule="evenodd" d="M87.8398 17.5737C84.6535 17.5737 82.1721 15.2236 82.1721 11.6223C82.1721 8.02085 84.6615 5.67075 87.8398 5.67075C91.018 5.67075 93.5079 8.0249 93.5079 11.6223C93.5079 15.2196 91.014 17.5737 87.8398 17.5737ZM87.8398 22.4544C94.5688 22.4544 99.5242 17.8705 99.5242 11.6263C99.5242 5.382 94.5688 0.798096 87.8398 0.798096C81.1112 0.798096 76.1558 5.378 76.1558 11.6263C76.1558 17.8745 81.1112 22.4544 87.8398 22.4544ZM69.3658 22.0534H76.2772L67.2325 10.4472L75.8237 1.2232H69.2769L61.1353 9.86565V1.21117H55.2484V22.0373H61.1353V16.8237L63.358 14.4697L69.3658 22.0534ZM40.3537 17.4855V13.6756H49.7059V9.2641H40.3537V5.755H50.9529V1.21117H34.4629V22.0373H51.3455V17.4855H40.3537Z" fill="#009DD8"/>
<path fill-rule="evenodd" clip-rule="evenodd" d="M2.51472 14.1627C2.5147 14.0055 2.55637 13.851 2.63567 13.7143L2.66069 13.6735L6.83099 7.06505C7.14747 6.4979 7.6032 6.01655 8.15717 5.6643C8.7111 5.31205 9.34599 5.09995 10.0046 5.04705L11.3183 4.96551L12.6611 4.88398H12.7237C13.8042 4.83423 14.8252 4.38547 15.5804 3.62833L15.9056 3.26958L17.5737 1.39833C15.8562 0.480715 13.9303 -0.00012665 11.973 2.50223e-08C5.36306 2.50223e-08 1.98595e-05 5.38135 1.98595e-05 12.0224C-0.00534038 14.9534 1.07454 17.7874 3.04019 20.0007L7.03953 15.1085L7.12294 15.0107V14.9821C7.44111 14.6136 7.8376 14.3173 8.28489 14.1138C8.73213 13.9103 9.21938 13.8046 9.71272 13.804H9.82115C10.4134 13.8848 10.9898 14.0525 11.531 14.3013C11.531 14.3013 12.9447 14.9291 13.7663 14.9291C14.4509 14.9258 15.1245 14.761 15.7301 14.4487C16.3356 14.1364 16.855 13.6859 17.2443 13.1354L17.2985 13.0579L17.3236 13.0253L19.8466 9.3562L19.8716 9.3236C19.9506 9.21225 20.0559 9.1211 20.1787 9.05795C20.3013 8.9948 20.4377 8.96145 20.5764 8.96075C20.6936 8.96235 20.8093 8.9865 20.917 9.03185C21.0246 9.07715 21.1221 9.14275 21.2038 9.2249C21.2855 9.30705 21.3499 9.40415 21.3932 9.5106C21.4366 9.6171 21.458 9.73085 21.4563 9.8454C21.4558 10.0012 21.4142 10.1543 21.3354 10.2898L21.3104 10.3305L17.14 16.939C16.8225 17.5049 16.3664 17.9851 15.8126 18.3365C15.2587 18.688 14.6244 18.8997 13.9664 18.9529L12.657 19.0345L11.3141 19.116H11.2515C10.1713 19.1669 9.1508 19.6155 8.39488 20.3716L8.06961 20.7345L6.40149 22.6016C8.11776 23.5186 10.0422 23.9994 11.9981 24C18.6122 24 23.9752 18.6186 23.9752 11.9816C23.9816 9.0492 22.9016 6.2137 20.935 3.99932L16.9357 8.89145L16.8523 8.9893V9.01785C16.5341 9.3864 16.1376 9.6827 15.6903 9.8862C15.2431 10.0896 14.7559 10.1954 14.2625 10.196H14.1916C13.601 10.116 13.026 9.94975 12.486 9.70275C12.486 9.70275 11.0681 9.07085 10.2465 9.07085C9.56177 9.07345 8.88782 9.238 8.28219 9.5503C7.67657 9.86265 7.15721 10.3136 6.76846 10.8646C6.74898 10.8894 6.7309 10.9153 6.71426 10.9421L6.68924 10.9747L4.16618 14.6438L4.14115 14.6805C4.06212 14.7918 3.9568 14.8829 3.83412 14.9461C3.71145 15.0092 3.57502 15.0426 3.43637 15.0433C3.31936 15.0422 3.20372 15.0186 3.09609 14.9737C2.98846 14.9288 2.89096 14.8636 2.8092 14.7818C2.72743 14.6999 2.66301 14.6031 2.61963 14.4969C2.57625 14.3907 2.55478 14.2771 2.55643 14.1627H2.51472ZM51.1427 37.7339L50.6931 38.1779V38.9999H49.758V34.5479H50.6931V37.0679L52.0597 35.7719H53.1746L51.832 37.1399L53.2944 38.9999H52.1616L51.1427 37.7339ZM35.4275 37.9379L35.9909 37.35L37.3335 38.9999H38.4663L36.6262 36.6719L38.3644 34.7999H37.2855L35.4275 36.7619V34.7999H34.4624V38.9999H35.4275V37.9379ZM40.2673 35.844C40.0794 35.9239 39.9296 36.0419 39.8177 36.198V35.7719H38.9246V38.9999H39.8597V37.476C39.8597 37.1759 39.9356 36.9519 40.0874 36.8039C40.2393 36.6519 40.4491 36.5759 40.7168 36.5759C40.7528 36.5759 40.8227 36.58 40.9266 36.5879V35.7239C40.6788 35.7239 40.4591 35.7639 40.2673 35.844ZM42.9155 35.7239C43.415 35.7239 43.7986 35.844 44.0663 36.0839C44.334 36.3199 44.4679 36.6779 44.4679 37.1579V38.9999H43.5928V38.5979C43.417 38.8979 43.0893 39.0479 42.6098 39.0479C42.3621 39.0479 42.1463 39.0059 41.9625 38.9219C41.7827 38.8379 41.6448 38.7219 41.5489 38.5739C41.453 38.4259 41.4051 38.2579 41.4051 38.0699C41.4051 37.7699 41.517 37.5339 41.7407 37.3619C41.9685 37.1899 42.3181 37.1039 42.7896 37.1039H43.5329C43.5329 36.8999 43.4709 36.7439 43.3471 36.6359C43.2232 36.524 43.0374 36.468 42.7896 36.468C42.6178 36.468 42.448 36.496 42.2802 36.552C42.1163 36.6039 41.9765 36.6759 41.8606 36.7679L41.525 36.114C41.7008 35.99 41.9106 35.8939 42.1543 35.8259C42.402 35.7579 42.6558 35.7239 42.9155 35.7239ZM42.8436 38.4179C43.0034 38.4179 43.1453 38.3819 43.2691 38.3099C43.393 38.2339 43.4809 38.1239 43.5329 37.9799V37.6499H42.8915C42.5079 37.6499 42.3161 37.7759 42.3161 38.0279C42.3161 38.1479 42.3621 38.2439 42.454 38.316C42.5499 38.3839 42.6798 38.4179 42.8436 38.4179ZM48.389 36.0839C48.1452 35.844 47.8235 35.7239 47.424 35.7239C47.2042 35.7239 47.0024 35.7619 46.8186 35.8379C46.6348 35.9099 46.4809 36.0139 46.3571 36.1499V35.7719H45.464V38.9999H46.399V37.4039C46.399 37.1159 46.4689 36.8999 46.6088 36.7559C46.7487 36.608 46.9365 36.5339 47.1722 36.5339C47.384 36.5339 47.5458 36.5979 47.6577 36.726C47.7696 36.8499 47.8255 37.0399 47.8255 37.2959V38.9999H48.7606V37.1519C48.7606 36.6799 48.6367 36.3239 48.389 36.0839ZM56.8648 37.6499C56.8767 37.4939 56.8827 37.4099 56.8827 37.3979C56.8827 37.0619 56.8088 36.7679 56.661 36.5159C56.5171 36.26 56.3173 36.0639 56.0616 35.9279C55.8058 35.7919 55.5201 35.7239 55.2045 35.7239C54.8808 35.7239 54.5871 35.7959 54.3234 35.9399C54.0637 36.08 53.8579 36.2779 53.706 36.5339C53.5582 36.7859 53.4842 37.0699 53.4842 37.3859C53.4842 37.7059 53.5602 37.9919 53.712 38.2439C53.8639 38.496 54.0796 38.6939 54.3593 38.8379C54.6391 38.9779 54.9607 39.0479 55.3243 39.0479C55.9077 39.0479 56.3513 38.8739 56.655 38.5259L56.1575 37.9859C56.0456 38.094 55.9237 38.1739 55.7919 38.226C55.664 38.274 55.5161 38.2979 55.3483 38.2979C55.1046 38.2979 54.9008 38.24 54.737 38.1239C54.5731 38.0079 54.4692 37.85 54.4253 37.6499H56.8648ZM54.677 36.6119C54.8209 36.4919 54.9987 36.4319 55.2105 36.4319C55.4183 36.4319 55.5941 36.4939 55.7379 36.6179C55.8818 36.7379 55.9697 36.8999 56.0016 37.1039H54.4133C54.4453 36.8959 54.5332 36.732 54.677 36.6119ZM59.6154 35.7239C60.015 35.7239 60.3367 35.844 60.5804 36.0839C60.8282 36.3239 60.952 36.6799 60.952 37.1519V38.9999H60.017V37.2959C60.017 37.0399 59.9611 36.8499 59.8492 36.726C59.7373 36.5979 59.5755 36.5339 59.3637 36.5339C59.1279 36.5339 58.9401 36.608 58.8003 36.7559C58.6604 36.8999 58.5905 37.1159 58.5905 37.4039V38.9999H57.6554V35.7719H58.5485V36.1499C58.6724 36.0139 58.8262 35.9099 59.01 35.8379C59.1938 35.7619 59.3956 35.7239 59.6154 35.7239ZM64.8745 36.0839C64.6307 35.844 64.3091 35.7239 63.9095 35.7239C63.7017 35.7239 63.5099 35.7579 63.3341 35.8259C63.1583 35.8899 63.0084 35.9839 62.8845 36.108V34.5479H61.9495V38.9999H62.8845V37.4039C62.8845 37.1159 62.9545 36.8999 63.0943 36.7559C63.2342 36.608 63.422 36.5339 63.6577 36.5339C63.8695 36.5339 64.0314 36.5979 64.1432 36.726C64.2551 36.8499 64.3111 37.0399 64.3111 37.2959V38.9999H65.2461V37.1519C65.2461 36.6799 65.1222 36.3239 64.8745 36.0839ZM67.5437 35.7239C68.0432 35.7239 68.4268 35.844 68.6945 36.0839C68.9623 36.3199 69.0961 36.6779 69.0961 37.1579V38.9999H68.221V38.5979C68.0452 38.8979 67.7175 39.0479 67.238 39.0479C66.9903 39.0479 66.7745 39.0059 66.5907 38.9219C66.4109 38.8379 66.273 38.7219 66.1771 38.5739C66.0812 38.4259 66.0333 38.2579 66.0333 38.0699C66.0333 37.7699 66.1452 37.5339 66.3689 37.3619C66.5967 37.1899 66.9463 37.1039 67.4179 37.1039H68.1611C68.1611 36.8999 68.0992 36.7439 67.9753 36.6359C67.8514 36.524 67.6656 36.468 67.4179 36.468C67.246 36.468 67.0762 36.496 66.9084 36.552C66.7446 36.6039 66.6047 36.6759 66.4888 36.7679L66.1532 36.114C66.329 35.99 66.5388 35.8939 66.7825 35.8259C67.0303 35.7579 67.284 35.7239 67.5437 35.7239ZM67.4718 38.4179C67.6316 38.4179 67.7735 38.3819 67.8974 38.3099C68.0212 38.2339 68.1091 38.1239 68.1611 37.9799V37.6499H67.5197C67.1361 37.6499 66.9443 37.7759 66.9443 38.0279C66.9443 38.1479 66.9903 38.2439 67.0822 38.316C67.1781 38.3839 67.308 38.4179 67.4718 38.4179ZM73.3412 38.9999V35.7719H72.4062V37.3679C72.4062 37.656 72.3383 37.8739 72.2024 38.0219C72.0666 38.1659 71.8867 38.2379 71.663 38.2379C71.2274 38.2379 71.0096 37.9779 71.0096 37.4579V35.7719H70.0746V37.5959C70.0746 38.0759 70.1985 38.4379 70.4462 38.6819C70.694 38.926 71.0296 39.0479 71.4532 39.0479C71.653 39.0479 71.8388 39.0119 72.0106 38.9399C72.1824 38.864 72.3303 38.7559 72.4541 38.6159V38.9999H73.3412ZM75.4421 39.0479C75.1743 39.0479 74.9126 39.0159 74.6569 38.9519C74.4011 38.8839 74.1973 38.7999 74.0455 38.6999L74.3572 38.0279C74.501 38.1199 74.6749 38.1959 74.8786 38.2559C75.0824 38.3119 75.2822 38.3399 75.478 38.3399C75.8736 38.3399 76.0714 38.2419 76.0714 38.0459C76.0714 37.9539 76.0175 37.8879 75.9096 37.8479C75.8017 37.8079 75.6359 37.774 75.4121 37.7459C75.1484 37.7059 74.9306 37.6599 74.7588 37.608C74.5869 37.5559 74.4371 37.4639 74.3092 37.3319C74.1854 37.1999 74.1234 37.0119 74.1234 36.7679C74.1234 36.5639 74.1814 36.3839 74.2972 36.2279C74.4171 36.0679 74.5889 35.9439 74.8127 35.8559C75.0405 35.7679 75.3082 35.7239 75.6159 35.7239C75.8437 35.7239 76.0694 35.7499 76.2932 35.802C76.521 35.8499 76.7088 35.9179 76.8566 36.0059L76.5449 36.6719C76.2612 36.5119 75.9515 36.4319 75.6159 36.4319C75.4161 36.4319 75.2663 36.4599 75.1664 36.5159C75.0665 36.572 75.0165 36.6439 75.0165 36.7319C75.0165 36.8319 75.0704 36.9019 75.1783 36.9419C75.2862 36.982 75.4581 37.0199 75.6938 37.0559C75.9575 37.0999 76.1733 37.1479 76.3411 37.1999C76.509 37.2479 76.6548 37.3379 76.7787 37.4699C76.9026 37.6019 76.9645 37.7859 76.9645 38.0219C76.9645 38.2219 76.9045 38.3999 76.7847 38.5559C76.6648 38.712 76.489 38.8339 76.2572 38.9219C76.0295 39.0059 75.7577 39.0479 75.4421 39.0479ZM80.4554 38.7899C80.807 38.9779 81.2006 39.072 81.6362 39.072C82.0717 39.072 82.4633 38.9779 82.811 38.7899C83.1586 38.6019 83.4323 38.344 83.6321 38.0159C83.8319 37.684 83.9318 37.3119 83.9318 36.8999C83.9318 36.4879 83.8319 36.1179 83.6321 35.7899C83.4323 35.4579 83.1586 35.198 82.811 35.01C82.4633 34.8219 82.0717 34.7279 81.6362 34.7279C81.2006 34.7279 80.807 34.8219 80.4554 35.01C80.1077 35.198 79.834 35.4579 79.6342 35.7899C79.4384 36.1179 79.3405 36.4879 79.3405 36.8999C79.3405 37.3119 79.4384 37.684 79.6342 38.0159C79.834 38.344 80.1077 38.6019 80.4554 38.7899ZM82.3075 38.0759C82.1077 38.1879 81.8839 38.2439 81.6362 38.2439C81.3884 38.2439 81.1646 38.1879 80.9649 38.0759C80.7651 37.9599 80.6072 37.7999 80.4913 37.5959C80.3795 37.3919 80.3235 37.1599 80.3235 36.8999C80.3235 36.6399 80.3795 36.4079 80.4913 36.204C80.6072 35.9999 80.7651 35.8419 80.9649 35.7299C81.1646 35.614 81.3884 35.5559 81.6362 35.5559C81.8839 35.5559 82.1077 35.614 82.3075 35.7299C82.5073 35.8419 82.6631 35.9999 82.775 36.204C82.8909 36.4079 82.9488 36.6399 82.9488 36.8999C82.9488 37.1599 82.8909 37.3919 82.775 37.5959C82.6631 37.7999 82.5073 37.9599 82.3075 38.0759ZM86.6515 35.7239C86.9512 35.7239 87.2229 35.7939 87.4666 35.934C87.7144 36.0699 87.9082 36.2639 88.048 36.5159C88.1879 36.7639 88.2578 37.0539 88.2578 37.3859C88.2578 37.7179 88.1879 38.01 88.048 38.2619C87.9082 38.51 87.7144 38.7039 87.4666 38.844C87.2229 38.9799 86.9512 39.0479 86.6515 39.0479C86.2079 39.0479 85.8703 38.9079 85.6385 38.628V38.9999H84.7455V34.5479H85.6805V36.114C85.9162 35.8539 86.2399 35.7239 86.6515 35.7239ZM86.4897 38.2799C86.7294 38.2799 86.9252 38.1999 87.077 38.0399C87.2329 37.8759 87.3108 37.6579 87.3108 37.3859C87.3108 37.1139 87.2329 36.8979 87.077 36.7379C86.9252 36.5739 86.7294 36.4919 86.4897 36.4919C86.2499 36.4919 86.0521 36.5739 85.8963 36.7379C85.7444 36.8979 85.6685 37.1139 85.6685 37.3859C85.6685 37.6579 85.7444 37.8759 85.8963 38.0399C86.0521 38.1999 86.2499 38.2799 86.4897 38.2799ZM89.7353 37.6499H92.1748C92.1868 37.4939 92.1928 37.4099 92.1928 37.3979C92.1928 37.0619 92.1188 36.7679 91.971 36.5159C91.8271 36.26 91.6273 36.0639 91.3716 35.9279C91.1159 35.7919 90.8302 35.7239 90.5145 35.7239C90.1908 35.7239 89.8971 35.7959 89.6334 35.9399C89.3737 36.08 89.1679 36.2779 89.016 36.5339C88.8682 36.7859 88.7943 37.0699 88.7943 37.3859C88.7943 37.7059 88.8702 37.9919 89.022 38.2439C89.1739 38.496 89.3897 38.6939 89.6694 38.8379C89.9491 38.9779 90.2707 39.0479 90.6344 39.0479C91.2178 39.0479 91.6613 38.8739 91.965 38.5259L91.4675 37.9859C91.3556 38.094 91.2337 38.1739 91.1019 38.226C90.974 38.274 90.8262 38.2979 90.6583 38.2979C90.4146 38.2979 90.2108 38.24 90.047 38.1239C89.8831 38.0079 89.7793 37.85 89.7353 37.6499ZM89.987 36.6119C90.1309 36.4919 90.3087 36.4319 90.5205 36.4319C90.7283 36.4319 90.9041 36.4939 91.0479 36.6179C91.1918 36.7379 91.2797 36.8999 91.3117 37.1039H89.7233C89.7553 36.8959 89.8432 36.732 89.987 36.6119ZM93.858 36.198C93.9699 36.0419 94.1198 35.9239 94.3076 35.844C94.4994 35.7639 94.7192 35.7239 94.9669 35.7239V36.5879C94.863 36.58 94.7931 36.5759 94.7571 36.5759C94.4894 36.5759 94.2796 36.6519 94.1278 36.8039C93.9759 36.9519 93.9 37.1759 93.9 37.476V38.9999H92.965V35.7719H93.858V36.198ZM98.5976 36.0839C98.3539 35.844 98.0322 35.7239 97.6326 35.7239C97.4249 35.7239 97.2331 35.7579 97.0572 35.8259C96.8814 35.8899 96.7316 35.9839 96.6077 36.108V34.5479H95.6727V38.9999H96.6077V37.4039C96.6077 37.1159 96.6776 36.8999 96.8175 36.7559C96.9573 36.608 97.1451 36.5339 97.3809 36.5339C97.5927 36.5339 97.7545 36.5979 97.8664 36.726C97.9783 36.8499 98.0342 37.0399 98.0342 37.2959V38.9999H98.9693V37.1519C98.9693 36.6799 98.8454 36.3239 98.5976 36.0839ZM101.267 35.7239C101.767 35.7239 102.15 35.844 102.418 36.0839C102.686 36.3199 102.82 36.6779 102.82 37.1579V38.9999H101.945V38.5979C101.769 38.8979 101.441 39.0479 100.962 39.0479C100.714 39.0479 100.498 39.0059 100.314 38.9219C100.135 38.8379 99.9967 38.7219 99.9008 38.5739C99.8049 38.4259 99.7569 38.2579 99.7569 38.0699C99.7569 37.7699 99.8688 37.5339 100.093 37.3619C100.32 37.1899 100.67 37.1039 101.142 37.1039H101.885C101.885 36.8999 101.823 36.7439 101.699 36.6359C101.575 36.524 101.389 36.468 101.142 36.468C100.97 36.468 100.8 36.496 100.632 36.552C100.468 36.6039 100.328 36.6759 100.212 36.7679L99.8768 36.114C100.053 35.99 100.262 35.8939 100.506 35.8259C100.754 35.7579 101.008 35.7239 101.267 35.7239ZM101.195 38.4179C101.355 38.4179 101.497 38.3819 101.621 38.3099C101.745 38.2339 101.833 38.1239 101.885 37.9799V37.6499H101.243C100.86 37.6499 100.668 37.7759 100.668 38.0279C100.668 38.1479 100.714 38.2439 100.806 38.316C100.902 38.3839 101.032 38.4179 101.195 38.4179ZM107.064 38.9999V35.7719H106.129V37.3679C106.129 37.656 106.061 37.8739 105.926 38.0219C105.79 38.1659 105.61 38.2379 105.386 38.2379C104.951 38.2379 104.733 37.9779 104.733 37.4579V35.7719H103.798V37.5959C103.798 38.0759 103.922 38.4379 104.169 38.6819C104.417 38.926 104.753 39.0479 105.176 39.0479C105.376 39.0479 105.562 39.0119 105.734 38.9399C105.906 38.864 106.053 38.7559 106.177 38.6159V38.9999H107.064ZM109.165 39.0479C108.897 39.0479 108.636 39.0159 108.38 38.9519C108.124 38.8839 107.921 38.7999 107.769 38.6999L108.08 38.0279C108.224 38.1199 108.398 38.1959 108.602 38.2559C108.806 38.3119 109.005 38.3399 109.201 38.3399C109.597 38.3399 109.795 38.2419 109.795 38.0459C109.795 37.9539 109.741 37.8879 109.633 37.8479C109.525 37.8079 109.359 37.774 109.135 37.7459C108.872 37.7059 108.654 37.6599 108.482 37.608C108.31 37.5559 108.16 37.4639 108.032 37.3319C107.909 37.1999 107.847 37.0119 107.847 36.7679C107.847 36.5639 107.905 36.3839 108.02 36.2279C108.14 36.0679 108.312 35.9439 108.536 35.8559C108.764 35.7679 109.031 35.7239 109.339 35.7239C109.567 35.7239 109.793 35.7499 110.016 35.802C110.244 35.8499 110.432 35.9179 110.58 36.0059L110.268 36.6719C109.984 36.5119 109.675 36.4319 109.339 36.4319C109.139 36.4319 108.989 36.4599 108.89 36.5159C108.79 36.572 108.74 36.6439 108.74 36.7319C108.74 36.8319 108.794 36.9019 108.901 36.9419C109.009 36.982 109.181 37.0199 109.417 37.0559C109.681 37.0999 109.896 37.1479 110.064 37.1999C110.232 37.2479 110.378 37.3379 110.502 37.4699C110.626 37.6019 110.688 37.7859 110.688 38.0219C110.688 38.2219 110.628 38.3999 110.508 38.5559C110.388 38.712 110.212 38.8339 109.98 38.9219C109.753 39.0059 109.481 39.0479 109.165 39.0479ZM112.116 37.6499H114.555C114.567 37.4939 114.573 37.4099 114.573 37.3979C114.573 37.0619 114.499 36.7679 114.351 36.5159C114.208 36.26 114.008 36.0639 113.752 35.9279C113.496 35.7919 113.211 35.7239 112.895 35.7239C112.571 35.7239 112.278 35.7959 112.014 35.9399C111.754 36.08 111.548 36.2779 111.396 36.5339C111.249 36.7859 111.175 37.0699 111.175 37.3859C111.175 37.7059 111.251 37.9919 111.402 38.2439C111.554 38.496 111.77 38.6939 112.05 38.8379C112.329 38.9779 112.651 39.0479 113.015 39.0479C113.598 39.0479 114.042 38.8739 114.345 38.5259L113.848 37.9859C113.736 38.094 113.614 38.1739 113.482 38.226C113.354 38.274 113.207 38.2979 113.039 38.2979C112.795 38.2979 112.591 38.24 112.427 38.1239C112.264 38.0079 112.16 37.85 112.116 37.6499ZM112.367 36.6119C112.511 36.4919 112.689 36.4319 112.901 36.4319C113.109 36.4319 113.284 36.4939 113.428 36.6179C113.572 36.7379 113.66 36.8999 113.692 37.1039H112.104C112.136 36.8959 112.224 36.732 112.367 36.6119ZM117.306 35.7239C117.705 35.7239 118.027 35.844 118.271 36.0839C118.519 36.3239 118.642 36.6799 118.642 37.1519V38.9999H117.707V37.2959C117.707 37.0399 117.651 36.8499 117.54 36.726C117.428 36.5979 117.266 36.5339 117.054 36.5339C116.818 36.5339 116.631 36.608 116.491 36.7559C116.351 36.8999 116.281 37.1159 116.281 37.4039V38.9999H115.346V35.7719H116.239V36.1499C116.363 36.0139 116.517 35.9099 116.7 35.8379C116.884 35.7619 117.086 35.7239 117.306 35.7239ZM61.0414 27.822C60.8696 27.822 60.7298 27.772 60.6219 27.672C60.514 27.572 60.46 27.448 60.46 27.3C60.46 27.152 60.514 27.028 60.6219 26.928C60.7298 26.828 60.8696 26.778 61.0414 26.778C61.2133 26.778 61.3531 26.826 61.461 26.922C61.5689 27.018 61.6228 27.138 61.6228 27.282C61.6228 27.438 61.5689 27.568 61.461 27.672C61.3531 27.772 61.2133 27.822 61.0414 27.822ZM59.556 27.048H58.6209V31.5H59.556V27.048ZM37.7111 30.72V31.5H34.4624V27.3H37.6332V28.08H35.4275V28.992H37.3754V29.748H35.4275V30.72H37.7111ZM41.739 28.272L40.3784 31.5H39.4134L38.0588 28.272H39.0238L39.9169 30.468L40.84 28.272H41.739ZM44.6165 28.584C44.3488 28.344 43.9652 28.224 43.4657 28.224C43.206 28.224 42.9522 28.258 42.7045 28.326C42.4607 28.394 42.2509 28.49 42.0751 28.614L42.4108 29.268C42.5267 29.176 42.6665 29.104 42.8304 29.052C42.9982 28.996 43.168 28.968 43.3398 28.968C43.5876 28.968 43.7734 29.024 43.8973 29.136C44.0211 29.244 44.0831 29.4 44.0831 29.604H43.3398C42.8683 29.604 42.5187 29.69 42.2909 29.862C42.0671 30.034 41.9553 30.27 41.9553 30.57C41.9553 30.758 42.0032 30.926 42.0991 31.074C42.195 31.222 42.3329 31.338 42.5127 31.422C42.6965 31.506 42.9123 31.548 43.16 31.548C43.6395 31.548 43.9672 31.398 44.143 31.098V31.5H45.0181V29.658C45.0181 29.178 44.8842 28.82 44.6165 28.584ZM43.8193 30.81C43.6955 30.882 43.5536 30.918 43.3938 30.918C43.2299 30.918 43.1001 30.884 43.0042 30.816C42.9123 30.744 42.8663 30.648 42.8663 30.528C42.8663 30.276 43.0581 30.15 43.4417 30.15H44.0831V30.48C44.0311 30.624 43.9432 30.734 43.8193 30.81ZM47.9742 28.224C48.3738 28.224 48.6954 28.344 48.9392 28.584C49.1869 28.824 49.3108 29.18 49.3108 29.652V31.5H48.3758V29.796C48.3758 29.54 48.3198 29.35 48.208 29.226C48.0961 29.098 47.9342 29.034 47.7225 29.034C47.4867 29.034 47.2989 29.108 47.159 29.256C47.0192 29.4 46.9492 29.616 46.9492 29.904V31.5H46.0142V28.272H46.9073V28.65C47.0312 28.514 47.185 28.41 47.3688 28.338C47.5526 28.262 47.7544 28.224 47.9742 28.224ZM53.6701 30.96V28.272H52.783V28.686C52.5392 28.378 52.1836 28.224 51.7161 28.224C51.4204 28.224 51.1487 28.29 50.9009 28.422C50.6572 28.55 50.4634 28.732 50.3195 28.968C50.1757 29.204 50.1037 29.476 50.1037 29.784C50.1037 30.092 50.1757 30.364 50.3195 30.6C50.4634 30.836 50.6572 31.02 50.9009 31.152C51.1487 31.28 51.4204 31.344 51.7161 31.344C52.1516 31.344 52.4913 31.21 52.735 30.942V31.08C52.735 31.376 52.6571 31.596 52.5013 31.74C52.3494 31.888 52.1117 31.962 51.788 31.962C51.5802 31.962 51.3724 31.928 51.1646 31.86C50.9569 31.796 50.785 31.708 50.6492 31.596L50.2776 32.268C50.4614 32.412 50.6931 32.522 50.9728 32.598C51.2526 32.674 51.5482 32.712 51.8599 32.712C52.4513 32.712 52.9009 32.568 53.2085 32.28C53.5162 31.992 53.6701 31.552 53.6701 30.96ZM52.5073 30.36C52.3514 30.504 52.1496 30.576 51.9019 30.576C51.6541 30.576 51.4503 30.504 51.2905 30.36C51.1307 30.212 51.0508 30.02 51.0508 29.784C51.0508 29.548 51.1307 29.358 51.2905 29.214C51.4503 29.066 51.6541 28.992 51.9019 28.992C52.1496 28.992 52.3514 29.066 52.5073 29.214C52.6671 29.358 52.747 29.548 52.747 29.784C52.747 30.02 52.6671 30.212 52.5073 30.36ZM57.8487 29.898C57.8487 29.91 57.8427 29.994 57.8308 30.15H55.3913C55.4352 30.35 55.5391 30.508 55.703 30.624C55.8668 30.74 56.0706 30.798 56.3143 30.798C56.4822 30.798 56.63 30.774 56.7579 30.726C56.8897 30.674 57.0116 30.594 57.1235 30.486L57.621 31.026C57.3173 31.374 56.8737 31.548 56.2903 31.548C55.9267 31.548 55.6051 31.478 55.3253 31.338C55.0456 31.194 54.8299 30.996 54.678 30.744C54.5262 30.492 54.4502 30.206 54.4502 29.886C54.4502 29.57 54.5242 29.286 54.672 29.034C54.8239 28.778 55.0297 28.58 55.2894 28.44C55.5531 28.296 55.8468 28.224 56.1705 28.224C56.4861 28.224 56.7719 28.292 57.0276 28.428C57.2833 28.564 57.4831 28.76 57.627 29.016C57.7748 29.268 57.8487 29.562 57.8487 29.898ZM56.1765 28.932C55.9647 28.932 55.7869 28.992 55.643 29.112C55.4992 29.232 55.4113 29.396 55.3793 29.604H56.9677C56.9357 29.4 56.8478 29.238 56.7039 29.118C56.5601 28.994 56.3843 28.932 56.1765 28.932ZM62.8261 31.452C63.0818 31.516 63.3436 31.548 63.6113 31.548C63.927 31.548 64.1987 31.506 64.4264 31.422C64.6582 31.334 64.834 31.212 64.9539 31.056C65.0738 30.9 65.1337 30.722 65.1337 30.522C65.1337 30.286 65.0718 30.102 64.9479 29.97C64.824 29.838 64.6782 29.748 64.5104 29.7C64.3425 29.648 64.1268 29.6 63.863 29.556C63.6273 29.52 63.4554 29.482 63.3476 29.442C63.2397 29.402 63.1857 29.332 63.1857 29.232C63.1857 29.144 63.2357 29.072 63.3356 29.016C63.4355 28.96 63.5853 28.932 63.7851 28.932C64.1208 28.932 64.4304 29.012 64.7141 29.172L65.0258 28.506C64.878 28.418 64.6902 28.35 64.4624 28.302C64.2386 28.25 64.0129 28.224 63.7851 28.224C63.4774 28.224 63.2097 28.268 62.9819 28.356C62.7582 28.444 62.5863 28.568 62.4665 28.728C62.3506 28.884 62.2926 29.064 62.2926 29.268C62.2926 29.512 62.3546 29.7 62.4785 29.832C62.6063 29.964 62.7562 30.056 62.928 30.108C63.0998 30.16 63.3176 30.206 63.5813 30.246C63.8051 30.274 63.9709 30.308 64.0788 30.348C64.1867 30.388 64.2406 30.454 64.2406 30.546C64.2406 30.742 64.0428 30.84 63.6473 30.84C63.4515 30.84 63.2517 30.812 63.0479 30.756C62.8441 30.696 62.6703 30.62 62.5264 30.528L62.2147 31.2C62.3666 31.3 62.5704 31.384 62.8261 31.452ZM67.4189 31.548C67.0752 31.548 66.7655 31.478 66.4898 31.338C66.2181 31.194 66.0043 30.996 65.8485 30.744C65.6966 30.492 65.6207 30.206 65.6207 29.886C65.6207 29.566 65.6966 29.28 65.8485 29.028C66.0043 28.776 66.2181 28.58 66.4898 28.44C66.7655 28.296 67.0752 28.224 67.4189 28.224C67.7585 28.224 68.0542 28.296 68.3059 28.44C68.5617 28.58 68.7475 28.782 68.8634 29.046L68.1381 29.436C67.9703 29.14 67.7285 28.992 67.4129 28.992C67.1691 28.992 66.9673 29.072 66.8075 29.232C66.6477 29.392 66.5677 29.61 66.5677 29.886C66.5677 30.162 66.6477 30.38 66.8075 30.54C66.9673 30.7 67.1691 30.78 67.4129 30.78C67.7325 30.78 67.9743 30.632 68.1381 30.336L68.8634 30.732C68.7475 30.988 68.5617 31.188 68.3059 31.332C68.0542 31.476 67.7585 31.548 67.4189 31.548ZM72.4531 28.584C72.2094 28.344 71.8877 28.224 71.4881 28.224C71.2804 28.224 71.0886 28.258 70.9127 28.326C70.7369 28.39 70.5871 28.484 70.4632 28.608V27.048H69.5282V31.5H70.4632V29.904C70.4632 29.616 70.5331 29.4 70.673 29.256C70.8129 29.108 71.0006 29.034 71.2364 29.034C71.4482 29.034 71.61 29.098 71.7219 29.226C71.8338 29.35 71.8897 29.54 71.8897 29.796V31.5H72.8248V29.652C72.8248 29.18 72.7009 28.824 72.4531 28.584ZM77.0159 29.898C77.0159 29.91 77.0099 29.994 76.998 30.15H74.5585C74.6024 30.35 74.7063 30.508 74.8702 30.624C75.034 30.74 75.2378 30.798 75.4815 30.798C75.6494 30.798 75.7972 30.774 75.9251 30.726C76.0569 30.674 76.1788 30.594 76.2907 30.486L76.7882 31.026C76.4845 31.374 76.0409 31.548 75.4576 31.548C75.0939 31.548 74.7723 31.478 74.4925 31.338C74.2128 31.194 73.9971 30.996 73.8452 30.744C73.6934 30.492 73.6174 30.206 73.6174 29.886C73.6174 29.57 73.6914 29.286 73.8392 29.034C73.9911 28.778 74.1969 28.58 74.4566 28.44C74.7203 28.296 75.014 28.224 75.3377 28.224C75.6533 28.224 75.939 28.292 76.1948 28.428C76.4505 28.564 76.6503 28.76 76.7942 29.016C76.942 29.268 77.0159 29.562 77.0159 29.898ZM75.3437 28.932C75.1319 28.932 74.9541 28.992 74.8102 29.112C74.6664 29.232 74.5785 29.396 74.5465 29.604H76.1348C76.1029 29.4 76.015 29.238 75.8711 29.118C75.7273 28.994 75.5515 28.932 75.3437 28.932ZM60.5739 28.272H61.509V31.5H60.5739V28.272ZM78.0883 31.452C78.3441 31.516 78.6058 31.548 78.8735 31.548C79.1892 31.548 79.4609 31.506 79.6887 31.422C79.9204 31.334 80.0963 31.212 80.2161 31.056C80.336 30.9 80.3959 30.722 80.3959 30.522C80.3959 30.286 80.334 30.102 80.2101 29.97C80.0863 29.838 79.9404 29.748 79.7726 29.7C79.6048 29.648 79.389 29.6 79.1253 29.556C78.8895 29.52 78.7177 29.482 78.6098 29.442C78.5019 29.402 78.448 29.332 78.448 29.232C78.448 29.144 78.4979 29.072 78.5978 29.016C78.6977 28.96 78.8475 28.932 79.0473 28.932C79.383 28.932 79.6927 29.012 79.9764 29.172L80.2881 28.506C80.1402 28.418 79.9524 28.35 79.7246 28.302C79.5009 28.25 79.2751 28.224 79.0473 28.224C78.7397 28.224 78.4719 28.268 78.2442 28.356C78.0204 28.444 77.8486 28.568 77.7287 28.728C77.6128 28.884 77.5549 29.064 77.5549 29.268C77.5549 29.512 77.6168 29.7 77.7407 29.832C77.8686 29.964 78.0184 30.056 78.1902 30.108C78.3621 30.16 78.5798 30.206 78.8436 30.246C79.0673 30.274 79.2331 30.308 79.341 30.348C79.4489 30.388 79.5029 30.454 79.5029 30.546C79.5029 30.742 79.3051 30.84 78.9095 30.84C78.7137 30.84 78.5139 30.812 78.3101 30.756C78.1063 30.696 77.9325 30.62 77.7886 30.528L77.477 31.2C77.6288 31.3 77.8326 31.384 78.0883 31.452Z" fill="#005285"/>
</g>
<defs>
<clipPath id="clip0_1741_8182">
<rect width="120" height="40" fill="white"/>
</clipPath>
</defs>
</svg>
