<svg width="142" height="21" viewBox="0 0 142 21" fill="none" xmlns="http://www.w3.org/2000/svg">
<g clip-path="url(#clip0_1741_8157)">
<path d="M46.9435 16.5381C46.9435 18.5982 45.6311 20.5293 42.9609 20.6582C42.3122 20.6874 41.6628 20.7017 41.0134 20.7012H36.2207V5.78785H41.3634C43.2234 5.78785 44.1864 6.0664 45.1051 6.8606C45.9589 7.59009 46.3527 8.44799 46.3527 9.52124C46.3527 10.5298 46.0027 11.3882 45.3243 12.0105C44.8869 12.418 44.6244 12.5681 43.9239 12.783C45.8056 13.3193 46.9435 14.5852 46.9435 16.5381ZM43.4859 16.1731C43.4859 15.3152 43.0484 14.5427 42.3701 14.3491C41.998 14.2419 41.7576 14.2207 41.1884 14.2207H39.2841V18.2549H41.2759C41.9105 18.2549 42.3701 18.169 42.6985 17.9111C43.1575 17.5684 43.4859 16.8814 43.4859 16.1731ZM43.1576 10.0359C43.1576 9.41407 42.8297 8.74878 42.2826 8.53443C42.0201 8.42675 41.6917 8.34081 41.0134 8.34081H39.2408V11.7532H41.0571C41.7792 11.7532 42.1071 11.6885 42.3696 11.5596C42.786 11.3452 43.1576 10.6365 43.1576 10.0359ZM60.5553 19.5425C59.0014 20.4434 57.2948 20.8726 55.5001 20.8726C53.2242 20.8726 51.5391 20.1431 50.3137 18.5982C49.1978 17.2029 48.6945 15.6155 48.6945 13.3835C48.6945 10.229 49.7444 7.99755 51.8675 6.60278C52.9838 5.87329 54.1218 5.55126 55.566 5.55126C57.4044 5.55126 59.0673 6.13061 60.4024 7.26806L58.7827 9.13501C57.7981 8.34132 56.7693 7.97632 55.6097 7.97632C54.7126 7.97632 53.9463 8.23415 53.4213 8.72704C52.393 9.69262 52.13 11.3022 52.13 13.5342C52.13 15.6585 52.5021 17.0315 53.2679 17.7827C53.8371 18.3191 54.6689 18.6194 55.6534 18.6194C56.3318 18.6194 56.8789 18.5122 57.3823 18.2549V14.8643H55.0626L54.6689 12.418H60.5553V19.5425ZM79.8789 20.7012H75.852L71.2348 12.9119V20.7012H68.1056V5.78785H71.2348V12.5899L75.5674 5.78735H79.3318L74.4732 12.697L79.8789 20.7012ZM85.5903 20.6582C85.0869 20.8513 84.4745 20.9585 83.8399 20.9585C82.5923 20.9585 81.5856 20.3792 81.2356 19.4566C81.0168 18.8984 80.9731 18.5552 80.9731 16.9885V8.79175C80.9731 7.35401 80.9293 6.47387 80.8197 5.48706L83.8177 4.82177C83.9273 5.42285 83.9711 6.13111 83.9711 7.67603V16.2378C83.9711 18.126 83.9927 18.3838 84.1682 18.6841C84.2773 18.8772 84.5182 18.9844 84.7591 18.9844C84.8682 18.9844 84.9341 18.9844 85.0869 18.9414L85.5903 20.6582ZM90.0551 20.7012H87.1225V9.90747L90.0546 9.45704L90.0551 20.7012ZM90.4051 6.68821C90.4056 6.92255 90.3589 7.15467 90.2677 7.37122C90.1766 7.58778 90.0427 7.78449 89.8738 7.95005C89.705 8.11561 89.5045 8.24676 89.2839 8.33594C89.0633 8.42513 88.8269 8.47059 88.5883 8.46973C87.6037 8.46973 86.7941 7.67603 86.7941 6.68872C86.7941 5.70141 87.6258 4.90771 88.632 4.90771C89.6171 4.90771 90.4051 5.7009 90.4051 6.68821ZM101.96 20.7012H99.0708V13.5554C99.0708 12.3108 98.852 11.9458 98.0862 11.9458C97.4953 11.9458 96.7295 12.332 96.0511 12.9331V20.7012H93.1185V12.7395C93.1185 11.7951 92.9873 10.8943 92.7248 10.1643L95.329 9.4348C95.5915 9.88573 95.7444 10.3574 95.7444 10.8083C96.1819 10.5075 96.554 10.2502 97.0357 9.99291C97.6266 9.69262 98.3924 9.52074 99.0491 9.52074C100.296 9.52074 101.391 10.1643 101.741 11.1086C101.894 11.5166 101.96 11.9883 101.96 12.6753V20.7012ZM107.956 20.7012H105.023V9.90747L107.956 9.45704V20.7012ZM108.306 6.68821C108.306 6.92251 108.259 7.15459 108.168 7.37111C108.077 7.58763 107.943 7.78432 107.775 7.94987C107.606 8.11543 107.405 8.24658 107.185 8.33579C106.964 8.42501 106.728 8.47053 106.489 8.46973C105.505 8.46973 104.695 7.67603 104.695 6.68872C104.695 5.70141 105.526 4.90771 106.533 4.90771C107.518 4.90771 108.306 5.7009 108.306 6.68821ZM113.952 20.7012H111.02V8.31958C111.02 7.35401 110.997 6.60278 110.822 5.46532L113.777 4.75757C113.908 5.573 113.952 6.8606 113.952 8.31958V20.7012ZM121.24 20.7012H117.781L114.018 14.478L116.884 9.71436H120.407L116.841 14.3067L121.24 20.7012ZM131.006 16.1089H124.528V16.1948C124.528 17.8899 125.382 18.8555 126.892 18.8555C127.898 18.8555 128.839 18.491 129.736 17.7615L130.874 19.4778C129.584 20.5081 128.226 21.0015 126.651 21.0015C123.434 21.0015 121.355 18.77 121.355 15.3152C121.355 13.3406 121.771 12.0317 122.756 10.959C123.674 9.95044 124.791 9.47827 126.279 9.47827C127.57 9.47827 128.796 9.90747 129.518 10.637C130.546 11.6672 131.006 13.1475 131.006 15.4436V16.1089ZM128.028 14.0059V13.8775C128.028 13.062 127.941 12.6328 127.678 12.2249C127.394 11.7957 126.978 11.5813 126.387 11.5813C125.271 11.5813 124.636 12.4397 124.636 13.9629V14.0059H128.028ZM141.99 20.7012H139.101V13.5554C139.101 12.3108 138.883 11.9458 138.117 11.9458C137.526 11.9458 136.76 12.332 136.081 12.9331V20.7012H133.149V12.7395C133.149 11.7951 133.018 10.8943 132.755 10.1643L135.359 9.4348C135.622 9.88573 135.775 10.3574 135.775 10.8083C136.213 10.5075 136.585 10.2502 137.066 9.99291C137.657 9.69262 138.423 9.52074 139.079 9.52074C140.327 9.52074 141.421 10.1643 141.771 11.1086C141.925 11.5166 141.99 11.9883 141.99 12.6753V20.7012Z" fill="#292929"/>
<path d="M15.4486 20.727C23.8343 20.727 30.6543 14.0615 30.8736 5.75149H23.1714C23.0787 9.79427 19.651 13.0489 15.4687 13.0489C11.2941 13.0489 7.87048 9.82612 7.76651 5.75149H0C0.219768 14.0615 7.0614 20.727 15.4486 20.727Z" fill="#1C488F"/>
<path d="M9.7753 5.56091C9.7753 2.50089 12.3044 0 15.4368 0C18.5856 0 21.0982 2.51707 21.0982 5.57759C21.0982 8.6376 18.5521 11.1218 15.4368 11.1218C12.3214 11.1218 9.7753 8.65378 9.7753 5.56091Z" fill="#1C488F"/>
</g>
<defs>
<clipPath id="clip0_1741_8157">
<rect width="142" height="21" fill="white"/>
</clipPath>
</defs>
</svg>
