<svg width="147" height="32" viewBox="0 0 147 32" fill="none" xmlns="http://www.w3.org/2000/svg">
<g clip-path="url(#clip0_1781_8247)">
<path d="M64.4336 12.7755H67.0588V15.1797H64.4336V12.7755Z" fill="#C4C3C3"/>
<path d="M64.4336 10.3718H67.0588V12.7756H64.4336V10.3718Z" fill="#74CA4C"/>
<path d="M64.4336 7.96783H67.0588V10.3718H64.4336V7.96783Z" fill="#9CD976"/>
<path d="M64.4336 5.5638H67.0588V7.96777H64.4336V5.5638Z" fill="#C3E8A8"/>
<path d="M64.4336 3.1597H67.0588V5.56372H64.4336V3.1597Z" fill="#E6F5D9"/>
<path d="M64.4336 0.755891H67.0588V3.15991H64.4336V0.755891Z" fill="#EEF8E5"/>
<path d="M64.4336 17.5839H67.0588V19.9878H64.4336V17.5839Z" fill="#5EC238"/>
<path d="M64.4336 19.9861H67.0588V22.3899H64.4336V19.9861Z" fill="#CAC9C9"/>
<path d="M64.4336 22.3888H67.0588V24.7925H64.4336V22.3888Z" fill="#9CD976"/>
<path d="M64.4336 24.7908H67.0588V27.1951H64.4336V24.7908Z" fill="#E7E6E6"/>
<path d="M64.4336 27.1936H67.0588V29.5977H64.4336V27.1936Z" fill="#E6F5D9"/>
<path d="M64.4336 29.5962H67.0588V32H64.4336V29.5962Z" fill="#EEF8E5"/>
<path d="M67.0586 15.1797H69.684V17.5837H67.0586V15.1797Z" fill="#67C540"/>
<path d="M67.0586 12.7755H69.684V15.1797H67.0586V12.7755Z" fill="#67C540"/>
<path d="M67.0586 10.3718H69.684V12.7756H67.0586V10.3718Z" fill="#77CB4F"/>
<path d="M67.0586 7.96783H69.684V10.3718H67.0586V7.96783Z" fill="#A4DC80"/>
<path d="M67.0586 5.5638H69.684V7.96777H67.0586V5.5638Z" fill="#CAEAB0"/>
<path d="M67.0586 3.1597H69.684V5.56372H67.0586V3.1597Z" fill="#E6F5D9"/>
<path d="M67.0586 0.755891H69.684V3.15991H67.0586V0.755891Z" fill="#F7FCF2"/>
<path d="M67.0586 17.5839H69.684V19.9878H67.0586V17.5839Z" fill="#67C540"/>
<path d="M67.0586 19.9861H69.684V22.3899H67.0586V19.9861Z" fill="#77CB4F"/>
<path d="M67.0586 24.7908H69.684V27.1951H67.0586V24.7908Z" fill="#CAEAB0"/>
<path d="M67.0586 29.5962H69.684V32H67.0586V29.5962Z" fill="#F7FCF2"/>
<path d="M67.0586 22.3888H69.684V24.7925H67.0586V22.3888Z" fill="#A4DC80"/>
<path d="M67.0586 27.1936H69.684V29.5977H67.0586V27.1936Z" fill="#E6F5D9"/>
<path d="M69.6855 15.1797H72.311V17.5837H69.6855V15.1797Z" fill="#7CCD54"/>
<path d="M69.6855 12.7755H72.311V15.1797H69.6855V12.7755Z" fill="#77CB4F"/>
<path d="M69.6855 10.3718H72.311V12.7756H69.6855V10.3718Z" fill="#88D160"/>
<path d="M69.6855 7.96783H72.311V10.3718H69.6855V7.96783Z" fill="#B3E192"/>
<path d="M69.6855 5.5638H72.311V7.96777H69.6855V5.5638Z" fill="#D4EEBE"/>
<path d="M69.6855 3.1597H72.311V5.56372H69.6855V3.1597Z" fill="#EEF8E5"/>
<path d="M69.6855 17.5839H72.311V19.9878H69.6855V17.5839Z" fill="#77CB4F"/>
<path d="M69.6855 19.9861H72.311V22.3899H69.6855V19.9861Z" fill="#88D160"/>
<path d="M69.6855 22.3888H72.311V24.7925H69.6855V22.3888Z" fill="#B3E192"/>
<path d="M69.6855 24.7908H72.311V27.1951H69.6855V24.7908Z" fill="#D4EEBE"/>
<path d="M69.6855 27.1936H72.311V29.5977H69.6855V27.1936Z" fill="#EEF8E5"/>
<path d="M72.3086 15.1797H74.934V17.5837H72.3086V15.1797Z" fill="#9DD978"/>
<path d="M72.3086 12.7755H74.934V15.1797H72.3086V12.7755Z" fill="#A4DC80"/>
<path d="M72.3086 10.3718H74.934V12.7756H72.3086V10.3718Z" fill="#B3E192"/>
<path d="M72.3086 7.96783H74.934V10.3718H72.3086V7.96783Z" fill="#CAEAB0"/>
<path d="M72.3086 5.5638H74.934V7.96777H72.3086V5.5638Z" fill="#E9F6DE"/>
<path d="M72.3086 3.1597H74.934V5.56372H72.3086V3.1597Z" fill="#FCFEFA"/>
<path d="M72.3086 17.5839H74.934V19.9878H72.3086V17.5839Z" fill="#A1DA7C"/>
<path d="M72.3086 19.9861H74.934V22.3899H72.3086V19.9861Z" fill="#B9E49B"/>
<path d="M72.3086 24.7908H74.934V27.1951H72.3086V24.7908Z" fill="#E9F6DE"/>
<path d="M72.3086 22.3888H74.934V24.7925H72.3086V22.3888Z" fill="#C2E7A5"/>
<path d="M72.3086 27.1936H74.934V29.5977H72.3086V27.1936Z" fill="#F7FCF2"/>
<path d="M74.9375 15.1797H77.5629V17.5837H74.9375V15.1797Z" fill="#C8EAAE"/>
<path d="M74.9375 12.7755H77.5629V15.1797H74.9375V12.7755Z" fill="#D2EDBC"/>
<path d="M74.9375 10.3718H77.5629V12.7756H74.9375V10.3718Z" fill="#E1F3D1"/>
<path d="M74.9375 7.96783H77.5629V10.3718H74.9375V7.96783Z" fill="#E9F6DE"/>
<path d="M74.9375 5.5638H77.5629V7.96777H74.9375V5.5638Z" fill="#F7FCF2"/>
<path d="M74.9375 17.5839H77.5629V19.9878H74.9375V17.5839Z" fill="#D2EDBC"/>
<path d="M74.9375 19.9861H77.5629V22.3899H74.9375V19.9861Z" fill="#E1F3D1"/>
<path d="M74.9375 24.7908H77.5629V27.1951H74.9375V24.7908Z" fill="#F7FCF2"/>
<path d="M74.9375 22.3888H77.5629V24.7925H74.9375V22.3888Z" fill="#E9F6DE"/>
<path d="M74.9375 27.1936H77.5629V29.5977H74.9375V27.1936Z" fill="#FCFEFA"/>
<path d="M77.5625 15.1797H80.1877V17.5837H77.5625V15.1797Z" fill="#F0F9E8"/>
<path d="M77.5625 12.7755H80.1877V15.1797H77.5625V12.7755Z" fill="#F0F9E8"/>
<path d="M77.5625 10.3718H80.1877V12.7756H77.5625V10.3718Z" fill="#EEF8E5"/>
<path d="M77.5625 7.96783H80.1877V10.3718H77.5625V7.96783Z" fill="#F7FCF2"/>
<path d="M77.5625 5.5638H80.1877V7.96777H77.5625V5.5638Z" fill="#FCFEFA"/>
<path d="M77.5625 17.5839H80.1877V19.9878H77.5625V17.5839Z" fill="#F0F9E8"/>
<path d="M77.5625 19.9861H80.1877V22.3899H77.5625V19.9861Z" fill="#EEF8E5"/>
<path d="M77.5625 22.3888H80.1877V24.7925H77.5625V22.3888Z" fill="#F7FCF2"/>
<path d="M77.5625 24.7908H80.1877V27.1951H77.5625V24.7908Z" fill="#FCFEFA"/>
<path d="M77.5625 27.1936H80.1877V29.5977H77.5625V27.1936Z" fill="#FDFEFC"/>
<path d="M80.1875 15.1797H82.8129V17.5837H80.1875V15.1797Z" fill="white"/>
<path d="M80.1875 12.7755H82.8129V15.1797H80.1875V12.7755Z" fill="#FDFEFC"/>
<path d="M80.1875 10.3718H82.8129V12.7756H80.1875V10.3718Z" fill="#FDFEFC"/>
<path d="M80.1875 17.5839H82.8129V19.9878H80.1875V17.5839Z" fill="#FCFEFA"/>
<path d="M80.1875 19.9861H82.8129V22.3899H80.1875V19.9861Z" fill="#FDFEFC"/>
<path d="M80.1875 22.3888H82.8129V24.7925H80.1875V22.3888Z" fill="#FDFEFC"/>
<path d="M64.4336 15.1797H67.0588V17.5837H64.4336V15.1797Z" fill="#59C134"/>
<path d="M64.4336 12.7761H67.059V15.1799H64.4336V12.7761Z" fill="#5EC238"/>
<path d="M64.4336 19.9862H67.059V22.3904H64.4336V19.9862Z" fill="#74CA4C"/>
<path d="M64.4336 24.7911H67.059V27.1951H64.4336V24.7911Z" fill="#C3E8A8"/>
<path d="M61.8086 15.18H64.434V17.584H61.8086V15.18Z" fill="#67C540"/>
<path d="M61.8086 12.7762H64.434V15.1802H61.8086V12.7762Z" fill="#67C540"/>
<path d="M61.8086 10.3721H64.434V12.7761H61.8086V10.3721Z" fill="#77CB4F"/>
<path d="M61.8086 7.96837H64.434V10.3721H61.8086V7.96837Z" fill="#A4DC80"/>
<path d="M61.8086 5.56419H64.434V7.96826H61.8086V5.56419Z" fill="#CAEAB0"/>
<path d="M61.8086 3.16019H64.434V5.56421H61.8086V3.16019Z" fill="#E6F5D9"/>
<path d="M61.8086 0.756382H64.434V3.1604H61.8086V0.756382Z" fill="#F7FCF2"/>
<path d="M61.8086 17.584H64.434V19.9878H61.8086V17.584Z" fill="#67C540"/>
<path d="M61.8086 19.9862H64.434V22.3904H61.8086V19.9862Z" fill="#77CB4F"/>
<path d="M61.8086 24.7911H64.434V27.1951H61.8086V24.7911Z" fill="#CAEAB0"/>
<path d="M61.8086 29.5962H64.434V32H61.8086V29.5962Z" fill="#F7FCF2"/>
<path d="M61.8086 22.389H64.434V24.793H61.8086V22.389Z" fill="#A4DC80"/>
<path d="M61.8086 27.1936H64.434V29.5977H61.8086V27.1936Z" fill="#E6F5D9"/>
<path d="M59.1836 15.18H61.809V17.584H59.1836V15.18Z" fill="#7CCD54"/>
<path d="M59.1836 12.7762H61.809V15.1802H59.1836V12.7762Z" fill="#77CB4F"/>
<path d="M59.1836 10.3721H61.809V12.7761H59.1836V10.3721Z" fill="#88D160"/>
<path d="M59.1836 7.96837H61.809V10.3721H59.1836V7.96837Z" fill="#B3E192"/>
<path d="M59.1836 5.56419H61.809V7.96826H59.1836V5.56419Z" fill="#D4EEBE"/>
<path d="M59.1836 3.16019H61.809V5.56421H59.1836V3.16019Z" fill="#EEF8E5"/>
<path d="M59.1836 17.584H61.809V19.9878H59.1836V17.584Z" fill="#77CB4F"/>
<path d="M59.1836 19.9862H61.809V22.3904H59.1836V19.9862Z" fill="#88D160"/>
<path d="M59.1836 22.389H61.809V24.793H59.1836V22.389Z" fill="#B3E192"/>
<path d="M59.1836 24.7911H61.809V27.1951H59.1836V24.7911Z" fill="#D4EEBE"/>
<path d="M59.1836 27.1936H61.809V29.5977H59.1836V27.1936Z" fill="#EEF8E5"/>
<path d="M56.5586 15.18H59.184V17.584H56.5586V15.18Z" fill="#9DD978"/>
<path d="M56.5586 12.7762H59.184V15.1802H56.5586V12.7762Z" fill="#A4DC80"/>
<path d="M56.5586 10.3721H59.184V12.7761H56.5586V10.3721Z" fill="#B3E192"/>
<path d="M56.5586 7.96837H59.184V10.3721H56.5586V7.96837Z" fill="#CAEAB0"/>
<path d="M56.5586 5.56419H59.184V7.96826H56.5586V5.56419Z" fill="#E9F6DE"/>
<path d="M56.5586 3.16019H59.184V5.56421H56.5586V3.16019Z" fill="#F7FCF2"/>
<path d="M56.5586 17.584H59.184V19.9878H56.5586V17.584Z" fill="#A1DA7C"/>
<path d="M56.5586 19.9862H59.184V22.3904H56.5586V19.9862Z" fill="#B9E49B"/>
<path d="M56.5586 24.7911H59.184V27.1951H56.5586V24.7911Z" fill="#E9F6DE"/>
<path d="M56.5586 22.389H59.184V24.793H56.5586V22.389Z" fill="#D4EEBE"/>
<path d="M56.5586 27.1936H59.184V29.5977H56.5586V27.1936Z" fill="#F7FCF2"/>
<path d="M53.9316 15.18H56.5568V17.584H53.9316V15.18Z" fill="#C8EAAE"/>
<path d="M53.9316 12.7762H56.5568V15.1802H53.9316V12.7762Z" fill="#D2EDBC"/>
<path d="M53.9316 10.3721H56.5568V12.7761H53.9316V10.3721Z" fill="#E1F3D1"/>
<path d="M53.9316 7.96837H56.5568V10.3721H53.9316V7.96837Z" fill="#E9F6DE"/>
<path d="M53.9316 5.56444H56.5568V7.96851H53.9316V5.56444Z" fill="#F7FCF2"/>
<path d="M53.9316 17.584H56.5568V19.9878H53.9316V17.584Z" fill="#D2EDBC"/>
<path d="M53.9316 19.9862H56.5568V22.3904H53.9316V19.9862Z" fill="#E1F3D1"/>
<path d="M53.9316 24.7911H56.5568V27.1951H53.9316V24.7911Z" fill="#F7FCF2"/>
<path d="M53.9316 22.389H56.5568V24.793H53.9316V22.389Z" fill="#E9F6DE"/>
<path d="M53.9316 27.1936H56.5568V29.5977H53.9316V27.1936Z" fill="#FCFEFA"/>
<path d="M51.3047 15.18H53.9301V17.584H51.3047V15.18Z" fill="#F0F9E8"/>
<path d="M51.3047 12.7762H53.9301V15.1802H51.3047V12.7762Z" fill="#F0F9E8"/>
<path d="M51.3047 10.3721H53.9301V12.7761H51.3047V10.3721Z" fill="#EEF8E5"/>
<path d="M51.3047 7.96837H53.9301V10.3721H51.3047V7.96837Z" fill="#F7FCF2"/>
<path d="M51.3047 5.56419H53.9301V7.96826H51.3047V5.56419Z" fill="#FCFEFA"/>
<path d="M51.3047 17.584H53.9301V19.9878H51.3047V17.584Z" fill="#F0F9E8"/>
<path d="M51.3047 19.9862H53.9301V22.3904H51.3047V19.9862Z" fill="#EEF8E5"/>
<path d="M51.3047 22.389H53.9301V24.793H51.3047V22.389Z" fill="#F7FCF2"/>
<path d="M51.3047 24.7911H53.9301V27.1951H51.3047V24.7911Z" fill="#FCFEFA"/>
<path d="M51.3047 27.1936H53.9301V29.5977H51.3047V27.1936Z" fill="#FDFEFC"/>
<path d="M48.6797 15.18H51.3051V17.584H48.6797V15.18Z" fill="white"/>
<path d="M48.6797 12.7762H51.3051V15.1802H48.6797V12.7762Z" fill="#FDFEFC"/>
<path d="M48.6797 10.3721H51.3051V12.7761H48.6797V10.3721Z" fill="#FDFEFC"/>
<path d="M48.6797 17.584H51.3051V19.9878H48.6797V17.584Z" fill="#FCFEFA"/>
<path d="M48.6797 19.9862H51.3051V22.3904H48.6797V19.9862Z" fill="#FDFEFC"/>
<path d="M48.6797 22.389H51.3051V24.793H48.6797V22.389Z" fill="#FDFEFC"/>
<path d="M53.9316 3.16141H56.5568V5.56543H53.9316V3.16141Z" fill="#FCFEFA"/>
<path d="M9.4266 9.47378C9.19201 9.36133 8.29383 8.95935 8.29383 7.9706C8.29383 7.86623 8.30188 7.59295 8.4314 7.31967C8.71451 6.71684 9.32947 6.45963 9.96873 6.45963C10.1225 6.45963 10.5595 6.46767 10.9802 6.70076C11.1259 6.78114 11.223 6.86955 11.2717 6.90974C11.3121 6.94189 11.571 7.15891 11.571 7.4322C11.571 7.6251 11.4334 7.80193 11.223 7.80193C11.0208 7.80193 10.9237 7.6573 10.8831 7.60099L10.8346 7.52037C10.6161 7.17499 10.3653 6.93386 9.9283 6.93386C9.86366 6.93386 9.75035 6.93385 9.60464 6.99012C9.24872 7.11068 9.03015 7.44023 9.03015 7.81002C9.03015 7.93855 9.06251 8.22788 9.31336 8.46907C9.47525 8.6137 9.726 8.75032 10.1387 8.93528L10.5677 9.12814C10.859 9.26485 10.9479 9.32908 11.0855 9.42556C11.5548 9.75503 11.8057 10.1892 11.8057 10.7678C11.8057 11.1135 11.7004 11.3708 11.6438 11.4912C11.4659 11.8369 10.9884 12.3755 10.0174 12.3755C9.79086 12.3755 8.97353 12.3513 8.4719 11.7323C8.35035 11.5877 8.21289 11.3466 8.21289 11.1537C8.21289 10.9447 8.37478 10.7678 8.59316 10.7678C8.69843 10.7678 8.83599 10.8081 8.95724 10.9928L9.022 11.1135C9.11911 11.3144 9.36998 11.869 10.0659 11.869C10.3248 11.869 10.5677 11.7966 10.7618 11.6199C10.867 11.5154 11.0531 11.2984 11.0531 10.9285C11.0531 10.7678 11.0127 10.4384 10.6971 10.1569C10.4705 9.94 10.1469 9.81137 9.8716 9.67463L9.4266 9.47378Z" fill="#176FC1"/>
<path d="M13.4309 11.0573C13.439 11.1135 13.439 11.1617 13.439 11.21C13.439 11.4271 13.4713 11.6038 13.625 11.7566C13.6574 11.7886 13.7465 11.8691 13.8759 11.9012C13.9488 11.9254 13.9812 11.9173 14.054 11.9173H14.143C14.2157 11.9012 14.2968 11.8851 14.3533 11.9656C14.3614 11.9736 14.3857 12.0137 14.3857 12.0699C14.3857 12.1102 14.3696 12.1423 14.3452 12.1745C14.2806 12.2468 14.0378 12.3352 13.7626 12.3352C13.3257 12.3352 12.9131 12.1423 12.7673 11.7002C12.7107 11.5235 12.7107 11.3867 12.7107 11.2019V8.44496H12.2738C12.2009 8.44496 12.1605 8.45304 12.1523 8.3325V8.20387C12.1605 8.1074 12.1767 8.0913 12.2818 8.0913H12.7107V7.60104C12.7188 7.45636 12.735 7.43225 12.832 7.32776L13.2124 6.99821C13.2366 6.9741 13.3094 6.90979 13.3499 6.90979C13.3742 6.90979 13.3904 6.92587 13.4066 6.94194C13.439 6.98213 13.4309 7.02232 13.4309 7.11074V8.0913H14.143C14.2481 8.0913 14.2643 8.0913 14.2643 8.20387V8.32441C14.2643 8.43687 14.2562 8.44496 14.143 8.44496H13.4309V11.0573Z" fill="#176FC1"/>
<path d="M15.4798 12.3032C15.407 12.3032 15.3261 12.2792 15.2613 12.255C15.0105 12.1344 14.9863 11.8932 14.9863 11.7968C14.9863 11.7486 14.9863 11.6682 15.0429 11.5557C15.1723 11.3387 15.4151 11.3145 15.488 11.3145C15.7711 11.3145 15.9978 11.5395 15.9897 11.829C15.9815 12.1023 15.755 12.3032 15.4798 12.3032Z" fill="#176FC1"/>
<path d="M20.6331 12.1262C20.5927 12.2386 20.6008 12.2467 20.4712 12.2548H20.3094C20.1962 12.2548 20.1719 12.2305 20.1314 12.1262L18.5617 6.82126C18.5454 6.75696 18.5293 6.70874 18.5293 6.68462C18.5293 6.62032 18.5617 6.57209 18.6667 6.58013H19.1766C19.2736 6.58013 19.3222 6.57209 19.3626 6.74088L20.4712 10.8321L21.8146 6.765C21.8387 6.68462 21.8631 6.61228 21.8954 6.58817C21.9036 6.58013 21.9278 6.58013 21.944 6.58013H22.0896C22.1949 6.58013 22.2029 6.6364 22.2271 6.72481L23.6191 10.8321L24.7598 6.73285C24.8006 6.59621 24.8489 6.57209 24.9298 6.58013H25.2939C25.4074 6.58013 25.4396 6.5962 25.4396 6.67658C25.4396 6.7007 25.4153 6.79715 25.4074 6.82126L23.8376 12.1262C23.8051 12.2548 23.7728 12.2548 23.6998 12.2548H23.5138C23.441 12.2548 23.4005 12.2628 23.3519 12.1341L21.944 8.14742L20.6331 12.1262Z" fill="#176FC1"/>
<path d="M26.0318 12.2549C25.9104 12.2549 25.9185 12.2066 25.9185 12.1022V8.244C25.9185 8.17168 25.9023 8.09128 26.0561 8.09128H26.485C26.6225 8.09128 26.6387 8.11546 26.6387 8.244V12.1102C26.6387 12.2387 26.6144 12.2549 26.485 12.2549H26.0318ZM26.2746 7.37597C26.0318 7.37597 25.8457 7.20717 25.8457 6.958C25.8457 6.70883 26.0399 6.52397 26.2908 6.52397C26.5335 6.532 26.7034 6.69276 26.7115 6.93389C26.7277 7.1911 26.5335 7.37597 26.2746 7.37597Z" fill="#176FC1"/>
<path d="M28.1761 6.106C28.2975 6.09796 28.3217 6.12208 28.3298 6.24264V12.1102C28.3298 12.1986 28.3217 12.2549 28.1761 12.2549H27.7553C27.6177 12.2549 27.6097 12.2387 27.6016 12.1102V6.23461C27.6097 6.13815 27.6258 6.106 27.7715 6.106H28.1761Z" fill="#176FC1"/>
<path d="M29.8599 6.106C29.9813 6.09796 30.0053 6.12208 30.0134 6.24264V12.1102C30.0134 12.1986 30.0053 12.2549 29.8599 12.2549H29.4391C29.3016 12.2549 29.2932 12.2387 29.2852 12.1102V6.23461C29.2932 6.13815 29.3094 6.106 29.4553 6.106H29.8599Z" fill="#176FC1"/>
<path d="M31.0806 12.2549C30.9593 12.2549 30.9674 12.2066 30.9674 12.1022V8.244C30.9674 8.17168 30.9512 8.09128 31.1049 8.09128H31.5338C31.6714 8.09128 31.6875 8.11546 31.6875 8.244V12.1102C31.6875 12.2387 31.6633 12.2549 31.5338 12.2549H31.0806ZM31.3234 7.37597C31.0806 7.37597 30.8945 7.20717 30.8945 6.958C30.8945 6.70883 31.0887 6.52397 31.3396 6.52397C31.5823 6.532 31.7523 6.69276 31.7604 6.93389C31.7765 7.1911 31.5823 7.37597 31.3234 7.37597Z" fill="#176FC1"/>
<path d="M33.3456 11.0652C33.3456 11.1939 33.3537 11.3385 33.4023 11.4671C33.556 11.8531 34.0496 11.869 34.1306 11.869C34.2277 11.869 34.4542 11.8531 34.6808 11.7323C35.2472 11.435 35.4091 10.7597 35.4091 10.1811C35.4091 10.1168 35.4172 9.22471 34.9721 8.80664C34.8831 8.71825 34.6323 8.53329 34.2843 8.53329C34.1306 8.53329 33.993 8.57352 33.9525 8.5896C33.6289 8.70215 33.4347 8.89511 33.3456 8.9834V11.0652ZM32.6255 6.26647C32.6174 6.14615 32.6416 6.10596 32.7711 6.10596H33.1757C33.3295 6.10596 33.3456 6.12203 33.3456 6.26647L33.3537 8.51731C33.5237 8.37248 33.9525 7.99476 34.608 7.99476C35.053 7.99476 35.4091 8.16365 35.6842 8.50121C36.0321 8.92719 36.1212 9.44153 36.1212 9.98003C36.1212 10.7438 35.935 11.1697 35.7489 11.4591C35.3686 12.062 34.7617 12.3513 34.0496 12.3513C33.3376 12.3513 32.852 12.0458 32.7145 11.8047C32.6255 11.652 32.6174 11.5073 32.6255 11.1697V6.26647Z" fill="#176FC1"/>
<path d="M37.0371 12.2549C36.9157 12.2549 36.8753 12.2387 36.8672 12.1102V8.75035C36.8753 8.4691 36.8915 8.34856 37.1747 8.22003C37.3608 8.13963 37.822 7.9948 38.3723 7.9948C38.5746 7.9948 38.8578 8.01889 39.0277 8.13154C39.0682 8.16369 39.2057 8.27605 39.2057 8.46101C39.2057 8.64598 39.0682 8.80669 38.874 8.80669C38.7445 8.79867 38.6798 8.74246 38.5988 8.66205L38.526 8.58165C38.4613 8.50934 38.3399 8.38061 38.0891 8.38061C38.0405 8.38061 37.822 8.39669 37.7007 8.53333C37.5955 8.65397 37.5955 8.79867 37.5955 8.95139V12.1182C37.5955 12.2549 37.5064 12.2549 37.4498 12.2549H37.0371Z" fill="#176FC1"/>
<path d="M42.0202 9.04783C41.9555 8.92719 41.6723 8.43681 41.1382 8.4449C40.9764 8.4449 40.6365 8.50121 40.3937 8.87085C40.2643 9.07179 40.0943 9.46569 40.0943 10.0525C40.0943 10.2534 40.1186 10.5187 40.1672 10.7196C40.2724 11.2019 40.6284 11.8609 41.2353 11.8609C41.826 11.8609 42.3196 11.218 42.2711 10.0846C42.263 9.94798 42.2387 9.46569 42.0202 9.04783ZM42.708 11.451C42.5543 11.7082 42.1092 12.3513 41.2029 12.3513C40.9683 12.3513 40.4018 12.3112 39.9484 11.8208C39.714 11.5716 39.3418 11.033 39.3418 10.173C39.3418 9.67462 39.4629 9.20853 39.7464 8.79054C40.2238 8.07516 40.8631 7.99476 41.1946 7.99476C41.4619 7.99476 41.9714 8.02693 42.4329 8.53329C42.6433 8.76638 43.0155 9.313 43.0317 10.149C43.0398 10.358 43.0234 10.9206 42.708 11.451Z" fill="#176FC1"/>
<path d="M43.9453 12.2549C43.8239 12.2549 43.7835 12.2387 43.7754 12.1102V8.75035C43.7835 8.4691 43.7994 8.34856 44.0829 8.22003C44.269 8.13963 44.73 7.9948 45.2805 7.9948C45.4828 7.9948 45.766 8.01889 45.9357 8.13154C45.9761 8.16369 46.1139 8.27605 46.1139 8.46101C46.1139 8.64598 45.9761 8.80669 45.7819 8.80669C45.6527 8.79867 45.5877 8.74246 45.5068 8.66205L45.434 8.58165C45.3695 8.50934 45.2481 8.38061 44.9973 8.38061C44.9487 8.38061 44.73 8.39669 44.6089 8.53333C44.5037 8.65397 44.5037 8.79867 44.5037 8.95139V12.1182C44.5037 12.2549 44.4146 12.2549 44.358 12.2549H43.9453Z" fill="#176FC1"/>
<path d="M49.0358 8.70215C48.9223 8.61369 48.6717 8.41284 48.259 8.41284C48.0726 8.41284 47.8949 8.45298 47.733 8.54137C47.3932 8.73433 46.9802 9.21662 46.9802 10.1088C46.9802 10.2292 46.9802 10.7919 47.223 11.218C47.3363 11.4108 47.6602 11.853 48.3156 11.853C48.3642 11.853 48.542 11.853 48.6957 11.7966C48.9873 11.6921 49.0358 11.4993 49.0358 11.218V8.70215ZM49.0358 6.28279C49.0358 6.21045 49.0277 6.09792 49.1896 6.10596H49.6022C49.6912 6.10596 49.7722 6.09792 49.7641 6.26647V11.4028C49.7722 11.6439 49.7317 11.7404 49.6667 11.845C49.3838 12.2468 48.5824 12.3513 48.1455 12.3513C47.9434 12.3513 47.3932 12.3432 46.9238 11.9655C46.6082 11.7082 46.252 11.218 46.252 10.3017C46.252 10.0604 46.2762 9.81945 46.3412 9.58633C46.495 8.95934 46.8993 8.34043 47.5305 8.09932C47.733 8.01885 47.9353 7.99476 48.1535 7.99476C48.6148 7.99476 48.874 8.16365 49.0358 8.26012V6.28279Z" fill="#176FC1"/>
<path d="M34.0341 17.3897C33.7994 17.2773 32.9012 16.8753 32.9012 15.8866C32.9012 15.7821 32.9093 15.5089 33.0388 15.2356C33.322 14.6328 33.937 14.3755 34.5763 14.3755C34.73 14.3755 35.167 14.3836 35.5877 14.6167C35.7334 14.6971 35.8305 14.7855 35.879 14.8256C35.9195 14.8579 36.1784 15.0748 36.1784 15.3481C36.1784 15.541 36.0409 15.7179 35.8305 15.7179C35.6282 15.7179 35.5311 15.5731 35.4906 15.517L35.4421 15.4365C35.2236 15.091 34.9728 14.8498 34.5358 14.8498C34.4711 14.8498 34.3578 14.8498 34.2121 14.906C33.8561 15.0266 33.6376 15.3562 33.6376 15.7259C33.6376 15.8545 33.6702 16.1439 33.9208 16.3849C34.0826 16.5297 34.3335 16.6663 34.7462 16.8512L35.175 17.0441C35.4664 17.1807 35.5554 17.245 35.6932 17.3415C36.1623 17.671 36.4131 18.1051 36.4131 18.6837C36.4131 19.0295 36.3079 19.2865 36.2513 19.4072C36.0732 19.7529 35.5958 20.2913 34.6248 20.2913C34.3982 20.2913 33.581 20.2673 33.0793 19.6483C32.9579 19.5037 32.8203 19.2626 32.8203 19.0696C32.8203 18.8607 32.9822 18.6837 33.2006 18.6837C33.3058 18.6837 33.4434 18.724 33.5648 18.9088L33.6295 19.0295C33.7266 19.2303 33.9775 19.785 34.6734 19.785C34.9323 19.785 35.1751 19.7126 35.3693 19.5359C35.4745 19.4313 35.6606 19.2143 35.6606 18.8445C35.6606 18.6837 35.6201 18.3543 35.3045 18.0729C35.0779 17.856 34.7543 17.7273 34.4791 17.5906L34.0341 17.3897Z" fill="#176FC1"/>
<path d="M37.9272 19.5119C38 19.5519 38.3642 19.7851 38.7364 19.7772C38.8416 19.7772 39.0358 19.7611 39.2624 19.6244C39.9502 19.2144 39.9421 18.1615 39.9421 18.0409C39.9421 17.5988 39.8612 17.1729 39.5779 16.8031C39.5294 16.7388 39.3999 16.5779 39.1895 16.4735C39.0843 16.4254 38.9063 16.3529 38.6231 16.3529C38.4451 16.3529 38.3075 16.3931 38.2428 16.4173C37.9272 16.5459 37.9272 16.795 37.9272 17.0763V19.5119ZM37.9272 21.9231C37.9191 22.0597 37.8625 22.0597 37.7896 22.0597H37.377C37.2232 22.0678 37.207 21.9875 37.207 21.915V17.0442C37.207 16.9639 37.207 16.8754 37.2151 16.7869C37.2232 16.5219 37.2879 16.3771 37.5226 16.2324C37.7249 16.1038 38.1781 15.9109 38.8011 15.9109C39.0115 15.9109 39.667 15.919 40.1444 16.4012C40.3874 16.6343 40.6784 17.1085 40.6784 17.8961C40.6784 18.9734 40.0716 20.2674 38.8011 20.2674C38.3399 20.2674 38.081 20.0904 37.9272 19.9781V21.9231Z" fill="#176FC1"/>
<path d="M41.5357 20.1709C41.4143 20.1709 41.4224 20.1227 41.4224 20.0182V16.16C41.4224 16.0877 41.4063 16.0073 41.56 16.0073H41.9889C42.1264 16.0073 42.1426 16.0314 42.1426 16.16V20.0262C42.1426 20.1547 42.1183 20.1709 41.9889 20.1709H41.5357ZM41.7785 15.2919C41.5357 15.2919 41.3496 15.123 41.3496 14.8738C41.3496 14.6248 41.5438 14.4399 41.7947 14.4399C42.0374 14.448 42.2073 14.6088 42.2157 14.8499C42.2316 15.1071 42.0374 15.2919 41.7785 15.2919Z" fill="#176FC1"/>
<path d="M43.9387 18.9733C43.9468 19.0296 43.9468 19.0777 43.9468 19.126C43.9468 19.343 43.9791 19.5198 44.1329 19.6726C44.1652 19.7046 44.2543 19.7851 44.3837 19.8173C44.4566 19.8412 44.4889 19.8332 44.5617 19.8332H44.6508C44.7236 19.8173 44.8045 19.8011 44.8611 19.8816C44.8692 19.8896 44.8935 19.9299 44.8935 19.9859C44.8935 20.0262 44.8773 20.0584 44.8531 20.0904C44.7883 20.1628 44.5456 20.2512 44.2704 20.2512C43.8335 20.2512 43.4208 20.0584 43.2751 19.6163C43.2185 19.4395 43.2185 19.3027 43.2185 19.1179V16.361H42.7815C42.7087 16.361 42.6682 16.3691 42.6602 16.2485V16.1199C42.6682 16.0234 42.6844 16.0073 42.7896 16.0073H43.2185V15.5171C43.2266 15.3723 43.2428 15.3482 43.3399 15.2438L43.7202 14.9142C43.7445 14.89 43.8173 14.8257 43.8578 14.8257C43.882 14.8257 43.8982 14.8419 43.9144 14.858C43.9468 14.8981 43.9387 14.9383 43.9387 15.0267V16.0073H44.6508C44.756 16.0073 44.7721 16.0073 44.7721 16.1199V16.2404C44.7721 16.3529 44.764 16.361 44.6508 16.361H43.9387V18.9733Z" fill="#176FC1"/>
<path d="M47.0949 18.0809C46.6256 18.2417 45.9459 18.4428 45.9459 19.0697C45.9459 19.15 45.9621 19.4233 46.1482 19.6163C46.3586 19.8412 46.6903 19.8331 46.7712 19.8331C46.7953 19.8331 47.2487 19.8412 47.37 19.5519C47.4105 19.4554 47.4105 19.3429 47.4105 19.2545V17.9844L47.0949 18.0809ZM47.4105 17.1888C47.4105 16.9477 47.4183 16.6503 47.2001 16.4655C47.0464 16.3449 46.8522 16.3368 46.7953 16.3368C46.682 16.3368 46.4233 16.3609 46.2453 16.6182C46.1967 16.6904 46.1722 16.7307 46.1239 16.8593L46.0834 16.9638C46.0349 17.0682 45.9944 17.1324 45.8811 17.1808C45.8326 17.1968 45.7598 17.2049 45.7517 17.2049C45.6546 17.1968 45.4358 17.1324 45.4358 16.8674C45.4358 16.7709 45.4682 16.5859 45.6222 16.4091C45.8002 16.1921 46.221 15.9108 46.9007 15.9108C46.9978 15.9108 47.5238 15.9108 47.8232 16.2242C48.1469 16.562 48.1142 17.0924 48.1142 17.1968V19.3349C48.1064 19.6805 48.0659 19.9136 47.7099 20.0744C47.54 20.1547 47.1273 20.2673 46.6256 20.2673C45.8647 20.2673 45.5008 20.0101 45.3309 19.6885C45.25 19.5279 45.2012 19.3591 45.2012 19.1741C45.2095 18.6517 45.5491 18.3704 45.695 18.2579C45.9863 18.0489 46.3505 17.9202 47.0545 17.7113L47.4105 17.6067V17.1888Z" fill="#176FC1"/>
<path d="M49.5787 14.0219C49.7001 14.014 49.7243 14.0381 49.7324 14.1587V20.0262C49.7324 20.1147 49.7243 20.1709 49.5787 20.1709H49.1579C49.0203 20.1709 49.012 20.1547 49.0039 20.0262V14.1506C49.012 14.0541 49.0284 14.0219 49.1741 14.0219H49.5787Z" fill="#176FC1"/>
<path d="M0.801142 28.0595H2.98598C3.10735 28.0595 3.13972 28.0676 3.13158 28.2042V28.4373C3.13972 28.5579 3.09107 28.574 2.97784 28.574H0.161876C0.032471 28.574 0.00814168 28.5657 0 28.4292V23.0841C0.00814168 22.9556 0.0161876 22.8993 0.161876 22.8993H2.98598C3.08301 22.8993 3.13972 22.9072 3.13158 23.0199V23.2691C3.13158 23.3816 3.10735 23.4218 2.97784 23.4137H0.801142V25.3509H2.64604C2.71894 25.3509 2.79175 25.3267 2.79175 25.4794V25.7206C2.79175 25.8412 2.75926 25.8492 2.64604 25.8572H0.801142V28.0595Z" fill="#176FC1"/>
<path d="M9.1024 28.4213C9.1024 28.5338 9.06994 28.5657 8.95673 28.574H8.52778C8.40643 28.574 8.3821 28.5418 8.3821 28.4213V25.8009C8.3821 25.5759 8.37396 25.2544 8.23652 25.0454C8.15558 24.9168 7.96937 24.764 7.60538 24.764C7.15214 24.7721 6.93376 25.0374 6.8689 25.2062C6.83663 25.3026 6.82849 25.399 6.82849 25.608V28.4213C6.82849 28.5338 6.80414 28.574 6.69103 28.574H6.2622C6.1488 28.574 6.10829 28.5499 6.10829 28.4292V25.7286C6.10829 25.5437 6.14075 24.74 5.32342 24.74C4.85407 24.74 4.64373 24.9971 4.57897 25.182C4.53042 25.3187 4.53042 25.4633 4.53042 25.608V28.4213C4.53042 28.5017 4.53856 28.574 4.37677 28.574H3.96404C3.84259 28.574 3.81836 28.5338 3.81836 28.4213V25.1901C3.81836 25.1258 3.81836 25.0615 3.8264 24.9971C3.83445 24.8364 3.87495 24.6917 4.16624 24.5471C4.33617 24.4667 4.78117 24.3141 5.30731 24.3141C5.3962 24.3141 5.93836 24.3141 6.29438 24.5712C6.3916 24.6355 6.44008 24.7078 6.52102 24.7962C6.56967 24.74 6.62629 24.6917 6.68288 24.6435C6.88518 24.4667 7.20069 24.3141 7.7915 24.3141C7.96133 24.3141 8.81112 24.2978 9.04561 25.0374C9.08612 25.1901 9.1024 25.3106 9.1024 25.608V28.4213Z" fill="#176FC1"/>
<path d="M15.3425 28.4213C15.3425 28.5338 15.3102 28.5657 15.1969 28.574H14.7681C14.6468 28.574 14.6225 28.5418 14.6225 28.4213V25.8009C14.6225 25.5759 14.6144 25.2544 14.4768 25.0454C14.3959 24.9168 14.2098 24.764 13.8457 24.764C13.3925 24.7721 13.174 25.0374 13.1092 25.2062C13.0769 25.3026 13.0688 25.399 13.0688 25.608V28.4213C13.0688 28.5338 13.0446 28.574 12.9313 28.574H12.5024C12.389 28.574 12.3486 28.5499 12.3486 28.4292V25.7286C12.3486 25.5437 12.3811 24.74 11.5637 24.74C11.0943 24.74 10.8841 24.9971 10.8193 25.182C10.7708 25.3187 10.7708 25.4633 10.7708 25.608V28.4213C10.7708 28.5017 10.7788 28.574 10.6171 28.574H10.2044C10.0828 28.574 10.0586 28.5338 10.0586 28.4213V25.1901C10.0586 25.1258 10.0586 25.0615 10.0667 24.9971C10.0748 24.8364 10.1153 24.6917 10.4066 24.5471C10.5766 24.4667 11.0216 24.3141 11.5475 24.3141C11.6365 24.3141 12.1787 24.3141 12.5348 24.5712C12.6319 24.6355 12.6804 24.7078 12.7613 24.7962C12.8098 24.74 12.8664 24.6917 12.9231 24.6435C13.1254 24.4667 13.441 24.3141 14.0316 24.3141C14.2017 24.3141 15.0513 24.2978 15.2859 25.0374C15.3265 25.1901 15.3425 25.3106 15.3425 25.608V28.4213Z" fill="#176FC1"/>
<path d="M18.627 25.6723C18.6189 25.6319 18.6189 25.5678 18.5948 25.4794C18.5623 25.3428 18.3439 24.7721 17.7531 24.7721C17.6722 24.7721 17.4943 24.7882 17.2919 24.8926C17.033 25.0293 16.7578 25.3267 16.7012 25.9777L18.627 25.6723ZM19.1045 27.2316C19.1449 27.1513 19.1854 27.0708 19.2987 27.0708C19.4525 27.0708 19.4607 27.2396 19.4607 27.2718C19.4607 27.3278 19.4282 27.4484 19.3716 27.5933C19.1126 28.2524 18.5704 28.6704 17.8422 28.6704C17.7452 28.6704 17.4862 28.6623 17.219 28.5579C16.6525 28.3489 16.0781 27.7781 16.0781 26.4841C16.0781 25.4472 16.4665 24.9248 16.8388 24.6434C17.0087 24.5149 17.3243 24.314 17.8583 24.314C18.7322 24.314 19.1045 24.8525 19.2501 25.1499C19.3229 25.3106 19.4039 25.5678 19.4039 25.7446C19.4039 25.9697 19.2745 25.9857 19.1692 26.0018L16.7012 26.3636C16.7092 26.5565 16.7255 27.095 17.0734 27.5531C17.1867 27.6978 17.4457 28.0193 17.9474 28.0193C18.627 28.0112 18.9589 27.4727 19.0639 27.3039L19.1045 27.2316Z" fill="#176FC1"/>
<path d="M20.3418 28.574C20.2203 28.574 20.1799 28.5579 20.1719 28.4292V25.0695C20.1799 24.7882 20.1961 24.6677 20.4793 24.539C20.6656 24.4586 21.1267 24.3141 21.677 24.3141C21.8792 24.3141 22.1624 24.3381 22.3325 24.4506C22.3729 24.4828 22.5104 24.5952 22.5104 24.7801C22.5104 24.965 22.3729 25.1258 22.1787 25.1258C22.0491 25.1178 21.9845 25.0615 21.9036 24.9811L21.8307 24.9007C21.766 24.8284 21.6445 24.6998 21.3937 24.6998C21.3451 24.6998 21.1267 24.7159 21.0053 24.8525C20.9001 24.9731 20.9001 25.1178 20.9001 25.2705V28.4373C20.9001 28.574 20.8111 28.574 20.7545 28.574H20.3418Z" fill="#176FC1"/>
<path d="M22.9792 28.574C22.8577 28.574 22.8658 28.5256 22.8658 28.4213V24.5631C22.8658 24.4908 22.8498 24.4104 23.0035 24.4104H23.4323C23.5698 24.4104 23.5861 24.4343 23.5861 24.5631V28.4292C23.5861 28.5579 23.5617 28.574 23.4323 28.574H22.9792ZM23.2219 23.6951C22.9792 23.6951 22.793 23.5263 22.793 23.2769C22.793 23.0279 22.9872 22.8432 23.2382 22.8432C23.4808 22.8511 23.6507 23.0118 23.6588 23.253C23.675 23.5101 23.4808 23.6951 23.2219 23.6951Z" fill="#176FC1"/>
<path d="M26.8 25.3348C26.7595 25.2544 26.622 24.9329 26.3064 24.8203C26.2659 24.8042 26.1607 24.7721 26.0393 24.7721C25.9261 24.7721 25.7238 24.7961 25.5055 24.9649C24.9957 25.3508 24.9874 26.1546 24.9874 26.2671C24.9874 27.4727 25.6105 28.0271 26.2012 28.0271C26.3468 28.0271 26.4766 27.9952 26.6058 27.9309C26.8809 27.8103 27.0187 27.6254 27.1641 27.3843L27.2046 27.312C27.2534 27.2396 27.3098 27.1593 27.4069 27.1593C27.4718 27.1593 27.5687 27.1995 27.5687 27.3522C27.5687 27.5049 27.4878 27.7136 27.4231 27.8506C27.2855 28.1158 26.8809 28.6704 26.0393 28.6704C25.7804 28.6704 25.2304 28.6222 24.8015 28.0756C24.3402 27.4888 24.332 26.7494 24.332 26.5323C24.332 26.3957 24.3402 26.0581 24.4373 25.6884C24.6637 24.8686 25.2463 24.314 26.1364 24.314C26.2983 24.314 26.6624 24.3219 27.0187 24.5791C27.245 24.7319 27.5283 25.0453 27.5202 25.3428C27.5202 25.616 27.2612 25.6723 27.1803 25.6723C26.9702 25.6723 26.8728 25.4714 26.8488 25.4311L26.8 25.3348Z" fill="#176FC1"/>
<path d="M28.9841 28.389C28.9841 28.5095 28.976 28.5739 28.8304 28.5739H28.3934C28.3044 28.5739 28.2559 28.5656 28.2559 28.4051V22.5696C28.2559 22.4572 28.3044 22.433 28.4015 22.4249H28.8304C28.9113 22.4249 28.9841 22.4088 28.9841 22.5696L28.9922 24.8202C29.0731 24.7399 29.0974 24.7158 29.1864 24.6434C29.3564 24.5148 29.6962 24.314 30.2303 24.314C30.7482 24.314 30.999 24.4907 31.1608 24.6515C31.2903 24.7881 31.3793 24.9408 31.436 25.1177C31.4926 25.2704 31.5088 25.3909 31.5169 25.7124V28.389C31.5169 28.5095 31.5169 28.5819 31.3631 28.5739H30.9505C30.821 28.5739 30.7805 28.5578 30.7886 28.4211V25.8089C30.7886 25.7366 30.7886 25.6642 30.7805 25.5998C30.7724 25.4632 30.7401 25.1498 30.4164 24.9489C30.3355 24.9006 30.1898 24.8202 29.9632 24.8202C29.4615 24.8202 29.0731 25.19 28.9841 25.2704V28.389Z" fill="#176FC1"/>
<path d="M32.7626 26.6208C32.6331 26.6208 32.6331 26.5726 32.625 26.4602V26.1788C32.6331 26.0744 32.6736 26.0502 32.7626 26.0502H34.0896C34.2353 26.0502 34.2272 26.0984 34.2272 26.1788V26.4682C34.2272 26.5887 34.2191 26.6208 34.0977 26.6208H32.7626Z" fill="#176FC1"/>
<path d="M36.0254 25.6402C36.3572 25.6402 36.6725 25.6643 37.0124 25.5759C37.2794 25.4955 37.8701 25.2463 37.8701 24.4506C37.8701 24.3621 37.8701 24.0728 37.7325 23.8236C37.4817 23.3573 36.9962 23.2931 36.5268 23.2931C36.2841 23.2931 36.1142 23.3172 36.0171 23.3253L36.0254 25.6402ZM38.8978 28.349C38.9301 28.3891 38.9627 28.4373 38.9627 28.4936C38.9627 28.574 38.8899 28.574 38.833 28.574H38.2426C38.0888 28.574 38.0805 28.5579 38.0077 28.4453L36.6563 26.2913C36.6401 26.2591 36.4864 25.9939 36.2355 25.9939C36.2113 26.0018 36.1708 25.9939 36.1142 26.034C36.0254 26.0822 36.0171 26.1948 36.0171 26.2832V28.4052C36.0171 28.5256 35.9928 28.574 35.8633 28.574H35.394C35.2726 28.574 35.2402 28.5499 35.2402 28.4373V23.2047C35.2402 23.1486 35.2402 23.1002 35.2564 23.0438C35.2807 22.9795 35.3697 22.9475 35.5154 22.9234C35.637 22.8993 36.163 22.8432 36.6401 22.8432C37.2956 22.8432 38.0484 22.9234 38.4446 23.5263C38.6714 23.88 38.6793 24.2175 38.6793 24.3702C38.6714 24.5631 38.6631 24.9168 38.3313 25.2945C38.1455 25.5116 37.862 25.7447 37.2632 25.9055L38.8978 28.349Z" fill="#176FC1"/>
<path d="M41.7211 25.6723C41.713 25.6319 41.713 25.5678 41.6884 25.4794C41.6561 25.3428 41.4378 24.7721 40.8469 24.7721C40.766 24.7721 40.5882 24.7882 40.3859 24.8926C40.1267 25.0293 39.8516 25.3267 39.795 25.9777L41.7211 25.6723ZM42.1982 27.2316C42.2387 27.1513 42.2792 27.0708 42.3924 27.0708C42.5462 27.0708 42.5543 27.2396 42.5543 27.2718C42.5543 27.3278 42.5222 27.4484 42.4653 27.5933C42.2063 28.2524 41.6644 28.6704 40.9361 28.6704C40.8388 28.6704 40.5801 28.6623 40.3131 28.5579C39.7464 28.3489 39.1719 27.7781 39.1719 26.4841C39.1719 25.4472 39.5603 24.9248 39.9325 24.6434C40.1024 24.5149 40.418 24.314 40.9521 24.314C41.8263 24.314 42.1982 24.8525 42.3441 25.1499C42.417 25.3106 42.4979 25.5678 42.4979 25.7446C42.4979 25.9697 42.3684 25.9857 42.2632 26.0018L39.795 26.3636C39.803 26.5565 39.8192 27.095 40.1674 27.5531C40.2807 27.6978 40.5396 28.0193 41.0411 28.0193C41.7211 28.0112 42.0526 27.4727 42.1578 27.3039L42.1982 27.2316Z" fill="#176FC1"/>
<path d="M45.598 25.6723C45.5897 25.6319 45.5897 25.5678 45.5654 25.4794C45.533 25.3428 45.3146 24.7721 44.7238 24.7721C44.6429 24.7721 44.4649 24.7882 44.2626 24.8926C44.0039 25.0293 43.7288 25.3267 43.6719 25.9777L45.598 25.6723ZM46.0752 27.2316C46.1157 27.1513 46.1561 27.0708 46.2694 27.0708C46.4231 27.0708 46.4312 27.2396 46.4312 27.2718C46.4312 27.3278 46.3989 27.4484 46.3422 27.5933C46.0833 28.2524 45.5411 28.6704 44.8129 28.6704C44.7158 28.6704 44.4568 28.6623 44.1898 28.5579C43.6234 28.3489 43.0488 27.7781 43.0488 26.4841C43.0488 25.4472 43.4372 24.9248 43.8097 24.6434C43.9794 24.5149 44.295 24.314 44.829 24.314C45.703 24.314 46.0752 24.8525 46.2211 25.1499C46.2937 25.3106 46.3748 25.5678 46.3748 25.7446C46.3748 25.9697 46.2451 25.9857 46.1402 26.0018L43.6719 26.3636C43.68 26.5565 43.6962 27.095 44.0444 27.5531C44.1577 27.6978 44.4164 28.0193 44.9181 28.0193C45.598 28.0112 45.9295 27.4727 46.0347 27.3039L46.0752 27.2316Z" fill="#176FC1"/>
<path d="M47.7581 27.8425C47.7824 27.8827 47.8064 27.9229 47.839 27.955C47.92 28.0515 48.0899 28.2122 48.4217 28.2122C48.47 28.2122 48.5833 28.2122 48.7046 28.156C48.9234 28.0595 49.0447 27.8342 49.0366 27.6011C49.0366 27.4082 48.9557 27.2638 48.9234 27.2075C48.7696 26.9744 48.5104 26.8699 48.2679 26.7574L47.9281 26.5966C47.8874 26.5725 47.6691 26.468 47.5154 26.3475C47.1027 26.034 47.046 25.6241 47.046 25.4311C47.046 25.3187 47.0541 25.1338 47.1755 24.9007C47.4102 24.4747 47.8633 24.314 48.3327 24.314C48.47 24.314 49.069 24.3219 49.417 24.7319C49.441 24.764 49.5947 24.9409 49.5947 25.1257C49.5947 25.3026 49.4655 25.4311 49.2872 25.4311C49.0852 25.4311 49.0043 25.2784 48.9717 25.2302L48.9315 25.1579C48.8748 25.0453 48.7211 24.7238 48.3084 24.7238C48.2032 24.7238 48.1142 24.7399 48.0252 24.7882C47.9361 24.8364 47.7096 24.9971 47.7096 25.3106C47.7096 25.415 47.7419 25.5357 47.7905 25.6319C47.92 25.8652 48.1465 25.9617 48.389 26.0661L48.7372 26.2269C48.8179 26.2671 48.9072 26.3153 48.9962 26.3636C49.1904 26.468 49.7245 26.7574 49.7245 27.4567C49.7245 27.8907 49.4815 28.6704 48.365 28.6704C48.1789 28.6704 47.5963 28.6704 47.1917 28.2363C47.0784 28.1077 46.957 27.939 46.957 27.7622C46.9651 27.6898 46.9813 27.6413 46.9892 27.6174C47.0622 27.4406 47.2402 27.4082 47.2969 27.4082C47.5073 27.4165 47.6122 27.6174 47.7015 27.7702L47.7581 27.8425Z" fill="#176FC1"/>
<path d="M60.4269 12.0896C59.3014 21.3514 66.2452 24.6474 69.0338 24.2863C74.755 23.5456 76.9662 15.6781 75.7861 11.5575C73.778 4.5482 61.2305 5.47815 60.4269 12.0896Z" fill="#176FC1"/>
<path d="M65.1334 6.78149C66.8449 6.78149 68.2316 5.26333 68.2316 3.39029C68.2316 1.51725 66.8449 -0.000907421 65.1334 -0.000907421C63.4221 -0.000907421 62.0352 1.51725 62.0352 3.39029C62.0352 5.26333 63.4221 6.78149 65.1334 6.78149Z" fill="#176FC1"/>
<path d="M62.0332 23.9445C61.0575 25.4999 61.5742 29.5297 61.5742 29.5297L67.3118 29.5867C67.3118 29.5867 67.1971 29.1227 67.6561 28.3898C68.1151 27.6567 72.1579 28.1663 73.6237 27.8198C75.3446 27.4123 77.2381 23.1464 74.5415 18.3588C73.6144 16.7132 71.4593 14.8249 71.4593 14.8249C71.4593 14.8249 71.0294 15.6391 70.3524 16.1277C69.6766 16.6163 68.6313 16.8117 68.6313 16.8117C68.6313 16.8117 68.7021 18.1934 68.5739 19.7269C68.2941 23.0848 63.0082 22.3889 62.0332 23.9445Z" fill="white"/>
<path d="M68.2759 16.0139C69.9482 16.0139 71.3037 14.531 71.3037 12.7007C71.3037 10.87 69.9482 9.38706 68.2759 9.38706C66.6036 9.38706 65.248 10.87 65.248 12.7007C65.248 14.531 66.6036 16.0139 68.2759 16.0139Z" fill="white"/>
<path d="M96.8815 20.9557H94.6896C94.656 20.9557 94.6391 20.9391 94.6391 20.9055C94.6391 20.6638 94.6644 20.4883 94.7149 20.3299C94.8743 19.8378 95.2607 19.5791 95.7813 19.5791C96.3104 19.5791 96.6966 19.8378 96.856 20.3299C96.9065 20.4883 96.9318 20.6638 96.9318 20.9055C96.9318 20.9391 96.9149 20.9557 96.8815 20.9557ZM95.7813 19.162C95.0591 19.162 94.5136 19.5292 94.2951 20.1965C94.2193 20.4385 94.1771 20.7303 94.1771 21.231C94.1771 21.7397 94.2193 22.015 94.2951 22.2569C94.5219 22.9408 95.0508 23.308 95.8316 23.308C96.4951 23.308 96.999 23.0327 97.2927 22.6408C97.3263 22.599 97.3263 22.5574 97.2844 22.5237L97.0914 22.3485C97.0493 22.3153 97.0073 22.3238 96.9737 22.3652C96.7388 22.6574 96.3774 22.8743 95.857 22.8743C95.311 22.8743 94.9081 22.6239 94.7232 22.0984C94.6644 21.9149 94.6391 21.7315 94.6391 21.3976C94.6391 21.3644 94.656 21.3393 94.6896 21.3393H97.3016C97.3602 21.3393 97.3938 21.3059 97.3938 21.256C97.3938 20.7052 97.3602 20.4467 97.2761 20.1965C97.0576 19.5292 96.5037 19.162 95.7813 19.162ZM114.767 21.9565C114.649 22.2902 114.389 22.4823 114.011 22.4823C113.633 22.4823 113.364 22.2902 113.247 21.9565C113.18 21.7482 113.163 21.5561 113.163 21.2144C113.163 20.8723 113.18 20.6887 113.247 20.4718C113.364 20.1381 113.633 19.9463 114.011 19.9463C114.389 19.9463 114.649 20.1381 114.767 20.4718C114.834 20.6887 114.851 20.8723 114.851 21.2144C114.851 21.5561 114.834 21.7482 114.767 21.9565ZM114.011 19.1122C113.188 19.1122 112.567 19.5208 112.34 20.2217C112.248 20.5053 112.206 20.7721 112.206 21.2144C112.206 21.6562 112.248 21.9233 112.34 22.2068C112.567 22.9076 113.188 23.3163 114.011 23.3163C114.826 23.3163 115.447 22.9076 115.674 22.2068C115.766 21.9233 115.808 21.6562 115.808 21.2144C115.808 20.7721 115.766 20.5053 115.674 20.2217C115.447 19.5208 114.826 19.1122 114.011 19.1122ZM110.669 19.1122C110.157 19.1122 109.813 19.3206 109.619 19.6294H109.611V19.2873C109.611 19.2374 109.577 19.2037 109.527 19.2037H108.755C108.704 19.2037 108.67 19.2374 108.67 19.2873V23.1409C108.67 23.1914 108.704 23.2244 108.755 23.2244H109.527C109.577 23.2244 109.611 23.1914 109.611 23.1409V20.9638C109.611 20.3217 109.846 19.9463 110.375 19.9463C110.594 19.9463 110.787 20.0214 110.971 20.1381C111.014 20.1713 111.055 20.1633 111.089 20.1216L111.534 19.5625C111.568 19.5208 111.559 19.4876 111.517 19.4458C111.307 19.2374 110.988 19.1122 110.669 19.1122ZM106.336 21.9651C106.227 22.2987 105.967 22.4823 105.589 22.4823C105.202 22.4823 104.942 22.2987 104.833 21.9651C104.774 21.7815 104.749 21.5812 104.749 21.2144C104.749 20.8472 104.774 20.6469 104.833 20.4636C104.942 20.13 105.202 19.9463 105.589 19.9463C105.967 19.9463 106.227 20.13 106.336 20.4636C106.395 20.6469 106.42 20.8472 106.42 21.2144C106.42 21.5812 106.395 21.7815 106.336 21.9651ZM105.833 19.1122C105.287 19.1122 104.951 19.3124 104.758 19.5877H104.749V19.2873C104.749 19.2374 104.715 19.2037 104.665 19.2037H103.893C103.842 19.2037 103.809 19.2374 103.809 19.2873V24.6426C103.809 24.6927 103.842 24.7261 103.893 24.7261H104.665C104.715 24.7261 104.749 24.6927 104.749 24.6426V22.8406H104.758C104.951 23.116 105.287 23.3163 105.833 23.3163C106.521 23.3163 107.025 22.991 107.235 22.3485C107.336 22.04 107.378 21.7564 107.378 21.2144C107.378 20.6719 107.336 20.3883 107.235 20.0798C107.025 19.4376 106.521 19.1122 105.833 19.1122ZM144.416 20.4219C144.525 20.0963 144.828 19.9046 145.214 19.9046C145.592 19.9046 145.894 20.0963 146.003 20.4219C146.037 20.522 146.053 20.6221 146.053 20.7636C146.053 20.7972 146.037 20.8139 146.003 20.8139H144.416C144.382 20.8139 144.365 20.7972 144.365 20.7636C144.365 20.6221 144.382 20.522 144.416 20.4219ZM144.416 21.5143H146.91C146.969 21.5143 147.002 21.481 147.002 21.4312C147.002 20.7806 146.96 20.5053 146.868 20.2217C146.641 19.5373 146.037 19.1122 145.205 19.1122C144.399 19.1122 143.778 19.5208 143.551 20.2217C143.467 20.4802 143.416 20.7972 143.416 21.2144C143.416 21.6315 143.475 21.94 143.559 22.1985C143.786 22.899 144.391 23.3163 145.247 23.3163C145.995 23.3163 146.566 23.0327 146.91 22.6323C146.944 22.5906 146.944 22.5488 146.902 22.5156L146.406 22.0818C146.364 22.0482 146.322 22.0566 146.28 22.0984C146.079 22.3153 145.785 22.4823 145.331 22.4823C144.878 22.4823 144.559 22.2654 144.424 21.873C144.391 21.7815 144.365 21.6813 144.365 21.5646C144.365 21.5313 144.382 21.5143 144.416 21.5143ZM140.764 19.1122C140.226 19.1122 139.873 19.329 139.697 19.5791H139.689V19.2873C139.689 19.2374 139.655 19.2037 139.604 19.2037H138.832C138.782 19.2037 138.748 19.2374 138.748 19.2873V23.1409C138.748 23.1914 138.782 23.2244 138.832 23.2244H139.604C139.655 23.2244 139.689 23.1914 139.689 23.1409V20.822C139.689 20.3052 139.974 19.9463 140.461 19.9463C140.965 19.9463 141.225 20.3052 141.225 20.822V23.1409C141.225 23.1914 141.259 23.2244 141.309 23.2244H142.082C142.132 23.2244 142.166 23.1914 142.166 23.1409V20.6051C142.166 19.7461 141.628 19.1122 140.764 19.1122ZM101.004 19.4376C100.811 19.2706 100.517 19.162 100.198 19.162C99.6352 19.162 99.2745 19.4458 99.1232 19.8378H99.1149V19.329C99.1149 19.2792 99.0811 19.2455 99.0308 19.2455H98.7451C98.6948 19.2455 98.6613 19.2792 98.6613 19.329V23.1409C98.6613 23.1914 98.6948 23.2244 98.7451 23.2244H99.0308C99.0811 23.2244 99.1149 23.1914 99.1149 23.1409V20.9391C99.1149 20.205 99.3836 19.5961 100.089 19.5961C100.341 19.5961 100.542 19.6793 100.727 19.796C100.777 19.8211 100.82 19.8211 100.853 19.7794L101.021 19.546C101.054 19.5042 101.046 19.4624 101.004 19.4376ZM92.3386 22.1735C92.1875 22.6408 91.818 22.8743 91.3143 22.8743C90.7937 22.8743 90.4409 22.6239 90.2898 22.1735C90.2057 21.9233 90.1807 21.5898 90.1807 21.2392C90.1807 20.8806 90.2057 20.5467 90.2898 20.2966C90.4409 19.8463 90.7937 19.5961 91.3143 19.5961C91.818 19.5961 92.1875 19.8296 92.3386 20.2966C92.4143 20.5135 92.4479 20.8054 92.4479 21.2392C92.4479 21.6728 92.4143 21.9565 92.3386 22.1735ZM92.8174 17.5523H92.5318C92.4815 17.5523 92.4479 17.5856 92.4479 17.6358V19.813H92.4396C92.2461 19.4376 91.8854 19.162 91.2219 19.162C90.5164 19.162 90.063 19.4791 89.8615 20.1129C89.7523 20.4385 89.7188 20.7887 89.7188 21.2392C89.7188 21.6813 89.7523 22.0316 89.8615 22.3571C90.063 22.991 90.5164 23.308 91.2219 23.308C91.8854 23.308 92.2461 23.0327 92.4396 22.6574H92.4479V23.1409C92.4479 23.1914 92.4815 23.2244 92.5318 23.2244H92.8174C92.868 23.2244 92.9013 23.1914 92.9013 23.1409V17.6358C92.9013 17.5856 92.868 17.5523 92.8174 17.5523ZM137.153 17.5523H136.38C136.33 17.5523 136.296 17.5856 136.296 17.6358V18.3614C136.296 18.4114 136.33 18.4449 136.38 18.4449H137.153C137.203 18.4449 137.237 18.4114 137.237 18.3614V17.6358C137.237 17.5856 137.203 17.5523 137.153 17.5523ZM137.153 19.2037H136.38C136.33 19.2037 136.296 19.2374 136.296 19.2873V23.1409C136.296 23.1914 136.33 23.2244 136.38 23.2244H137.153C137.203 23.2244 137.237 23.1914 137.237 23.1409V19.2873C137.237 19.2374 137.203 19.2037 137.153 19.2037ZM121.384 19.1122C120.846 19.1122 120.493 19.329 120.317 19.5791H120.309V17.6358C120.309 17.5856 120.275 17.5523 120.225 17.5523H119.452C119.402 17.5523 119.368 17.5856 119.368 17.6358V23.1409C119.368 23.1914 119.402 23.2244 119.452 23.2244H120.225C120.275 23.2244 120.309 23.1914 120.309 23.1409V20.822C120.309 20.3052 120.594 19.9463 121.081 19.9463C121.585 19.9463 121.845 20.3052 121.845 20.822V23.1409C121.845 23.1914 121.879 23.2244 121.929 23.2244H122.702C122.752 23.2244 122.786 23.1914 122.786 23.1409V20.6051C122.786 19.7461 122.249 19.1122 121.384 19.1122ZM126.598 21.9565C126.481 22.2902 126.22 22.4823 125.842 22.4823C125.464 22.4823 125.196 22.2902 125.078 21.9565C125.011 21.7482 124.994 21.5561 124.994 21.2144C124.994 20.8723 125.011 20.6887 125.078 20.4718C125.196 20.1381 125.464 19.9463 125.842 19.9463C126.22 19.9463 126.481 20.1381 126.598 20.4718C126.665 20.6887 126.682 20.8723 126.682 21.2144C126.682 21.5561 126.665 21.7482 126.598 21.9565ZM125.842 19.1122C125.019 19.1122 124.398 19.5208 124.171 20.2217C124.079 20.5053 124.037 20.7721 124.037 21.2144C124.037 21.6562 124.079 21.9233 124.171 22.2068C124.398 22.9076 125.019 23.3163 125.842 23.3163C126.657 23.3163 127.278 22.9076 127.505 22.2068C127.597 21.9233 127.639 21.6562 127.639 21.2144C127.639 20.7721 127.597 20.5053 127.505 20.2217C127.278 19.5208 126.657 19.1122 125.842 19.1122ZM133.358 19.1122C132.778 19.1122 132.375 19.3124 132.065 19.6461H132.056C131.812 19.3039 131.426 19.1122 130.947 19.1122C130.41 19.1122 130.057 19.329 129.881 19.5791H129.873V19.2873C129.873 19.2374 129.839 19.2037 129.789 19.2037H129.016C128.966 19.2037 128.932 19.2374 128.932 19.2873V23.1409C128.932 23.1914 128.966 23.2244 129.016 23.2244H129.789C129.839 23.2244 129.873 23.1914 129.873 23.1409V20.822C129.873 20.3052 130.158 19.9463 130.645 19.9463C131.149 19.9463 131.409 20.3052 131.409 20.822V23.1409C131.409 23.1914 131.443 23.2244 131.493 23.2244H132.266C132.316 23.2244 132.35 23.1914 132.35 23.1409V20.822C132.35 20.3052 132.635 19.9463 133.123 19.9463C133.626 19.9463 133.887 20.3052 133.887 20.822V23.1409C133.887 23.1914 133.92 23.2244 133.971 23.2244H134.743C134.793 23.2244 134.827 23.1914 134.827 23.1409V20.6051C134.827 19.7461 134.298 19.1122 133.358 19.1122ZM112.558 10.6831C112.608 10.6831 112.642 10.6498 112.642 10.5997V10.1326C112.642 10.0825 112.608 10.0491 112.558 10.0491H112.189C112.138 10.0491 112.105 10.0825 112.105 10.1326V10.5997C112.105 10.6498 112.138 10.6831 112.189 10.6831H112.558ZM130.553 13.2856V15.6379C130.553 15.6881 130.586 15.7214 130.637 15.7214H130.922C130.972 15.7214 131.006 15.6881 131.006 15.6379V13.1772C131.006 12.2097 130.494 11.6588 129.604 11.6588C129.041 11.6588 128.621 11.9093 128.42 12.3013H128.411V10.1326C128.411 10.0825 128.378 10.0491 128.327 10.0491H128.042C127.991 10.0491 127.958 10.0825 127.958 10.1326V15.6379C127.958 15.6881 127.991 15.7214 128.042 15.7214H128.327C128.378 15.7214 128.411 15.6881 128.411 15.6379V13.2021C128.411 12.5097 128.89 12.093 129.503 12.093C130.2 12.093 130.553 12.4931 130.553 13.2856ZM137.976 11.7424H137.69C137.639 11.7424 137.606 11.7761 137.606 11.8258V14.2617C137.606 14.9539 137.136 15.3712 136.531 15.3712C135.834 15.3712 135.498 14.9792 135.498 14.1782V11.8258C135.498 11.7761 135.464 11.7424 135.414 11.7424H135.128C135.078 11.7424 135.044 11.7761 135.044 11.8258V14.295C135.044 15.2543 135.54 15.8048 136.43 15.8048C136.976 15.8048 137.396 15.5629 137.598 15.1709H137.606V15.6379C137.606 15.6881 137.639 15.7214 137.69 15.7214H137.976C138.026 15.7214 138.059 15.6881 138.059 15.6379V11.8258C138.059 11.7761 138.026 11.7424 137.976 11.7424ZM125.363 15.8048C125.993 15.8048 126.421 15.5378 126.716 15.0541C126.74 15.0124 126.732 14.9706 126.69 14.9455L126.455 14.7955C126.413 14.7704 126.371 14.787 126.346 14.8288C126.111 15.1959 125.834 15.3712 125.363 15.3712C124.843 15.3712 124.473 15.1125 124.314 14.6203C124.238 14.4036 124.204 14.1449 124.204 13.736C124.204 13.3273 124.238 13.0606 124.314 12.8437C124.473 12.3511 124.843 12.093 125.363 12.093C125.834 12.093 126.111 12.268 126.346 12.6349C126.371 12.6767 126.413 12.6933 126.455 12.6682L126.69 12.5183C126.732 12.4931 126.74 12.4513 126.716 12.4095C126.421 11.926 125.993 11.6588 125.363 11.6588C124.624 11.6588 124.079 12.0426 123.868 12.6933C123.793 12.9435 123.743 13.2605 123.743 13.736C123.743 14.2115 123.793 14.5202 123.868 14.7704C124.079 15.4209 124.624 15.8048 125.363 15.8048ZM120.116 12.093C120.367 12.093 120.569 12.1761 120.754 12.2929C120.804 12.318 120.846 12.318 120.88 12.2762L121.047 12.0426C121.081 12.001 121.073 11.9591 121.031 11.9345C120.838 11.7674 120.544 11.6588 120.225 11.6588C119.662 11.6588 119.301 11.9427 119.15 12.3346H119.141V11.8258C119.141 11.7761 119.108 11.7424 119.057 11.7424H118.772C118.721 11.7424 118.688 11.7761 118.688 11.8258V15.6379C118.688 15.6881 118.721 15.7214 118.772 15.7214H119.057C119.108 15.7214 119.141 15.6881 119.141 15.6379V13.4359C119.141 12.7018 119.41 12.093 120.116 12.093ZM115.791 11.6588C115.229 11.6588 114.808 11.9093 114.607 12.3013H114.599V11.8258C114.599 11.7761 114.565 11.7424 114.514 11.7424H114.229C114.179 11.7424 114.145 11.7761 114.145 11.8258V15.6379C114.145 15.6881 114.179 15.7214 114.229 15.7214H114.514C114.565 15.7214 114.599 15.6881 114.599 15.6379V13.2021C114.599 12.5097 115.077 12.093 115.69 12.093C116.387 12.093 116.74 12.4931 116.74 13.2856V15.6379C116.74 15.6881 116.774 15.7214 116.824 15.7214H117.11C117.16 15.7214 117.194 15.6881 117.194 15.6379V13.1772C117.194 12.2097 116.681 11.6588 115.791 11.6588ZM112.516 15.7214C112.567 15.7214 112.6 15.6881 112.6 15.6379V11.8258C112.6 11.7761 112.567 11.7424 112.516 11.7424H112.231C112.18 11.7424 112.147 11.7761 112.147 11.8258V15.6379C112.147 15.6881 112.18 15.7214 112.231 15.7214H112.516ZM132.139 12.1427H132.559C132.592 12.1427 132.609 12.1594 132.609 12.1927V14.6703C132.609 15.4543 132.895 15.7465 133.651 15.7465H133.869C133.92 15.7465 133.953 15.7128 133.953 15.663V15.3959C133.953 15.3459 133.92 15.3127 133.869 15.3127H133.71C133.248 15.3127 133.063 15.179 133.063 14.6452V12.1927C133.063 12.1594 133.08 12.1427 133.113 12.1427H133.869C133.92 12.1427 133.953 12.1096 133.953 12.0593V11.8258C133.953 11.7761 133.92 11.7424 133.869 11.7424H133.113C133.08 11.7424 133.063 11.7257 133.063 11.6925V10.5497C133.063 10.4995 133.029 10.4662 132.979 10.4662H132.693C132.643 10.4662 132.609 10.4995 132.609 10.5497V11.6925C132.609 11.7257 132.592 11.7424 132.559 11.7424H132.139C132.089 11.7424 132.055 11.7761 132.055 11.8258V12.0593C132.055 12.1096 132.089 12.1427 132.139 12.1427ZM94.7401 11.7424C94.6899 11.7424 94.6563 11.7761 94.6563 11.8258V15.6379C94.6563 15.6881 94.6899 15.7214 94.7401 15.7214H95.0255C95.0761 15.7214 95.1097 15.6881 95.1097 15.6379V11.8258C95.1097 11.7761 95.0761 11.7424 95.0255 11.7424H94.7401ZM94.6979 10.6831H95.0677C95.118 10.6831 95.1518 10.6498 95.1518 10.5997V10.1326C95.1518 10.0825 95.118 10.0491 95.0677 10.0491H94.6979C94.6477 10.0491 94.6143 10.0825 94.6143 10.1326V10.5997C94.6143 10.6498 94.6477 10.6831 94.6979 10.6831ZM122.097 11.7424C122.047 11.7424 122.013 11.7761 122.013 11.8258V15.6379C122.013 15.6881 122.047 15.7214 122.097 15.7214H122.382C122.433 15.7214 122.467 15.6881 122.467 15.6379V11.8258C122.467 11.7761 122.433 11.7424 122.382 11.7424H122.097ZM122.055 10.6831H122.425C122.475 10.6831 122.509 10.6498 122.509 10.5997V10.1326C122.509 10.0825 122.475 10.0491 122.425 10.0491H122.055C122.005 10.0491 121.971 10.0825 121.971 10.1326V10.5997C121.971 10.6498 122.005 10.6831 122.055 10.6831ZM144.449 12.7852C144.6 12.3346 144.936 12.093 145.431 12.093C145.894 12.093 146.263 12.2929 146.431 12.7934C146.506 13.0188 146.532 13.2856 146.532 13.7026C146.532 14.1197 146.506 14.3865 146.431 14.6119C146.263 15.104 145.894 15.3127 145.431 15.3127C144.936 15.3127 144.6 15.0707 144.449 14.6119C144.365 14.3865 144.332 14.0946 144.332 13.7026C144.332 13.3023 144.365 13.0188 144.449 12.7852ZM145.339 15.7379C145.986 15.7379 146.338 15.4793 146.523 15.0873H146.532V15.663C146.532 16.5219 146.103 16.8725 145.39 16.8725C144.978 16.8725 144.642 16.7222 144.399 16.4469C144.365 16.4053 144.323 16.397 144.281 16.4303L144.071 16.6139C144.029 16.6471 144.029 16.6889 144.054 16.7307C144.272 17.0562 144.802 17.3063 145.381 17.3063C146.381 17.3063 146.985 16.7558 146.985 15.6463V11.8258C146.985 11.7761 146.951 11.7424 146.901 11.7424H146.615C146.565 11.7424 146.532 11.7761 146.532 11.8258V12.3098H146.523C146.338 11.9175 145.986 11.6588 145.339 11.6588C144.667 11.6588 144.205 12.0094 144.004 12.6183C143.912 12.902 143.87 13.2272 143.87 13.7026C143.87 14.1782 143.912 14.5036 144.004 14.787C144.205 15.3959 144.667 15.7379 145.339 15.7379ZM110.93 15.6379V15.3545C110.93 15.3042 110.896 15.271 110.845 15.271H108.024C107.99 15.271 107.974 15.2543 107.974 15.2207V13.119C107.974 13.0853 107.99 13.0687 108.024 13.0687H110.451C110.501 13.0687 110.535 13.0355 110.535 12.9851V12.7018C110.535 12.6516 110.501 12.6183 110.451 12.6183H108.024C107.99 12.6183 107.974 12.6017 107.974 12.568V10.5497C107.974 10.5162 107.99 10.4995 108.024 10.4995H110.845C110.896 10.4995 110.93 10.4662 110.93 10.4161V10.1326C110.93 10.0825 110.896 10.0491 110.845 10.0491H107.579C107.528 10.0491 107.495 10.0825 107.495 10.1326V15.6379C107.495 15.6881 107.528 15.7214 107.579 15.7214H110.845C110.896 15.7214 110.93 15.6881 110.93 15.6379ZM93.3549 10.0491H90.0883C90.0378 10.0491 90.0044 10.0825 90.0044 10.1326V15.6379C90.0044 15.6881 90.0378 15.7214 90.0883 15.7214H93.3549C93.4052 15.7214 93.4391 15.6881 93.4391 15.6379V15.3545C93.4391 15.3042 93.4052 15.271 93.3549 15.271H90.5333C90.4995 15.271 90.4831 15.2543 90.4831 15.2207V13.119C90.4831 13.0853 90.4995 13.0687 90.5333 13.0687H92.9604C93.0107 13.0687 93.044 13.0355 93.044 12.9851V12.7018C93.044 12.6516 93.0107 12.6183 92.9604 12.6183H90.5333C90.4995 12.6183 90.4831 12.6017 90.4831 12.568V10.5497C90.4831 10.5162 90.4995 10.4995 90.5333 10.4995H93.3549C93.4052 10.4995 93.4391 10.4662 93.4391 10.4161V10.1326C93.4391 10.0825 93.4052 10.0491 93.3549 10.0491ZM101.466 12.8267C101.625 12.3346 102.012 12.0759 102.533 12.0759C103.062 12.0759 103.448 12.3346 103.607 12.8267C103.658 12.9851 103.683 13.1607 103.683 13.4022C103.683 13.4359 103.666 13.4526 103.633 13.4526H101.441C101.407 13.4526 101.39 13.4359 101.39 13.4022C101.39 13.1607 101.415 12.9851 101.466 12.8267ZM104.044 15.1376C104.077 15.0958 104.077 15.0541 104.036 15.0206L103.843 14.8454C103.801 14.8122 103.759 14.8207 103.725 14.8619C103.49 15.1542 103.128 15.3712 102.608 15.3712C102.062 15.3712 101.659 15.1206 101.474 14.5953C101.415 14.4116 101.39 14.2283 101.39 13.8944C101.39 13.8612 101.407 13.836 101.441 13.836H104.053C104.111 13.836 104.145 13.8028 104.145 13.7529C104.145 13.2021 104.111 12.9435 104.027 12.6933C103.809 12.0261 103.255 11.6588 102.533 11.6588C101.81 11.6588 101.265 12.0261 101.046 12.6933C100.971 12.9354 100.928 13.2272 100.928 13.7277C100.928 14.2366 100.971 14.5117 101.046 14.7538C101.273 15.4377 101.802 15.8048 102.583 15.8048C103.246 15.8048 103.75 15.5296 104.044 15.1376ZM141.25 11.6588C140.687 11.6588 140.267 11.9093 140.066 12.3013H140.058V11.8258C140.058 11.7761 140.024 11.7424 139.973 11.7424H139.688C139.638 11.7424 139.604 11.7761 139.604 11.8258V15.6379C139.604 15.6881 139.638 15.7214 139.688 15.7214H139.973C140.024 15.7214 140.058 15.6881 140.058 15.6379V13.2021C140.058 12.5097 140.536 12.093 141.149 12.093C141.846 12.093 142.199 12.4931 142.199 13.2856V15.6379C142.199 15.6881 142.233 15.7214 142.283 15.7214H142.569C142.619 15.7214 142.652 15.6881 142.652 15.6379V13.1772C142.652 12.2097 142.14 11.6588 141.25 11.6588ZM99.2495 13.2856V15.6379C99.2495 15.6881 99.2831 15.7214 99.3334 15.7214H99.619C99.6693 15.7214 99.7029 15.6881 99.7029 15.6379V13.1772C99.7029 12.2097 99.1907 11.6588 98.3006 11.6588C97.7378 11.6588 97.318 11.9093 97.1164 12.3013H97.1081V11.8258C97.1081 11.7761 97.0743 11.7424 97.024 11.7424H96.7386C96.6881 11.7424 96.6545 11.7761 96.6545 11.8258V15.6379C96.6545 15.6881 96.6881 15.7214 96.7386 15.7214H97.024C97.0743 15.7214 97.1081 15.6881 97.1081 15.6379V13.2021C97.1081 12.5097 97.5867 12.093 98.1998 12.093C98.8967 12.093 99.2495 12.4931 99.2495 13.2856Z" fill="#176FC1"/>
</g>
<defs>
<clipPath id="clip0_1781_8247">
<rect width="147" height="32" fill="white"/>
</clipPath>
</defs>
</svg>
