<svg width="100" height="50" viewBox="0 0 100 50" fill="none" xmlns="http://www.w3.org/2000/svg">
<path d="M16.6809 36.7364L16.6823 39.5929L16.741 40.7083C16.741 40.7503 16.6837 41.3073 16.4616 41.3073C16.3931 41.3073 16.3721 41.1407 16.3721 41.1268V38.623L16.4224 36.598C16.3805 36.3796 16.2757 36.1193 16.2226 35.8955L16.5048 35.1494C16.6794 35.337 16.85 35.5918 16.85 35.7891C16.85 36.0452 16.6809 36.5573 16.6809 36.7364ZM18.2153 41.2388L18.1356 35.2881C18.0922 34.9801 18.1035 34.6428 17.9707 34.367C17.8213 34.0564 17.7359 33.9907 17.7359 33.7471C17.7359 33.7219 17.7331 33.6435 17.7472 33.4741C17.7598 33.3034 17.8267 33.0012 17.8267 32.9733C17.8267 32.9326 17.8016 32.9451 17.8016 32.9451C17.7318 32.99 17.6269 33.0333 17.5528 33.0333C17.2999 33.0333 17.3083 32.7352 17.3083 32.6037C17.3083 32.5799 17.3181 32.5253 17.3083 32.3559L17.3963 31.6591C17.3978 31.4673 17.3978 31.4043 17.3978 31.3764C17.3978 31.2923 17.3489 30.9999 17.272 30.934C17.1252 30.8053 16.9115 30.7326 16.7535 30.671C16.6684 30.6416 15.6567 30.3784 15.4987 30.3784C15.4694 30.3784 15.4694 30.3897 15.4554 30.4037V30.5786C15.4554 30.7423 15.292 30.8194 15.1758 30.8194C15.1047 30.8194 14.6184 30.7969 14.5499 30.7969C14.4283 31.2267 14.4702 31.3469 14.0985 31.3469C14.0747 31.3469 13.8553 31.3274 13.8302 31.3274C13.805 31.3274 13.7994 31.3358 13.7812 31.3358L13.0322 44.5529C12.996 45.0217 12.9707 45.3113 12.9707 46.7683L12.9735 48.1678C12.9735 48.6604 13.1566 49.223 13.8441 49.223C13.9169 49.223 14.079 49.1879 14.1544 49.1825C13.7017 48.8004 13.5506 48.6197 13.5506 48.256L13.5493 46.5891L14.3081 33.3231V32.3769C14.3081 32.0132 14.4604 32.0005 14.6923 31.5653C14.751 31.8031 15.1298 31.666 15.106 31.9641L14.9452 32.8444L14.9075 34.3923V45.6403L15.0557 48.4252C15.0557 48.4477 15.0543 48.4659 15.0445 48.4826C14.7274 48.1733 14.4158 47.8262 14.378 47.5254L14.3388 45.9299C14.3263 45.8123 14.3165 45.1321 14.1278 45.1321C13.9559 45.1321 13.9323 45.706 13.9197 45.881C13.9043 46.0712 13.8651 47.5589 13.8889 48.0866C13.893 48.165 13.9112 48.2475 13.9154 48.316C13.9405 48.8045 14.5512 48.9011 14.8544 49.0046C14.9452 49.0046 14.9565 49.0159 14.9816 49.0159C15.0068 49.0159 15.2066 48.9851 15.3254 48.9641C15.3156 48.8842 15.3045 48.7752 15.3045 48.7499C15.3045 48.7178 15.303 48.4546 15.4498 48.4546C15.707 48.4546 15.7991 48.7261 16.0633 48.7261C16.1149 48.7261 16.3121 48.6827 16.3121 48.5512C16.3121 48.5261 16.2016 48.2125 16.2016 48.1873C16.2016 48.0041 16.5622 47.8683 16.6809 47.8683C16.9143 47.8683 16.9464 48.4113 16.9605 48.5344L17.4481 48.5261C17.9889 48.5541 18.3551 48.2363 18.3551 47.745V47.2091L18.3048 46.5094L18.2153 41.2388Z" fill="#F7921D"/>
<path d="M13.6406 30.7537C13.6406 30.909 13.7132 31.0769 13.9356 31.0769C14.0346 31.0769 14.18 31.0545 14.18 30.9034C14.18 30.776 14.0949 30.5002 13.881 30.5002C13.7078 30.5002 13.6406 30.6094 13.6406 30.7537Z" fill="#F7921D"/>
<path d="M29.007 17.2357C29.007 17.279 29.0028 17.3295 28.9847 17.37C28.6953 17.1378 28.4689 16.9264 28.4689 16.6857C28.4689 16.3889 28.5794 16.1721 28.5794 15.7928C28.5794 15.6206 28.5235 14.6493 28.1895 14.6493C28.0721 14.6493 28.0707 14.7935 28.0707 14.8845L28.17 16.3259V17.2846L28.1295 18.1817C27.991 18.9193 27.8918 19.6638 27.7479 20.3972C27.6332 20.9765 27.4377 21.5854 27.1861 22.1718C27.1428 22.2738 27.1428 22.3929 27.133 22.495L27.1233 22.7344C27.0715 22.9989 27.0255 23.3151 26.8229 23.5768C26.7041 23.7295 26.5489 23.8777 26.4092 24.0009C26.3016 24.096 26.1352 24.1632 26.0711 24.2864C25.9536 24.5145 25.8502 24.8323 25.6574 25.0743C25.4016 25.3892 24.5241 26.3577 24.4123 26.3577C24.3997 26.3577 24.1943 26.3591 24.1943 26.2681C24.1943 26.2429 24.2892 26.0722 24.3284 25.9728C24.3857 25.8273 24.3605 25.6286 24.4626 25.5166C25.3093 24.5901 25.6797 23.7603 26.1576 22.8799C26.2681 22.6756 26.4915 22.6083 26.6187 22.4614C26.6985 22.3704 26.6747 22.3384 26.6747 22.2418C26.6747 22.1633 26.6146 21.9744 26.6146 21.9409C26.6146 21.861 27.0994 20.6043 27.249 20.0626C27.3077 19.8486 27.7604 16.9753 27.7604 16.505V14.9209C27.7604 14.2994 27.094 11.2695 27.094 11.2652C27.094 11.2289 27.1176 11.1855 27.1638 11.1855C27.882 11.1855 27.9253 12.9362 27.9533 13.0064C27.9799 13.0721 28.1 13.1309 28.1559 13.1C28.2285 13.019 28.2188 12.9308 28.2188 12.858L28.1601 12.2045C28.1601 12.1904 28.1726 12.0644 28.23 12.0644C28.6464 12.0644 28.8672 13.8012 28.8672 13.8991V14.0713L28.9483 14.8201L29.007 16.1972V17.2357ZM28.3083 22.8574C28.2257 22.9415 28.1167 23.0114 28.0736 23.0996C27.9449 23.3656 27.8737 23.6706 27.6599 23.9267C27.2043 24.4768 26.6677 25.0505 26.127 25.616L26.117 25.6061C26.3169 24.9105 26.7082 24.1758 27.1414 23.5209C27.2028 23.4299 27.4251 23.4704 27.5075 23.3558C27.6501 23.1472 27.9128 22.2249 28.2006 22.2249C28.3529 22.2249 28.4689 22.3901 28.4689 22.5048C28.4689 22.607 28.395 22.7721 28.3083 22.8574ZM31.356 13.6179C31.2219 13.1476 31.0541 12.6761 30.8571 12.2099C30.2787 10.8497 29.3969 9.44586 28.2272 8.09542C26.1367 5.67989 23.7541 3.90947 21.5377 2.52529C21.4105 2.44688 19.9015 1.49394 19.6332 1.49394C19.608 1.49394 19.4486 1.51345 19.4249 1.51345C19.3634 1.51345 18.3391 1.00117 17.7871 0.847334C17.6697 0.815078 17.4461 0.805319 17.4209 0.805319C17.2003 0.805319 17.0423 0.994221 16.8284 0.994221C16.6496 0.994221 16.5001 0.858417 16.282 0.750732C16.2584 0.890672 16.2569 1.13697 16.0599 1.19437L15.7818 1.15385C15.6002 1.13416 15.5625 1.37914 15.5625 1.46863C15.5625 1.50651 15.5651 1.62395 15.6533 1.62395H15.8488C16.0152 1.62395 16.0501 1.76538 16.0501 1.87869C16.0501 1.90118 16.0306 2.02988 16.0068 2.12499L16.6719 2.01317C17.6851 2.46789 18.7401 2.97323 19.7322 3.67988C20.5861 4.28727 21.4358 5.13121 22.2631 5.97234C22.8764 6.59645 23.5151 7.27944 24.0517 7.89809C25.104 9.11139 25.4966 10.3598 26.0054 11.5871C26.1031 11.4318 26.1968 11.2834 26.1968 11.1506C26.1968 10.9994 25.9675 10.6411 25.9675 10.4969C25.9675 10.4215 26.018 10.3976 26.1017 10.3976C26.1576 10.3976 26.2568 10.4215 26.2834 10.4914C26.7221 11.6488 26.8563 12.8314 27.0073 13.9818C27.0366 14.2197 27.0827 14.6633 27.0827 14.6885V15.5968L27.0632 16.505C26.9024 18.5386 26.6831 20.5959 25.656 22.6C25.2577 23.3781 24.7099 24.1437 24.0517 24.9036C23.8659 25.1219 23.455 25.5348 23.455 25.5599C23.455 25.5838 23.7247 25.6132 23.7247 25.7642C23.7247 25.9239 23.1952 26.4725 23.1098 26.5466C22.917 26.7173 22.664 26.7971 22.4726 26.9329C22.4516 26.9455 22.4488 26.9734 22.4488 26.9972C22.4488 27.0225 22.4783 27.1176 22.4783 27.1415C22.4783 27.1707 22.4321 27.2745 22.386 27.2927C22.0925 27.4101 21.5042 27.5851 21.4818 27.5851C21.4707 27.5851 21.4651 27.5836 21.4623 27.5795C21.461 27.3611 21.4511 27.3373 21.461 27.3206L21.4469 27.3065C21.0081 27.5836 19.8623 28.2638 19.2838 28.2638C19.0029 28.2638 18.5877 27.977 18.1029 27.977H17.9785C17.9549 27.977 17.9842 27.9545 17.959 27.9545C17.9521 27.9545 17.7438 28.0287 17.7438 28.0582C17.7438 28.5536 18.6941 29.1903 19.042 29.1441C19.3215 29.1049 19.1776 29.1329 19.4347 29.1329C19.4514 29.1329 19.7197 29.4143 19.9531 29.508C20.343 29.6634 20.7944 29.7151 21.1927 29.7613C21.3407 29.781 21.4582 29.781 21.4818 29.781C21.5169 29.781 21.651 29.7529 21.6901 29.7347L21.6998 29.7446C21.6663 29.8356 21.5587 29.9447 21.4944 30.0398L22.5286 30.1713C22.6879 30.1798 22.773 30.1826 22.7969 30.1826C22.8764 30.1826 22.9967 30.1882 23.0762 30.1336L23.0862 30.1447C23.0582 30.2456 22.9575 30.3548 22.9575 30.3897V30.4317H23.8519C24.035 30.4317 25.308 30.2287 25.4742 30.1252C25.5484 30.0819 25.5958 29.9853 25.663 29.953C26.8829 29.3289 28.2942 27.9881 29.3466 26.7342C29.6218 26.4039 29.9055 26.0807 30.1025 25.7432C31.384 23.5475 31.6523 21.3194 31.848 19.132L31.8968 17.4441C31.8968 17.4343 31.9178 17.4287 31.9178 17.4036V16.7767C31.9178 16.1567 31.4133 13.8194 31.356 13.6179Z" fill="#F7921D"/>
<path d="M3.40405 26.2093C2.86744 26.2093 2.62991 25.4186 2.54042 25.0855C2.50138 25.0714 2.43853 25.0504 2.4119 25.0504C2.38262 25.0504 2.35185 25.0547 2.34771 25.1163L2.58657 25.8705C2.58525 25.8762 2.57962 25.8818 2.574 25.8874C2.49444 25.8538 2.38824 25.7852 2.34771 25.7055C1.92558 24.8868 1.73552 24.0288 1.5749 23.192C1.47847 22.6825 1.4295 22.1745 1.37922 21.6664L1.34994 20.7581V19.8708L1.39047 19.2229C1.52875 18.7723 1.5931 18.3216 1.73982 17.8696C1.89911 18.2054 2.09744 18.6057 2.09744 18.9515L1.99687 21.1025L1.99836 21.7574C1.99836 22.9639 2.5391 24.6293 3.29785 25.6942C3.39429 25.83 3.55639 25.935 3.66953 26.0035C3.62074 26.1435 3.50611 26.2093 3.40405 26.2093ZM1.92988 25.6985C1.03417 24.863 0.836993 23.9981 0.722526 23.1472L0.733609 23.1359C0.841293 23.1961 0.950301 23.2648 1.04525 23.3276C1.09421 23.3599 1.1794 23.3753 1.19611 23.4368C1.33042 23.8861 1.4477 24.3494 1.58599 24.814C1.66571 25.0827 1.93815 25.6103 1.93815 25.6844C1.93815 25.6957 1.93402 25.697 1.92988 25.6985ZM0.672075 20.8099C0.672075 20.5384 0.828722 19.8093 1.01167 19.6414C1.02143 21.3754 1.0383 21.3964 1.03417 21.4034C1.03135 21.4062 1.02424 21.4075 1.01316 21.5475L1.15012 22.5398C1.15012 22.5538 1.14582 22.558 1.14036 22.5621C0.887278 22.3494 0.672075 21.7043 0.672075 21.4062V20.8099ZM11.2575 29.0643C12.7808 28.9257 14.3584 28.009 15.8761 27.1806C16.08 27.0714 16.3175 26.9021 16.5189 26.7216V26.5984C16.5189 26.534 16.4783 26.3185 16.34 26.3185C16.3149 26.3185 16.1793 26.3731 16.0982 26.3941C15.802 26.4738 15.38 26.3898 15.162 26.7719C14.9971 27.0602 14.6518 27.1666 14.413 27.2435C13.4963 27.5361 12.5516 27.6955 11.6446 27.8145L10.9823 27.8452L10.1913 27.8047C9.11809 27.6955 8.0338 27.3975 6.97582 26.9398C6.55104 26.758 6.10806 26.5689 5.69171 26.2862C5.2054 25.9574 4.93147 25.4451 4.78343 25.0575C4.46203 24.2066 4.38362 23.3529 4.29562 22.5244C4.27462 22.3158 4.2412 21.9296 4.2412 21.9044V19.9016C4.2412 17.955 5.25287 14.7991 6.38199 13.0776C7.11146 11.9664 7.86045 10.7908 9.04134 9.69921C10.1579 8.66769 11.3275 7.77198 12.4705 6.91696C12.5139 6.97849 12.5418 7.16326 12.648 7.16326C12.8017 7.16326 12.8717 6.889 12.8717 6.82317C12.8717 6.60631 12.6424 6.64403 12.6424 6.48457C12.6424 6.40897 12.7124 6.2955 12.8157 6.2955C12.9764 6.2955 12.866 6.51384 13.1805 6.51384C13.3886 6.51384 13.6527 6.41873 13.8582 6.26341C13.6345 6.15986 12.5251 5.71622 12.1519 5.71622H11.5371C11.5133 5.71622 11.3848 5.73442 11.3135 5.74417C11.1724 5.38589 11.0088 5.35645 10.753 5.35645C10.0614 5.35645 9.00495 5.7498 8.38316 5.97228C7.97922 6.11784 6.91164 6.57819 6.91164 6.79372C6.91164 6.81903 7.03041 7.12273 7.03041 7.14787C7.03041 7.1927 6.51332 7.59995 6.38612 7.70069C5.8649 8.12051 5.28645 8.67332 4.79865 9.18279C3.62768 10.4004 2.61602 11.657 1.90887 12.8872C0.761564 14.8858 0.208256 16.925 0.0446617 18.9205L0 19.7798V21.5279L0.0544211 22.0961C0.122902 23.8358 0.786707 25.606 2.52934 27.3121C4.19638 28.9467 6.01874 29.9447 7.77808 30.3056C7.74582 30.2666 7.27075 29.8901 7.27075 29.7669C7.27075 29.7066 7.39101 29.6828 7.43981 29.6828C7.63135 29.6828 8.25728 29.9529 8.32444 29.967C8.73797 30.0538 9.16986 30.0621 9.57232 30.1111L10.0461 30.1336C9.97758 29.9614 9.86162 29.7179 9.86162 29.5626C9.86162 29.2448 11.224 29.07 11.2575 29.0643Z" fill="#F7921D"/>
<path d="M6.72358 6.96465C6.72358 6.93521 6.71101 6.91701 6.68454 6.89038L5.16406 7.87426C5.22841 7.89527 5.33742 7.93166 5.40176 7.93166C5.5819 7.93166 6.72358 7.49646 6.72358 6.96465Z" fill="#F7921D"/>
<path d="M13.6895 17.1293C13.6895 17.321 13.8516 17.4246 14.0332 17.4246C14.0932 17.4246 14.2274 17.4077 14.2274 17.2805C14.2274 17.2467 14.1407 16.7849 13.9521 16.7849C13.818 16.7849 13.6895 17.0565 13.6895 17.1293Z" fill="#F7921D"/>
<path d="M13.4777 18.4925C13.4554 18.4925 13.3423 18.4728 13.2766 18.4518C12.8321 18.9738 12.6184 19.5392 12.582 20.0584C12.5723 20.2181 12.5723 20.2445 12.5723 20.2683C12.5723 20.2935 12.5764 20.4503 12.5918 20.5805C12.6449 20.9808 12.779 21.374 13.0599 21.7827L12.9201 22.2025C13.2387 22.6111 13.6776 22.9737 14.0564 23.0101C14.1988 23.024 14.1779 23.1093 14.1779 23.1892C14.1779 23.2213 14.1988 23.5027 14.0577 23.5027C13.6245 23.5027 13.0152 22.9442 12.8503 22.9442H12.779C12.7916 23.0058 12.7818 23.0786 12.7818 23.1039C12.7818 23.5475 13.0948 23.567 13.5155 23.7546C13.8048 23.882 14.1192 24.015 14.3903 24.2346C14.2868 24.5565 14.7843 24.8448 15.0344 24.8308C15.1742 24.8223 15.2358 24.8448 15.4033 24.8308C16.13 24.7678 16.9 24.5914 17.6266 24.3718L18.4861 24.3507C18.4148 24.138 18.2024 23.9043 17.9816 23.8497C18.1353 23.8007 18.3072 23.7966 18.4302 23.6664C19.122 22.933 19.4909 22.0849 19.5789 21.3181L19.5691 20.0487C19.5299 19.8065 19.379 19.1376 19.379 19.0956C19.379 19.0466 19.5691 18.8898 19.5691 18.6519C19.5691 18.6253 19.5565 18.3034 19.4391 18.3034C19.2575 18.3034 19.5496 18.7316 19.0758 18.7316C18.8983 18.7316 18.7111 18.6422 18.7111 18.4028C18.7111 18.2447 18.7978 18.053 19.0212 18.053C19.0437 18.053 19.1876 18.0824 19.2742 18.1032C19.3511 17.9997 19.4098 17.8556 19.4098 17.7534C19.4098 17.5478 18.9514 17.6709 18.9514 17.4932C18.9514 17.4302 19.0995 17.2426 19.1805 17.2006V17.1572L18.7334 17.0747C18.5923 17.0649 18.5267 17.0649 18.5028 17.0649C17.7595 17.0649 17.9411 17.7031 17.0761 17.7031C16.8666 17.7031 16.6499 17.6149 16.6499 17.3448C16.6499 17.3195 16.6792 17.23 16.6792 17.2049C16.6792 17.1685 16.6596 17.1726 16.654 17.1754C16.5675 17.195 16.478 17.2188 16.3983 17.2244C16.26 17.237 16.2013 17.2342 16.0517 17.2244L15.6159 17.1642C15.4159 17.566 14.9729 17.6247 14.6599 17.6247C14.5245 17.6247 14.4783 17.6331 14.305 17.5701C14.326 18.0333 13.8732 18.4925 13.4777 18.4925Z" fill="#F7921D"/>
<path d="M48.7024 21.9197H46.1997C46.1997 21.1471 46.0376 20.523 45.7119 20.0443C45.3305 19.4888 44.77 19.2116 44.0308 19.2116C42.9353 19.2116 42.1499 19.8469 41.672 21.115C41.3422 21.9897 41.1746 23.0869 41.1746 24.4067C41.1746 28.5199 42.4197 30.5771 44.9098 30.5771C45.9802 30.5771 47.0619 30.1461 48.1574 29.2854V31.1229C47.203 31.7038 46.0027 31.9934 44.5563 31.9934C42.5944 31.9934 41.12 31.2502 40.1335 29.764C39.3006 28.5017 38.8828 26.8333 38.8828 24.7607C38.8828 22.8083 39.2699 21.2521 40.0483 20.0919C40.965 18.7205 42.3497 18.0347 44.2028 18.0347C45.5149 18.0347 46.577 18.3509 47.3847 18.9822C48.2636 19.6706 48.7024 20.6504 48.7024 21.9197Z" fill="#141414"/>
<path d="M55.7294 27.1135C55.7294 24.4095 55.0727 23.0576 53.7535 23.0576C52.4483 23.0576 51.7944 24.4095 51.7944 27.1135C51.7944 29.8187 52.4483 31.1706 53.7535 31.1706C55.0727 31.1706 55.7294 29.8187 55.7294 27.1135ZM57.8801 27.1135C57.8801 30.3673 56.505 31.9935 53.7535 31.9935C51.0146 31.9935 49.6465 30.3673 49.6465 27.1135C49.6465 23.861 51.0146 22.2346 53.7535 22.2346C56.505 22.2346 57.8801 23.861 57.8801 27.1135Z" fill="#141414"/>
<path d="M67.7616 31.7739H65.7856V25.9379C65.7856 24.4445 65.3972 23.6985 64.6229 23.6985C63.8026 23.6985 63.1543 24.2221 62.6791 25.2675C62.3033 26.0904 62.1173 26.9749 62.1173 27.9181V31.7739H60.1387V22.446H62.1173V24.6642H62.1551C62.8971 23.045 63.9898 22.2346 65.4251 22.2346C66.1698 22.2346 66.7541 22.5062 67.1802 23.0478C67.5672 23.546 67.7616 24.18 67.7616 24.9525V31.7739Z" fill="#141414"/>
<path d="M75.7686 23.469H73.2282V28.8362C73.2282 29.5443 73.2895 30.0257 73.4098 30.2804C73.5998 30.6751 74.0079 30.8737 74.6325 30.8737C74.9903 30.8737 75.2976 30.8193 75.559 30.7115V31.8494C75.2083 31.9458 74.75 31.9934 74.1826 31.9934C73.2407 31.9934 72.5405 31.8366 72.0822 31.5246C71.5275 31.1482 71.2508 30.5128 71.2508 29.6212V23.469H69.7598V22.4459H71.2508V20.2544L73.2282 19.0591V22.4459H75.7686V23.469Z" fill="#141414"/>
<path d="M79.5918 31.7738H77.616V22.446H79.5918V31.7738ZM79.6673 20.2165H77.5391V18.2544H79.6673V20.2165Z" fill="#141414"/>
<path d="M84.6889 18.2544H82.7129V31.7738H84.6889V18.2544Z" fill="#141414"/>
<path d="M89.7743 31.7738H87.7955V22.446H89.7743V31.7738ZM89.8498 20.2165H87.7188V18.2544H89.8498V20.2165Z" fill="#141414"/>
<path d="M97.3805 28.5018V27.4016C95.3418 27.5346 94.3244 28.1882 94.3244 29.3625C94.3244 29.7374 94.4195 30.058 94.6109 30.3197C94.8204 30.6122 95.1041 30.7592 95.4591 30.7592C95.7079 30.7592 95.9567 30.692 96.204 30.5591C96.9879 30.1447 97.3805 29.4576 97.3805 28.5018ZM99.3566 31.7739H97.3805V30.482H97.3428C96.7559 31.4884 95.8797 31.9935 94.7142 31.9935C94.0268 31.9935 93.4371 31.7795 92.948 31.3525C92.4324 30.9048 92.1738 30.3407 92.1738 29.6592C92.1738 27.7768 93.9093 26.7509 97.3805 26.5789V25.7559C97.3805 24.9848 97.3261 24.4166 97.2171 24.0527C97.0256 23.3894 96.6441 23.0576 96.0711 23.0576C95.5053 23.0576 95.1041 23.269 94.8666 23.6888C94.7032 23.9897 94.5998 24.4586 94.5606 25.0953H92.4896C92.6238 23.1877 93.8157 22.2346 96.0711 22.2346C97.3121 22.2346 98.1826 22.5216 98.6802 23.0954C99.1301 23.6257 99.3566 24.5117 99.3566 25.7559V31.7739Z" fill="#141414"/>
</svg>
