<svg width="150" height="34" viewBox="0 0 150 34" fill="none" xmlns="http://www.w3.org/2000/svg">
<g clip-path="url(#clip0_1914_7359)">
<path d="M41.97 23.198V20.4824C42.4747 20.8379 42.849 21.0625 43.179 21.2296C43.5052 21.3929 43.8375 21.4625 44.166 21.4625C45.3262 21.4625 45.9435 20.8311 45.9435 19.6491V10.3966H49.0095V19.7822C49.0095 21.2447 48.618 22.2981 47.8357 22.9402C47.0542 23.583 46.089 23.9036 44.9415 23.9036C43.9575 23.9036 42.966 23.6684 41.97 23.198ZM50.8553 17.0151C50.8553 12.2774 52.9883 10.1266 56.5545 10.1266C60.4987 10.1266 62.3482 12.3908 62.3482 17.0151C62.3482 21.9631 60.1785 23.9036 56.6302 23.9036C52.875 23.9036 50.8553 21.7347 50.8553 17.0151ZM59.1615 17.0151C59.1615 13.8987 58.3312 12.6139 56.5537 12.6139C54.8737 12.6139 54.0233 13.9569 54.0233 17.0151C54.0233 20.0741 54.9697 21.4164 56.67 21.4164C58.3312 21.4164 59.1615 20.1512 59.1615 17.0151ZM64.2008 10.3913H67.2397V15.7537H71.3152V10.3913H74.373V23.6397H71.3152V18.3756H67.2397V23.6397H64.2008V10.3913ZM87.093 23.6389L83.0347 10.3913H79.8082L75.6322 23.6389H78.42L79.1542 21.0753H83.31L84.0547 23.6389H87.093ZM82.6222 18.7106H79.8315L81.216 13.8722L82.6222 18.7106ZM111.051 10.3913V23.6397H108.544L103.937 15.5753V23.6397H100.897V10.3913H103.72L108.013 18.2765V10.3913H111.051ZM98.505 10.3913V23.6397H96L91.392 15.5753V23.6397H88.3522V10.3913H91.1752L95.4667 18.2765V10.3913H98.505ZM113.447 10.3913H116.484V23.6397H113.447V10.3913ZM121.444 12.7167H117.995V10.3913H128.011V12.7167H124.502V23.6389H121.444V12.7167ZM146.865 18.3673C147.674 18.1033 148.348 17.6753 148.818 16.9425C149.29 16.2082 149.497 15.4422 149.497 14.5823C149.497 13.1939 149.083 12.1488 148.258 11.4478C147.43 10.7468 146.264 10.3913 144.757 10.3913H139.492V23.6389H142.512V18.7673H143.845L146.336 23.6397H149.97L146.865 18.3673ZM144.576 16.3663H142.512V12.7182H144.713C145.168 12.7182 145.661 12.8385 145.973 13.1531C146.262 13.4427 146.407 13.9418 146.407 14.4976C146.407 15.6932 145.796 16.3663 144.576 16.3663ZM129.485 23.6397H137.215V21.3113H132.523V18.179H136.447V15.8309H132.523V12.7182H137.215V10.3913H129.485V23.6397ZM33.72 17C33.72 26.3886 26.1712 34 16.86 34C7.54875 34 0 26.3886 0 17C0 7.61143 7.54875 0 16.86 0C26.1712 0 33.72 7.61143 33.72 17ZM16.86 17L3.23025 11.6527L8.36325 17L3.23025 22.348L16.86 17ZM16.86 17L30.4897 22.348L25.3567 17L30.4897 11.6527L16.86 17ZM16.86 17L11.5567 30.7437L16.86 25.5673L22.1632 30.7437L16.86 17ZM16.86 17L22.1632 3.25707L16.86 8.4327L11.5567 3.25707L16.86 17Z" fill="#D82E42"/>
</g>
<defs>
<clipPath id="clip0_1914_7359">
<rect width="150" height="34" fill="white"/>
</clipPath>
</defs>
</svg>
