<svg width="134" height="36" viewBox="0 0 134 36" fill="none" xmlns="http://www.w3.org/2000/svg">
<g clip-path="url(#clip0_1741_8201)">
<path d="M20.4781 10.2447C20.3472 10.7073 19.9327 11.0319 19.0854 11.4908C18.9327 11.7892 18.5145 12.0056 18.0927 12.222C17.7436 12.4011 17.3909 12.5839 17.3909 12.6025V12.9495H17.0527C16.8781 12.9495 16.6308 13.0651 16.3799 13.2218C15.9072 13.5165 15.4527 13.9381 15.3181 14.0761L13.1145 16.6578L13.0999 16.6727C12.0454 17.7621 11.409 18.982 11.0381 20.2541C10.6636 21.5412 10.5545 22.888 10.5545 24.2161C10.5545 24.9473 11.1981 26.0442 12.3036 26.906C13.1872 27.5961 14.3618 28.1184 15.7327 28.1707C16.2418 28.1707 17.169 28.1707 18.2018 28.1856C19.0963 28.1968 19.9472 28.2229 20.329 28.2677C20.4199 28.2453 20.529 28.2154 20.6527 28.1856C21.1981 28.0401 21.9945 27.8349 22.5399 27.8349C23.4927 27.8349 24.4636 27.4581 25.3799 27.1074C25.889 26.9097 26.3799 26.7194 26.8563 26.5963C27.5072 26.3986 28.8454 25.8837 29.8163 25.3615C30.3763 25.0593 30.7908 24.7944 30.7908 24.6787V24.3318H31.129C31.2309 24.3318 31.3763 24.2534 31.5145 24.1527C31.7218 24.0035 31.8963 23.8878 31.8963 23.8878V23.7423L32.0018 23.6379C32.1036 23.5371 32.2381 23.414 32.3836 23.2835C32.8018 22.9029 33.3181 22.4329 33.4527 22.071L33.4963 21.9889C34.2454 20.9518 34.0308 18.7246 33.9072 17.4412L33.8781 17.1502C33.8454 16.7846 33.7218 16.363 33.5908 15.9042C33.4236 15.3184 33.2381 14.6842 33.1836 13.9978C33.1254 13.4009 32.5981 12.0019 32.1399 10.7782C31.9727 10.3305 31.8127 9.90149 31.6999 9.58439L31.6963 9.57693C31.6527 9.43889 31.1727 8.84198 30.6927 8.35326C30.3872 8.03988 30.1108 7.7862 30.0381 7.7862H29.6999V7.42059C29.6999 7.40194 29.4745 7.36836 29.1872 7.2639C28.7254 7.09975 28.1508 6.97291 27.8236 6.97291H27.4854V6.62595C27.4854 6.61476 26.6381 6.63715 26.289 6.63715H25.9509V6.29019C25.9509 6.16335 25.8127 5.95443 25.6781 5.74551C25.4854 5.44706 25.2927 5.1486 25.2927 4.81657C25.2927 4.31666 25.4672 3.77944 25.6418 3.24222C25.7981 2.76469 25.9545 2.28344 25.9545 1.88798V1.54103H26.2927C26.6381 1.54103 26.9618 1.44403 27.3145 1.33957C28.0527 1.11946 28.8999 0.862045 30.3363 1.21273L30.5981 1.27615V1.55222C30.5981 1.73502 30.9108 2.07825 31.2127 2.41028C31.4999 2.72739 31.7799 3.03703 31.8963 3.33922L31.8999 3.34668C32.2709 4.38754 33.4963 5.62986 34.5218 6.67072L34.9109 7.06244C35.1836 7.34225 35.3763 7.67055 35.5763 8.01004C35.849 8.47264 36.1363 8.96136 36.6418 9.27847C36.7181 9.27101 36.7945 9.29339 36.8818 9.34935L36.8854 9.35308C37.0418 9.46127 37.0563 9.6105 37.0745 9.83061C37.1036 10.1925 37.1727 11.0058 37.9727 11.0058H38.3145V11.3527C38.3145 11.3677 38.3472 11.4087 38.3727 11.4423C38.4599 11.5467 38.529 11.64 38.529 11.8116C38.529 11.8489 38.5218 11.89 38.5145 11.9459C38.5072 12.0056 38.4963 12.0877 38.4963 12.1735C38.4963 12.263 38.5181 12.3637 38.6345 12.3637H38.9727V12.7107C38.9727 13.5352 39.3909 14.3746 39.809 15.2103C40.2672 16.1243 40.7218 17.0383 40.7218 18.0269C40.7218 18.3888 40.8127 18.8066 40.9036 19.2357C41.1181 20.243 41.3472 21.3099 40.6636 22.2799C40.2999 22.8395 39.8672 23.6118 39.5618 24.3691C39.3363 24.9287 39.1836 25.4771 39.1836 25.9136V26.2605H38.8454C38.7909 26.2605 38.689 26.3016 38.5945 26.3501C38.5581 26.3687 38.5254 26.1636 38.5254 26.2531V26.6H38.1872C38.0818 26.6 38.0818 26.7828 38.0818 26.8276V27.1746H37.7436C37.6599 27.1746 37.4745 27.335 37.2818 27.5327C37.0054 27.8162 36.7618 28.1184 36.7618 28.1819C36.7618 29.0138 34.929 30.0808 33.6199 30.8418C33.329 31.0097 33.0672 31.1627 32.8818 31.2783C32.4381 31.6141 30.1836 32.5617 30.1763 32.5654L30.0454 32.5915C29.8599 32.5915 29.329 32.7855 28.8563 33.0019C28.489 33.1698 28.1727 33.2183 28.1727 33.2556V33.6025H27.8345C27.3618 33.6025 26.6418 33.7891 25.9581 33.9681C25.4599 34.0987 24.9799 34.2218 24.5836 34.2778C23.7981 34.4084 22.2454 34.58 20.7836 34.6322C19.7836 34.6658 18.8199 34.6434 18.1581 34.5128C17.9181 34.5651 17.6781 34.5613 17.4345 34.5166C17.2127 34.4755 16.9945 34.3972 16.7763 34.2964C16.1181 34.3673 15.1836 34.1957 14.5327 34.0763L14.3581 34.0465L14.3363 34.0428C13.6745 33.8749 12.8599 33.5205 12.1145 33.1175C11.3108 32.6848 10.5836 32.1923 10.2163 31.8193L10.209 31.8118C9.31449 30.8344 8.31085 29.6331 7.52539 28.3833C6.72176 27.1037 6.15085 25.7718 6.15085 24.5631C6.15085 24.2311 6.03449 23.7685 5.90721 23.2685C5.64539 22.2239 5.35085 21.0525 5.86358 20.2392C5.78721 19.9594 5.83812 19.5975 5.88176 19.2804C5.89994 19.1387 5.91812 19.0081 5.91812 18.9223C5.91812 18.4597 6.0963 18.0045 6.27449 17.5494C6.42721 17.1577 6.57994 16.766 6.57994 16.4339L6.58358 16.3742C6.8163 15.02 7.55812 13.621 8.52176 12.2742C9.47449 10.9461 10.6418 9.66646 11.7472 8.53233C12.1618 8.10704 13.0527 7.4094 13.8454 6.7901C14.3472 6.39838 14.809 6.0365 15.0708 5.8052L15.1654 5.7194H15.289C15.4018 5.7194 16.4127 4.98818 16.4163 4.98818L16.5036 4.92476H16.609C16.7545 4.92476 16.889 4.96207 17.0236 4.99564C17.1108 5.01803 17.2018 5.04414 17.2672 5.04414H17.6054V5.3911C17.6054 5.53286 17.8781 6.01412 18.2599 6.40584C18.4999 6.64834 18.769 6.8386 19.0163 6.8386H19.3581V7.18556C19.3581 7.29748 19.569 7.62578 19.7472 7.90185C19.8708 8.09211 19.9799 8.26372 20.0381 8.40176C20.4127 9.25982 20.6199 9.756 20.4781 10.2447Z" fill="#0069B4"/>
<path d="M27.5423 10.532C27.7023 10.7223 27.8587 10.9125 27.9242 11.1476C28.1351 11.2819 28.226 11.4162 28.3096 11.5318C28.3751 11.6251 28.426 11.696 28.9351 11.696H29.2733V12.0429C29.2733 12.4906 29.4805 13.0502 29.6878 13.6135C29.9169 14.2366 30.1496 14.8596 30.1496 15.4304V18.2284L30.0551 18.2806C30.1096 18.3739 30.1496 18.4709 30.1496 18.5791V18.926H29.8114C29.6405 18.926 29.4042 19.135 29.2187 19.2954C29.0951 19.4036 28.986 19.5006 28.8733 19.5565C28.6369 19.7244 28.4551 19.937 28.2696 20.1534C27.9714 20.5041 27.666 20.8623 27.106 21.1532L26.6114 21.4107V20.8436C26.6114 20.7802 26.4769 20.7727 26.3387 20.7541L26.1751 20.8436C25.6805 21.1197 24.9496 21.5226 24.3278 21.53C23.6624 21.6159 23.0405 21.4144 22.5133 21.1048C21.7133 20.631 21.1169 19.8811 20.946 19.5491C20.1751 18.4709 19.9751 17.2659 20.1642 16.0758C20.3787 14.7402 21.0951 13.4345 22.066 12.3712C22.3024 12.0802 23.0114 11.737 23.7751 11.3677C24.7096 10.9163 25.7351 10.4201 25.7351 10.2447V9.81197L26.4769 9.97985L27.2914 9.56201V10.1253C27.2914 10.2335 27.4187 10.3828 27.5423 10.532Z" fill="#0069B4"/>
<path d="M46.4219 9.9314H49.2037V18.5157H53.5091V20.631H46.4219V9.9314Z" fill="black"/>
<path d="M59.3125 15.8782C59.3125 14.9605 58.8944 14.2069 57.818 14.2069C56.8435 14.2069 56.3816 14.9568 56.3198 15.8782H59.3125ZM56.3489 17.4414C56.498 18.5457 57.3198 18.9747 58.6362 18.9747C59.3707 18.9747 60.2071 18.8068 61.0144 18.3629V20.3103C60.1489 20.6647 59.1598 20.8177 58.1598 20.8177C55.5889 20.8177 53.6289 19.2694 53.6289 16.6318C53.6289 13.9943 55.378 12.4609 57.7998 12.4609C60.6871 12.4609 61.7344 14.5613 61.7344 16.9378V17.4414H56.3489Z" fill="black"/>
<path d="M66.8167 14.5761C65.8312 14.5761 65.1731 15.464 65.1731 16.6616C65.1731 17.8256 65.9221 18.6985 66.8167 18.6985C67.8349 18.6985 68.4458 17.8256 68.4458 16.5534C68.4458 15.4939 67.864 14.5761 66.8167 14.5761ZM62.4821 9.13306H65.1876V13.6696H65.2167C65.904 12.7817 66.8167 12.4571 67.8931 12.4571C70.0458 12.4571 71.2276 14.5575 71.2276 16.49C71.2276 18.8515 69.9876 20.8138 67.6676 20.8138C66.4276 20.8138 65.3331 20.0938 64.9912 19.2059H64.9621V20.631H62.4785V9.13306H62.4821Z" fill="black"/>
<path d="M77.5411 15.878C77.5411 14.9603 77.1229 14.2067 76.0465 14.2067C75.0756 14.2067 74.6102 14.9565 74.552 15.878H77.5411ZM74.5811 17.4412C74.7302 18.5454 75.552 18.9745 76.8683 18.9745C77.5992 18.9745 78.4392 18.8066 79.2465 18.3626V20.3101C78.3811 20.6645 77.392 20.8174 76.3883 20.8174C73.8174 20.8174 71.8574 19.2692 71.8574 16.6316C71.8574 13.994 73.6065 12.4607 76.032 12.4607C78.9156 12.4607 79.9629 14.5611 79.9629 16.9375V17.4412H74.5811Z" fill="black"/>
<path d="M80.7695 12.6437H83.2204V14.1174H83.2495C83.7877 12.9683 84.8641 12.4609 86.0932 12.4609C88.2168 12.4609 89.0677 13.9942 89.0677 15.6469V20.6274H86.3768V16.7699C86.3768 15.2664 85.8677 14.7628 85.1368 14.7628C84.0314 14.7628 83.4604 15.5462 83.4604 17.2623V20.6349H80.7695V12.6437Z" fill="black"/>
<path d="M90.2988 18.4223C90.9279 18.6983 91.8552 18.9744 92.8261 18.9744C93.3788 18.9744 93.917 18.8811 93.917 18.3327C93.917 16.9822 90.0879 17.9335 90.0879 15.0535C90.0879 13.2142 91.8515 12.4644 93.4079 12.4644C94.3352 12.4644 95.277 12.5725 96.1461 12.9232L95.9352 14.8408C95.3679 14.4901 94.5133 14.3036 93.8406 14.3036C93.2588 14.3036 92.6006 14.4118 92.6006 14.8557C92.6006 16.098 96.6079 15.1169 96.6079 18.1499C96.6079 20.2801 94.7388 20.8174 92.9752 20.8174C91.7642 20.8174 90.9388 20.6942 90.1461 20.4331L90.2988 18.4223Z" fill="black"/>
<path d="M97.625 9.13306H100.316V13.8225H100.345C100.93 12.9943 101.781 12.4571 102.945 12.4571C105.069 12.4571 105.923 13.9904 105.923 15.6468V20.6273H103.232V16.7698C103.232 15.2663 102.723 14.7627 101.992 14.7627C100.887 14.7627 100.316 15.5461 100.316 17.2622V20.6348H97.625V9.13306Z" fill="black"/>
<path d="M107.316 12.6436H110.007V20.631H107.316V12.6436ZM110.007 11.3416H107.316V9.31958H110.007V11.3416Z" fill="black"/>
<path d="M114.105 9.13306H111.414V20.631H114.105V9.13306Z" fill="black"/>
<path d="M116.441 14.5761H114.855V12.6436H116.485V12.1512C116.485 9.77475 117.575 8.94653 119.728 8.94653C120.314 8.94653 120.761 9.0398 121.103 9.09949L120.939 11.0021C120.714 10.9238 120.492 10.879 120.085 10.879C119.397 10.879 119.128 11.3715 119.128 12.1512V12.6436H121.045V14.5761H119.128V20.631H116.437V14.5761" fill="black"/>
<path d="M126.848 15.878C126.848 14.9603 126.43 14.2067 125.353 14.2067C124.382 14.2067 123.917 14.9565 123.859 15.878H126.848ZM123.888 17.4412C124.037 18.5454 124.859 18.9745 126.175 18.9745C126.906 18.9745 127.746 18.8066 128.553 18.3626V20.3101C127.684 20.6645 126.699 20.8174 125.695 20.8174C123.124 20.8174 121.164 19.2692 121.164 16.6316C121.164 13.994 122.913 12.4607 125.339 12.4607C128.226 12.4607 129.27 14.5611 129.27 16.9375V17.4412H123.888Z" fill="black"/>
<path d="M120.982 29.581V27.4955C120.982 27.0889 120.887 26.7904 120.698 26.6039C120.509 26.4174 120.225 26.3241 119.851 26.3241C119.636 26.3241 119.443 26.3689 119.269 26.4547C119.094 26.5405 118.96 26.6636 118.862 26.8203H118.84L118.763 26.3838H118.382V29.5773H118.854V27.9022C118.854 27.4881 118.931 27.1896 119.08 27.0068C119.232 26.8277 119.469 26.7345 119.796 26.7345C120.043 26.7345 120.222 26.7979 120.338 26.9247C120.454 27.0516 120.512 27.2493 120.512 27.5067V29.5735H120.982V29.581ZM117.411 29.581V27.4955C117.411 27.0889 117.316 26.7904 117.127 26.6039C116.938 26.4174 116.654 26.3241 116.28 26.3241C116.065 26.3241 115.872 26.3689 115.698 26.4547C115.523 26.5405 115.389 26.6636 115.291 26.8203H115.269L115.192 26.3838H114.811V29.5773H115.283V27.9022C115.283 27.4881 115.36 27.1896 115.509 27.0068C115.662 26.8277 115.898 26.7345 116.225 26.7345C116.472 26.7345 116.651 26.7979 116.767 26.9247C116.883 27.0516 116.942 27.2493 116.942 27.5067V29.5735H117.411V29.581ZM111.985 29.1035C111.883 29.0139 111.832 28.8796 111.832 28.7043C111.832 28.4804 111.916 28.3163 112.08 28.2118C112.243 28.1074 112.516 28.0477 112.891 28.0328L113.363 28.0104V28.2976C113.363 28.5961 113.28 28.8274 113.112 28.9915C112.945 29.1557 112.712 29.2378 112.422 29.2378C112.236 29.2415 112.091 29.193 111.985 29.1035ZM113.836 29.581V27.4023C113.836 27.0292 113.745 26.7569 113.567 26.589C113.389 26.4211 113.112 26.3353 112.742 26.3353C112.556 26.3353 112.374 26.3614 112.192 26.4062C112.011 26.4547 111.843 26.5218 111.687 26.6076L111.832 26.977C112.16 26.8128 112.454 26.7308 112.712 26.7308C112.945 26.7308 113.112 26.7904 113.218 26.9098C113.323 27.0292 113.374 27.2157 113.374 27.4657V27.6634L112.847 27.6821C111.84 27.7119 111.338 28.0514 111.338 28.6968C111.338 28.999 111.425 29.2303 111.6 29.3945C111.774 29.5586 112.018 29.6407 112.327 29.6407C112.56 29.6407 112.752 29.6034 112.905 29.5325C113.058 29.4616 113.214 29.3273 113.371 29.1259H113.392L113.487 29.581H113.836ZM110.6 29.581V27.4955C110.6 27.0889 110.512 26.7904 110.338 26.6039C110.163 26.4174 109.898 26.3241 109.549 26.3241C109.323 26.3241 109.123 26.3726 108.945 26.4696C108.771 26.5666 108.636 26.6972 108.542 26.8651H108.52C108.371 26.5032 108.051 26.3241 107.567 26.3241C107.367 26.3241 107.185 26.3689 107.022 26.4547C106.858 26.5405 106.734 26.6636 106.643 26.8203H106.622L106.545 26.3838H106.163V29.5773H106.636V27.9022C106.636 27.4881 106.705 27.1896 106.843 27.0106C106.982 26.8278 107.196 26.7382 107.494 26.7382C107.72 26.7382 107.887 26.8016 107.992 26.9285C108.098 27.0553 108.152 27.2456 108.152 27.503V29.581H108.625V27.7977C108.625 27.4396 108.694 27.171 108.836 26.9994C108.978 26.8278 109.192 26.7419 109.487 26.7419C109.709 26.7419 109.876 26.8054 109.982 26.9322C110.087 27.0591 110.142 27.2493 110.142 27.5067V29.5847H110.6V29.581ZM104.745 29.0848C104.658 28.9804 104.611 28.8349 104.611 28.6409V26.7606H105.516V26.3838H104.611V25.6451H104.338L104.138 26.3278L103.691 26.5293V26.7606H104.138V28.6595C104.138 29.3124 104.44 29.637 105.04 29.637C105.12 29.637 105.211 29.6295 105.309 29.6108C105.407 29.5959 105.483 29.5735 105.534 29.5474V29.1781C105.491 29.193 105.429 29.2042 105.349 29.2154C105.272 29.2266 105.192 29.234 105.109 29.234C104.956 29.2415 104.832 29.1893 104.745 29.0848ZM102.691 29.0848C102.603 28.9804 102.556 28.8349 102.556 28.6409V26.7606H103.458V26.3838H102.556V25.6451H102.283L102.083 26.3278L101.636 26.5293V26.7606H102.083V28.6595C102.083 29.3124 102.385 29.637 102.985 29.637C103.065 29.637 103.152 29.6295 103.254 29.6108C103.352 29.5959 103.429 29.5735 103.48 29.5474V29.1781C103.436 29.193 103.374 29.2042 103.294 29.2154C103.218 29.2266 103.138 29.234 103.054 29.234C102.902 29.2415 102.778 29.1893 102.691 29.0848ZM100.542 26.977C100.672 27.1374 100.742 27.3724 100.742 27.6783H99.1124C99.1379 27.3836 99.2252 27.1523 99.3742 26.9844C99.5233 26.8166 99.7233 26.7345 99.9706 26.7345C100.222 26.7345 100.411 26.8128 100.542 26.977ZM100.64 29.5922C100.789 29.5586 100.945 29.5064 101.112 29.4318V28.999C100.785 29.1445 100.454 29.2154 100.12 29.2154C99.7997 29.2154 99.5561 29.1184 99.3815 28.9244C99.207 28.7304 99.1124 28.4469 99.1052 28.0701H101.251V27.7642C101.251 27.3314 101.138 26.9844 100.909 26.7233C100.68 26.4621 100.374 26.3278 99.9815 26.3278C99.5633 26.3278 99.2324 26.4808 98.9851 26.783C98.7379 27.0852 98.6142 27.4955 98.6142 28.0104C98.6142 28.5215 98.7488 28.9207 99.0142 29.2079C99.2797 29.4952 99.6433 29.6407 100.105 29.6407C100.312 29.6407 100.491 29.622 100.64 29.5922ZM95.8324 29.581L97.2542 25.8093H97.2761C97.2506 26.1786 97.2361 26.5218 97.2361 26.8352V29.581H97.7197V25.3206H96.9997L95.6724 28.8349H95.6506L94.3342 25.3206H93.607V29.581H94.0542V26.8688C94.0542 26.4584 94.0397 26.1003 94.0142 25.8018H94.0361L95.447 29.5773H95.8324V29.581ZM89.3342 26.8651C89.4542 26.7419 89.6252 26.6823 89.847 26.6823C90.3124 26.6823 90.5452 26.921 90.5452 27.4023C90.5452 27.8611 90.3161 28.0887 89.8542 28.0887C89.6361 28.0887 89.4615 28.0328 89.3415 27.9171C89.2179 27.8015 89.1561 27.6336 89.1561 27.4097C89.1561 27.1672 89.2142 26.9882 89.3342 26.8651ZM89.0797 29.6668C89.1997 29.5623 89.367 29.5101 89.5815 29.5101H90.1488C90.4361 29.5101 90.6324 29.5437 90.7379 29.6108C90.8433 29.678 90.8942 29.7974 90.8942 29.969C90.8942 30.1779 90.7997 30.3421 90.607 30.4614C90.4179 30.5846 90.1233 30.6442 89.727 30.6442C89.4615 30.6442 89.2579 30.5995 89.1161 30.5099C88.9742 30.4204 88.9015 30.2898 88.9015 30.1145C88.9015 29.9205 88.9597 29.7713 89.0797 29.6668ZM90.3052 26.3875C90.1742 26.3502 90.0288 26.3278 89.8652 26.3278C89.4906 26.3278 89.1997 26.4211 88.9961 26.6114C88.7924 26.8016 88.6906 27.0702 88.6906 27.4209C88.6906 27.6298 88.7415 27.8164 88.8433 27.9805C88.9452 28.1447 89.0761 28.2603 89.2361 28.3275C89.1052 28.4096 89.0106 28.4916 88.9488 28.5812C88.887 28.6707 88.8579 28.7714 88.8579 28.8871C88.8579 28.9915 88.8833 29.0811 88.9379 29.1594C88.9924 29.2378 89.0579 29.2937 89.1379 29.331C88.9197 29.3833 88.7488 29.4765 88.6252 29.6183C88.5052 29.7601 88.4433 29.9279 88.4433 30.1219C88.4433 30.4055 88.5524 30.6256 88.7742 30.7823C88.9961 30.939 89.3088 31.0136 89.7161 31.0136C90.247 31.0136 90.6506 30.9203 90.927 30.7338C91.2033 30.5472 91.3415 30.2786 91.3415 29.9242C91.3415 29.6444 91.2506 29.4355 91.0688 29.29C90.887 29.1445 90.6288 29.0736 90.2906 29.0736H89.7379C89.567 29.0736 89.447 29.0512 89.3779 29.0102C89.3088 28.9692 89.2724 28.902 89.2724 28.8162C89.2724 28.6521 89.3742 28.514 89.5742 28.4058C89.6542 28.4208 89.7415 28.4282 89.8361 28.4282C90.1997 28.4282 90.487 28.3349 90.6942 28.1484C90.9015 27.9619 91.007 27.7119 91.007 27.3985C91.007 27.2605 90.9852 27.1374 90.9452 27.0255C90.9015 26.9173 90.8579 26.8277 90.8033 26.7606L91.3815 26.6897V26.3838H90.3052V26.3875ZM87.8652 29.581V27.4955C87.8652 27.0889 87.7706 26.7904 87.5815 26.6039C87.3924 26.4174 87.1088 26.3241 86.7342 26.3241C86.5197 26.3241 86.327 26.3689 86.1524 26.4547C85.9779 26.5405 85.8433 26.6636 85.7452 26.8203H85.7233L85.647 26.3838H85.2652V29.5773H85.7379V27.9022C85.7379 27.4881 85.8142 27.1896 85.9633 27.0068C86.1161 26.8277 86.3524 26.7345 86.6797 26.7345C86.927 26.7345 87.1052 26.7979 87.2215 26.9247C87.3379 27.0516 87.3961 27.2493 87.3961 27.5067V29.5735H87.8652V29.581ZM81.6579 26.3875V28.4767C81.6579 28.8834 81.7524 29.1781 81.9415 29.3646C82.1306 29.5511 82.4142 29.6407 82.7924 29.6407C83.0106 29.6407 83.207 29.5996 83.3779 29.5138C83.5488 29.4318 83.6833 29.3087 83.7815 29.152H83.807L83.8761 29.581H84.2652V26.3875H83.7924V28.0663C83.7924 28.4804 83.7161 28.7789 83.567 28.9617C83.4179 29.1445 83.1779 29.234 82.8506 29.234C82.6033 29.234 82.4252 29.1706 82.3088 29.0438C82.1924 28.9169 82.1342 28.7192 82.1342 28.4618V26.3875H81.6579ZM79.007 26.8651C79.127 26.7419 79.2979 26.6823 79.5197 26.6823C79.9851 26.6823 80.2179 26.921 80.2179 27.4023C80.2179 27.8611 79.9888 28.0887 79.527 28.0887C79.3088 28.0887 79.1342 28.0328 79.0142 27.9171C78.8906 27.8015 78.8288 27.6336 78.8288 27.4097C78.8252 27.1672 78.887 26.9882 79.007 26.8651ZM78.7488 29.6668C78.8688 29.5623 79.0361 29.5101 79.2506 29.5101H79.8142C80.1015 29.5101 80.2979 29.5437 80.4033 29.6108C80.5088 29.678 80.5597 29.7974 80.5597 29.969C80.5597 30.1779 80.4652 30.3421 80.2724 30.4614C80.0833 30.5846 79.7888 30.6442 79.3924 30.6442C79.127 30.6442 78.9233 30.5995 78.7815 30.5099C78.6397 30.4204 78.567 30.2898 78.567 30.1145C78.5706 29.9205 78.6288 29.7713 78.7488 29.6668ZM79.9779 26.3875C79.847 26.3502 79.7015 26.3278 79.5379 26.3278C79.1633 26.3278 78.8724 26.4211 78.6688 26.6114C78.4652 26.8016 78.3633 27.0702 78.3633 27.4209C78.3633 27.6298 78.4142 27.8164 78.5161 27.9805C78.6179 28.1447 78.7488 28.2603 78.9088 28.3275C78.7779 28.4096 78.6833 28.4916 78.6215 28.5812C78.5597 28.6707 78.5306 28.7714 78.5306 28.8871C78.5306 28.9915 78.5561 29.0811 78.6106 29.1594C78.6651 29.2378 78.7306 29.2937 78.8106 29.331C78.5924 29.3833 78.4215 29.4765 78.2979 29.6183C78.1779 29.7601 78.1161 29.9279 78.1161 30.1219C78.1161 30.4055 78.2252 30.6256 78.447 30.7823C78.6688 30.939 78.9815 31.0136 79.3888 31.0136C79.9197 31.0136 80.3233 30.9203 80.5997 30.7338C80.8761 30.5472 81.0142 30.2786 81.0142 29.9242C81.0142 29.6444 80.9233 29.4355 80.7415 29.29C80.5597 29.1445 80.3015 29.0736 79.9633 29.0736H79.4106C79.2397 29.0736 79.1197 29.0512 79.0506 29.0102C78.9815 28.9692 78.9452 28.902 78.9452 28.8162C78.9452 28.6521 79.047 28.514 79.247 28.4058C79.327 28.4208 79.4142 28.4282 79.5088 28.4282C79.8724 28.4282 80.1597 28.3349 80.367 28.1484C80.5742 27.9619 80.6797 27.7119 80.6797 27.3985C80.6797 27.2605 80.6579 27.1374 80.6179 27.0255C80.5779 26.9173 80.5306 26.8277 80.4761 26.7606L81.0542 26.6897V26.3838H79.9779V26.3875ZM77.0724 25.7645C77.127 25.8167 77.1924 25.8466 77.2724 25.8466C77.3488 25.8466 77.4142 25.8205 77.4688 25.7645C77.5233 25.7123 77.5524 25.6302 77.5524 25.522C77.5524 25.4138 77.527 25.3317 77.4688 25.2795C77.4142 25.2273 77.3488 25.2012 77.2724 25.2012C77.1924 25.2012 77.127 25.2273 77.0724 25.2795C77.0179 25.3317 76.9924 25.4138 76.9924 25.522C76.9924 25.6302 77.0215 25.7123 77.0724 25.7645ZM77.5052 26.3875H77.0324V29.581H77.5052V26.3875ZM76.0652 29.581V27.4955C76.0652 27.0889 75.9706 26.7904 75.7815 26.6039C75.5924 26.4174 75.3088 26.3241 74.9342 26.3241C74.7197 26.3241 74.527 26.3689 74.3524 26.4547C74.1779 26.5405 74.0433 26.6636 73.9452 26.8203H73.9233L73.847 26.3838H73.4652V29.5773H73.9379V27.9022C73.9379 27.4881 74.0142 27.1896 74.1633 27.0068C74.3161 26.8277 74.5524 26.7345 74.8797 26.7345C75.127 26.7345 75.3052 26.7979 75.4215 26.9247C75.5379 27.0516 75.5961 27.2493 75.5961 27.5067V29.5735H76.0652V29.581ZM72.0324 25.7645C72.0833 25.8167 72.1524 25.8466 72.2324 25.8466C72.3088 25.8466 72.3742 25.8205 72.4288 25.7645C72.4833 25.7123 72.5124 25.6302 72.5124 25.522C72.5124 25.4138 72.4833 25.3317 72.4288 25.2795C72.3742 25.2273 72.3088 25.2012 72.2324 25.2012C72.1524 25.2012 72.087 25.2273 72.0324 25.2795C71.9779 25.3317 71.9524 25.4138 71.9524 25.522C71.9524 25.6302 71.9779 25.7123 72.0324 25.7645ZM72.4615 26.3875H71.9888V29.581H72.4615V26.3875ZM70.4833 26.977C70.6142 27.1374 70.6833 27.3724 70.6833 27.6783H69.0542C69.0797 27.3836 69.167 27.1523 69.3161 26.9844C69.4652 26.8166 69.6652 26.7345 69.9124 26.7345C70.1597 26.7345 70.3488 26.8128 70.4833 26.977ZM70.5815 29.5922C70.7306 29.5586 70.887 29.5064 71.0542 29.4318V28.999C70.727 29.1445 70.3961 29.2154 70.0615 29.2154C69.7415 29.2154 69.4979 29.1184 69.3197 28.9244C69.1452 28.7304 69.0506 28.4469 69.0433 28.0701H71.1888V27.7642C71.1888 27.3314 71.0761 26.9844 70.847 26.7233C70.6179 26.4621 70.3124 26.3278 69.9197 26.3278C69.5015 26.3278 69.1706 26.4808 68.9233 26.783C68.6761 27.0852 68.5524 27.4955 68.5524 28.0104C68.5524 28.5215 68.687 28.9207 68.9524 29.2079C69.2179 29.4952 69.5815 29.6407 70.0433 29.6407C70.2542 29.6407 70.4324 29.622 70.5815 29.5922ZM67.2361 26.4957C67.0724 26.6076 66.9342 26.7681 66.8179 26.977H66.7961L66.7415 26.3838H66.3524V29.5773H66.8252V27.8649C66.8252 27.5515 66.9161 27.2904 67.0942 27.0814C67.2724 26.8725 67.487 26.7681 67.7415 26.7681C67.8397 26.7681 67.9524 26.783 68.0833 26.8128L68.1488 26.3651C68.0397 26.3428 67.9161 26.3316 67.7779 26.3316C67.5779 26.3278 67.3997 26.3838 67.2361 26.4957ZM64.8433 26.977C64.9742 27.1374 65.0433 27.3724 65.0433 27.6783H63.4142C63.4397 27.3836 63.527 27.1523 63.6761 26.9844C63.8252 26.8166 64.0252 26.7345 64.2724 26.7345C64.5197 26.7345 64.7124 26.8128 64.8433 26.977ZM64.9415 29.5922C65.0906 29.5586 65.247 29.5064 65.4142 29.4318V28.999C65.087 29.1445 64.7561 29.2154 64.4215 29.2154C64.1015 29.2154 63.8579 29.1184 63.6797 28.9244C63.5052 28.7304 63.4106 28.4469 63.4033 28.0701H65.5488V27.7642C65.5488 27.3314 65.4361 26.9844 65.207 26.7233C64.9779 26.4621 64.6724 26.3278 64.2797 26.3278C63.8615 26.3278 63.5306 26.4808 63.2833 26.783C63.0361 27.0852 62.9124 27.4955 62.9124 28.0104C62.9124 28.5215 63.047 28.9207 63.3124 29.2079C63.5779 29.4952 63.9415 29.6407 64.4033 29.6407C64.6142 29.6407 64.7924 29.622 64.9415 29.5922ZM61.407 29.581L62.5888 26.3875H62.0833C61.6979 27.4769 61.447 28.182 61.3379 28.5066C61.2288 28.8311 61.1597 29.0438 61.1415 29.1445H61.1197C61.0942 29.0139 61.0033 28.7267 60.8542 28.2827L60.1852 26.3875H59.6797L60.8615 29.581H61.407ZM59.2106 28.182C59.0797 28.0402 58.8324 27.9022 58.4615 27.7642C58.1924 27.6597 58.0106 27.5813 57.9161 27.5291C57.8215 27.4732 57.7524 27.4172 57.7088 27.3575C57.6652 27.2978 57.6433 27.2232 57.6433 27.1374C57.6433 27.0106 57.7015 26.9136 57.8142 26.8389C57.927 26.7681 58.0979 26.7308 58.3197 26.7308C58.5742 26.7308 58.8579 26.7979 59.1706 26.9285L59.3379 26.5368C59.0179 26.395 58.6906 26.3278 58.3561 26.3278C57.9961 26.3278 57.7124 26.4025 57.5052 26.5554C57.2979 26.7046 57.1961 26.9098 57.1961 27.171C57.1961 27.3165 57.2252 27.4433 57.287 27.5478C57.3452 27.6522 57.4361 27.7455 57.5597 27.8276C57.6833 27.9096 57.887 28.0066 58.1779 28.1186C58.4833 28.2379 58.687 28.3424 58.7924 28.4319C58.8979 28.5215 58.9488 28.6259 58.9488 28.7491C58.9488 28.9132 58.8833 29.0363 58.7488 29.1184C58.6142 29.2005 58.4252 29.2378 58.1815 29.2378C58.0215 29.2378 57.8579 29.2154 57.687 29.1706C57.5161 29.1259 57.3561 29.0662 57.207 28.9878V29.4355C57.4361 29.5698 57.7597 29.637 58.1742 29.637C58.5633 29.637 58.8688 29.5549 59.0833 29.3945C59.2979 29.234 59.407 29.0027 59.407 28.708C59.407 28.4991 59.3415 28.32 59.2106 28.182ZM55.967 25.7645C56.0215 25.8167 56.087 25.8466 56.167 25.8466C56.2433 25.8466 56.3088 25.8205 56.3633 25.7645C56.4179 25.7123 56.447 25.6302 56.447 25.522C56.447 25.4138 56.4215 25.3317 56.3633 25.2795C56.3088 25.2273 56.2433 25.2012 56.167 25.2012C56.087 25.2012 56.0215 25.2273 55.967 25.2795C55.9124 25.3317 55.887 25.4138 55.887 25.522C55.887 25.6302 55.9124 25.7123 55.967 25.7645ZM56.3961 26.3875H55.9233V29.581H56.3961V26.3875ZM54.4179 26.977C54.5488 27.1374 54.6179 27.3724 54.6179 27.6783H52.9888C53.0142 27.3836 53.1015 27.1523 53.2506 26.9844C53.3997 26.8166 53.5997 26.7345 53.847 26.7345C54.0942 26.7345 54.2833 26.8128 54.4179 26.977ZM54.5161 29.5922C54.6652 29.5586 54.8215 29.5064 54.9888 29.4318V28.999C54.6615 29.1445 54.3306 29.2154 53.9961 29.2154C53.6761 29.2154 53.4324 29.1184 53.2542 28.9244C53.0797 28.7304 52.9852 28.4469 52.9779 28.0701H55.1233V27.7642C55.1233 27.3314 55.0106 26.9844 54.7815 26.7233C54.5524 26.4621 54.247 26.3278 53.8542 26.3278C53.4361 26.3278 53.1052 26.4808 52.8579 26.783C52.6106 27.0852 52.487 27.4955 52.487 28.0104C52.487 28.5215 52.6215 28.9207 52.887 29.2079C53.1524 29.4952 53.5161 29.6407 53.9779 29.6407C54.1888 29.6407 54.367 29.622 54.5161 29.5922ZM51.1706 26.4957C51.007 26.6076 50.8688 26.7681 50.7524 26.977H50.7306L50.6761 26.3838H50.287V29.5773H50.7597V27.8649C50.7597 27.5515 50.8506 27.2904 51.0288 27.0814C51.207 26.8725 51.4215 26.7681 51.6761 26.7681C51.7742 26.7681 51.887 26.783 52.0179 26.8128L52.0833 26.3651C51.9742 26.3428 51.8506 26.3316 51.7124 26.3316C51.5124 26.3278 51.3342 26.3838 51.1706 26.4957ZM48.0542 27.171L49.7233 25.3206H49.1524L47.2688 27.4321V25.3206H46.7852V29.581H47.2688V27.9096L47.7052 27.5142L49.2179 29.581H49.7852L48.0542 27.171Z" fill="black"/>
</g>
<defs>
<clipPath id="clip0_1741_8201">
<rect width="134" height="36" fill="white"/>
</clipPath>
</defs>
</svg>
