<svg width="38" height="48" viewBox="0 0 38 48" fill="none" xmlns="http://www.w3.org/2000/svg">
<path d="M35.5847 10.2195C34.1946 7.47864 32.1377 5.13119 29.6031 3.393C27.0686 1.65482 24.1378 0.581678 21.0801 0.272239C19.6969 0.133456 18.3033 0.133456 16.9201 0.272239C13.8625 0.581881 10.9317 1.65499 8.39713 3.39297C5.86251 5.13095 3.80533 7.47805 2.4146 10.2186C0.664848 13.7154 -0.0110079 17.6518 0.472156 21.532C0.955319 25.4122 2.57589 29.0626 5.12976 32.0236L17.5834 47.1647C17.7554 47.3739 17.9716 47.5424 18.2165 47.6581C18.4614 47.7738 18.7288 47.8338 18.9997 47.8338C19.2705 47.8338 19.538 47.7738 19.7828 47.6581C20.0277 47.5424 20.2439 47.3739 20.4159 47.1647L32.8696 32.0236C35.4234 29.0628 37.044 25.4125 37.5271 21.5325C38.0103 17.6524 37.3345 13.7162 35.5847 10.2195ZM18.9997 25.8333C17.5493 25.8333 16.1314 25.4032 14.9255 24.5974C13.7195 23.7916 12.7796 22.6463 12.2245 21.3063C11.6695 19.9663 11.5243 18.4918 11.8072 17.0693C12.0902 15.6468 12.7886 14.3401 13.8142 13.3145C14.8398 12.2889 16.1465 11.5905 17.569 11.3075C18.9915 11.0246 20.466 11.1698 21.806 11.7249C23.146 12.2799 24.2913 13.2198 25.0971 14.4258C25.9029 15.6318 26.333 17.0496 26.333 18.5C26.3307 20.4442 25.5574 22.3081 24.1826 23.6829C22.8078 25.0577 20.9439 25.831 18.9997 25.8333V25.8333Z" fill="#121212"/>
</svg>
