<svg width="70" height="70" viewBox="0 0 70 70" fill="none" xmlns="http://www.w3.org/2000/svg">
<path d="M35.0001 67.3077C52.8431 67.3077 67.3078 52.8431 67.3078 35C67.3078 17.157 52.8431 2.69232 35.0001 2.69232C17.157 2.69232 2.69238 17.157 2.69238 35C2.69238 52.8431 17.157 67.3077 35.0001 67.3077Z" stroke="#141414" stroke-width="1.28" stroke-linecap="round" stroke-linejoin="round"/>
<path d="M35 2.69232V67.3077" stroke="#141414" stroke-width="1.28" stroke-linecap="round" stroke-linejoin="round"/>
<path d="M11.502 12.8369L35.582 35.5492" stroke="#141414" stroke-width="1.28" stroke-linecap="round" stroke-linejoin="round"/>
<path d="M35.0003 52.6185C44.7307 52.6185 52.6188 44.7304 52.6188 35C52.6188 25.2696 44.7307 17.3815 35.0003 17.3815C25.2699 17.3815 17.3818 25.2696 17.3818 35C17.3818 44.7304 25.2699 52.6185 35.0003 52.6185Z" fill="#141414" stroke="#141414" stroke-width="1.28" stroke-linecap="round" stroke-linejoin="round"/>
</svg>
