<svg width="70" height="70" viewBox="0 0 70 70" fill="none" xmlns="http://www.w3.org/2000/svg">
<g clip-path="url(#clip0_2026_9345)">
<path d="M33.4064 68.923C51.2613 68.923 65.7356 54.4488 65.7356 36.5938C65.7356 18.7389 51.2613 4.26459 33.4064 4.26459C15.5514 4.26459 1.07715 18.7389 1.07715 36.5938C1.07715 54.4488 15.5514 68.923 33.4064 68.923Z" stroke="#141414" stroke-width="1.28" stroke-linecap="round" stroke-linejoin="round"/>
<path d="M33.406 58.66C45.5928 58.66 55.4722 48.7807 55.4722 36.5939C55.4722 24.4071 45.5928 14.5277 33.406 14.5277C21.2192 14.5277 11.3398 24.4071 11.3398 36.5939C11.3398 48.7807 21.2192 58.66 33.406 58.66Z" stroke="#141414" stroke-width="1.28" stroke-linecap="round" stroke-linejoin="round"/>
<path d="M33.4066 47.2339C39.2829 47.2339 44.0466 42.4702 44.0466 36.5939C44.0466 30.7175 39.2829 25.9539 33.4066 25.9539C27.5303 25.9539 22.7666 30.7175 22.7666 36.5939C22.7666 42.4702 27.5303 47.2339 33.4066 47.2339Z" fill="#141414" stroke="#141414" stroke-width="1.28" stroke-linecap="round" stroke-linejoin="round"/>
<path d="M33.4062 36.5938L56.797 13.2031" stroke="#141414" stroke-width="1.28" stroke-linecap="round" stroke-linejoin="round"/>
<path d="M56.7969 13.2031L68.923 11.2215L58.7784 1.0769L56.7969 13.2031Z" fill="#141414" stroke="#141414" stroke-width="1.28" stroke-linecap="round" stroke-linejoin="round"/>
</g>
<defs>
<clipPath id="clip0_2026_9345">
<rect width="70" height="70" fill="white"/>
</clipPath>
</defs>
</svg>
