<svg width="70" height="70" viewBox="0 0 70 70" fill="none" xmlns="http://www.w3.org/2000/svg">
<path d="M12.8257 50.3354C7.87186 51.6923 4.8457 53.48 4.8457 55.4508C4.8457 59.6185 18.3503 62.9892 34.9996 62.9892C51.6488 62.9892 65.1534 59.6077 65.1534 55.4508C65.1534 53.48 62.1272 51.6815 57.1734 50.3354" stroke="#141414" stroke-width="1.28" stroke-linecap="round" stroke-linejoin="round"/>
<path d="M12.8257 40.1154C7.87186 41.4615 4.8457 43.2492 4.8457 45.2308C4.8457 49.3985 18.3503 52.7692 34.9996 52.7692C51.6488 52.7692 65.1534 49.3985 65.1534 45.2308C65.1534 43.2492 62.1272 41.4615 57.1734 40.1154" stroke="#141414" stroke-width="1.28" stroke-linecap="round" stroke-linejoin="round"/>
<path d="M12.8257 29.8846C7.87186 31.2308 4.8457 33.0292 4.8457 35C4.8457 39.1677 18.3503 42.5385 34.9996 42.5385C51.6488 42.5385 65.1534 39.1569 65.1534 35C65.1534 33.0292 62.1272 31.2308 57.1734 29.8846" stroke="#141414" stroke-width="1.28" stroke-linecap="round" stroke-linejoin="round"/>
<path d="M34.9995 22.0985C51.6531 22.0985 65.1534 18.7186 65.1534 14.5492C65.1534 10.3799 51.6531 7 34.9995 7C18.346 7 4.8457 10.3799 4.8457 14.5492C4.8457 18.7186 18.346 22.0985 34.9995 22.0985Z" fill="#141414" stroke="#141414" stroke-width="1.28" stroke-linecap="round" stroke-linejoin="round"/>
<path d="M12.8257 19.6646C7.87186 21 4.8457 22.7985 4.8457 24.7692C4.8457 28.9369 18.3503 32.3077 34.9996 32.3077C51.6488 32.3077 65.1534 28.9262 65.1534 24.7692C65.1534 22.7985 62.1272 21 57.1734 19.6646" stroke="#141414" stroke-width="1.28" stroke-linecap="round" stroke-linejoin="round"/>
</svg>
