<svg fill="#fff" class="svg-icon" xmlns="http://www.w3.org/2000/svg" xmlns:xlink="http://www.w3.org/1999/xlink"><defs><symbol viewBox="0 0 16 16" fill="none" id="arrow-diagonal_sprite">
<path d="M4 12L12 4M12 4H6.66667M12 4V9.33333" stroke="currentColor" stroke-linecap="round" stroke-linejoin="round" />
</symbol><symbol viewBox="0 0 10 7" fill="none" id="arrow-down_sprite">
<path d="M9.375 1.25L5 5.625L0.625 1.25" stroke="#0F0F10" stroke-linecap="round" stroke-linejoin="round" />
</symbol><symbol viewBox="0 0 32 32" fill="none" id="arrow-l_sprite">
<path d="M20 26L10 16L20 6" stroke="#141414" stroke-width="2" stroke-linecap="round" stroke-linejoin="round" />
</symbol><symbol viewBox="0 0 10 18" fill="none" id="arrow-r_sprite">
  <path d="M1 16.5L8.5 9L1 1.5" stroke="currentColor" stroke-width="2" stroke-linecap="round" stroke-linejoin="round" />
</symbol><symbol viewBox="0 0 18 20" fill="none" id="clip_sprite">
<path d="M17.7496 5.625C17.7496 6.96063 17.2296 8.21625 16.2852 9.16062L7.27899 18.2738C6.54649 19.0063 5.58461 19.3725 4.62336 19.3725C3.66336 19.3725 2.70336 19.0069 1.97274 18.2763C0.510863 16.8138 0.510863 14.435 1.97274 12.9731L8.47899 6.50375C9.45586 5.53313 11.0084 5.50125 11.9415 6.43313C12.3971 6.88875 12.6371 7.50375 12.6177 8.16562C12.5984 8.81312 12.3315 9.42688 11.8659 9.8925L5.69149 16.0669C5.44711 16.3113 5.05211 16.3113 4.80774 16.0669C4.56336 15.8225 4.56336 15.4275 4.80774 15.1831L10.9821 9.00875C11.2215 8.76937 11.359 8.45687 11.3684 8.12875C11.3777 7.815 11.2671 7.52625 11.0577 7.31687C10.6109 6.87187 9.84961 6.90375 9.36086 7.39L2.85524 13.8581C1.88211 14.8319 1.88211 16.4181 2.85649 17.3925C3.83149 18.3669 5.41711 18.3669 6.39211 17.3925L15.3984 8.27937C16.1096 7.56812 16.4996 6.62688 16.4996 5.625C16.4996 4.62312 16.1096 3.68187 15.4015 2.97375C14.6927 2.265 13.7515 1.875 12.7496 1.875C11.7477 1.875 10.8065 2.265 10.0977 2.97375L1.31524 11.6937C1.06961 11.9369 0.674613 11.9356 0.431488 11.69C0.188363 11.445 0.189613 11.05 0.434613 10.8063L9.21586 2.08813C10.1584 1.145 11.414 0.625 12.7496 0.625C14.0852 0.625 15.3409 1.145 16.2852 2.09C17.2296 3.03375 17.7496 4.28937 17.7496 5.625V5.625Z" fill="#141414" />
</symbol><symbol viewBox="0 0 38 48" fill="none" id="location_sprite">
<path d="M35.5847 10.2195C34.1946 7.47864 32.1377 5.13119 29.6031 3.393C27.0686 1.65482 24.1378 0.581678 21.0801 0.272239C19.6969 0.133456 18.3033 0.133456 16.9201 0.272239C13.8625 0.581881 10.9317 1.65499 8.39713 3.39297C5.86251 5.13095 3.80533 7.47805 2.4146 10.2186C0.664848 13.7154 -0.0110079 17.6518 0.472156 21.532C0.955319 25.4122 2.57589 29.0626 5.12976 32.0236L17.5834 47.1647C17.7554 47.3739 17.9716 47.5424 18.2165 47.6581C18.4614 47.7738 18.7288 47.8338 18.9997 47.8338C19.2705 47.8338 19.538 47.7738 19.7828 47.6581C20.0277 47.5424 20.2439 47.3739 20.4159 47.1647L32.8696 32.0236C35.4234 29.0628 37.044 25.4125 37.5271 21.5325C38.0103 17.6524 37.3345 13.7162 35.5847 10.2195ZM18.9997 25.8333C17.5493 25.8333 16.1314 25.4032 14.9255 24.5974C13.7195 23.7916 12.7796 22.6463 12.2245 21.3063C11.6695 19.9663 11.5243 18.4918 11.8072 17.0693C12.0902 15.6468 12.7886 14.3401 13.8142 13.3145C14.8398 12.2889 16.1465 11.5905 17.569 11.3075C18.9915 11.0246 20.466 11.1698 21.806 11.7249C23.146 12.2799 24.2913 13.2198 25.0971 14.4258C25.9029 15.6318 26.333 17.0496 26.333 18.5C26.3307 20.4442 25.5574 22.3081 24.1826 23.6829C22.8078 25.0577 20.9439 25.831 18.9997 25.8333V25.8333Z" fill="#121212" />
</symbol><symbol viewBox="0 0 20 20" fill="none" id="route_sprite">
<path d="M15.625 17.5C16.6605 17.5 17.5 16.6605 17.5 15.625C17.5 14.5895 16.6605 13.75 15.625 13.75C14.5895 13.75 13.75 14.5895 13.75 15.625C13.75 16.6605 14.5895 17.5 15.625 17.5Z" stroke="currentColor" stroke-width="1.5" stroke-linecap="round" stroke-linejoin="round" />
<path d="M5.625 4.375H13.125C13.788 4.375 14.4239 4.63839 14.8928 5.10723C15.3616 5.57607 15.625 6.21196 15.625 6.875C15.625 7.53804 15.3616 8.17393 14.8928 8.64277C14.4239 9.11161 13.788 9.375 13.125 9.375H5.625C4.7962 9.375 4.00134 9.70424 3.41529 10.2903C2.82924 10.8763 2.5 11.6712 2.5 12.5C2.5 13.3288 2.82924 14.1237 3.41529 14.7097C4.00134 15.2958 4.7962 15.625 5.625 15.625H13.75" stroke="currentColor" stroke-width="1.5" stroke-linecap="round" stroke-linejoin="round" />
</symbol><symbol fill-rule="evenodd" stroke-linejoin="round" stroke-miterlimit="2" viewBox="0 0 255 80" id="w_sprite">
  <path d="m175.864 35.1474c-6.379 0-11.347-4.7002-11.347-11.9029 0-7.2028 4.984-11.903 11.347-11.903s11.348 4.7083 11.348 11.903-4.993 11.9029-11.348 11.9029zm0 9.7614c13.472 0 23.393-9.1678 23.393-21.6563s-9.921-21.65631-23.393-21.65631c-13.471 0-23.392 9.15981-23.392 21.65631s9.921 21.6563 23.392 21.6563zm-36.986-.8021h13.837l-18.108-23.2123 17.2-18.448h-13.107l-16.3 17.2849v-17.30896h-11.786v41.65226h11.786v-10.4271l4.45-4.7082zm-58.0843-9.1357v-7.6198h18.7239v-8.823h-18.7239v-7.0182h21.2203v-9.08766h-33.014v41.65226h33.8v-9.1036z" fill="#009dd8" />
  <path clip-rule="evenodd" d="m5.03464 28.3255c-.00004-.3144.08339-.6234.24214-.8969l.05009-.0816 8.34923-13.2169c.6336-1.1343 1.546-2.097 2.6551-2.8015 1.109-.7045 2.3801-1.1287 3.6987-1.2345l2.63-.16307 2.6885-.16307h.1252c2.1633-.09949 4.2074-.99702 5.7193-2.5113l.6512-.7175 3.3397-3.74249c-3.4386-1.835239-7.2944-2.7969233-11.213-2.79666995-13.2336 0-23.97076024 10.76269995-23.97076024 24.04489995-.01073156 5.862 2.15127024 11.5299 6.08662024 15.9565l8.00694-9.7843.167-.1957v-.0571c.637-.7371 1.4308-1.3297 2.3263-1.7367.8954-.4069 1.8709-.6184 2.8586-.6196h.2171c1.1857.1617 2.3397.497 3.4232.9947 0 0 2.8304 1.2556 4.4752 1.2556 1.3706-.0066 2.7193-.3362 3.9316-.9608s2.2523-1.5257 3.0316-2.6267l.1086-.1549.0501-.0653 5.0513-7.3382.0501-.0652c.1582-.2227.369-.405.6147-.5313.2456-.1263.5187-.193.7963-.1944.2346.0032.4663.0515.6819.1422.2155.0906.4106.2218.5742.3861s.2925.3585.3792.5714c.0868.213.1297.4405.1264.6696-.001.3117-.0844.6178-.2421.8888l-.0501.0815-8.3493 13.2169c-.6358 1.1319-1.5489 2.0922-2.6577 2.7951s-2.3787 1.1264-3.6961 1.2328l-2.6216.1631-2.6885.163h-.1253c-2.1627.1019-4.2058.9991-5.7192 2.5113l-.6512.7257-3.3397 3.7343c3.4361 1.8339 7.2889 2.7956 11.2047 2.7967 13.2419 0 23.979-10.7627 23.979-24.0367.0128-5.8649-2.1493-11.5359-6.0866-15.96466l-8.0069 9.78426-.167.1957v.0571c-.637.7371-1.4308 1.3297-2.3263 1.7367-.8954.4069-1.8709.6184-2.8586.6196h-.1419c-1.1825-.1599-2.3336-.4925-3.4149-.9865 0 0-2.8387-1.2638-4.4835-1.2638-1.3709.0052-2.7202.3343-3.9327.9589-1.2125.6247-2.2523 1.5266-3.0306 2.6286-.039.0497-.0752.1014-.1085.155l-.0501.0652-5.05134 7.3382-.0501.0734c-.15823.2227-.36908.4049-.61469.5312s-.51875.193-.79633.1944c-.23426-.0021-.46578-.0494-.68126-.1392-.21548-.0897-.41068-.2202-.57438-.3838-.1637-.1637-.29268-.3573-.37953-.5698-.08684-.2124-.12984-.4396-.12653-.6683zm97.35636 47.1424-.9.888v1.644h-1.8722v-8.904h1.8722v5.04l2.736-2.592h2.232l-2.688 2.736 2.928 3.72h-2.268zm-31.4629.408 1.128-1.1759 2.688 3.2999h2.268l-3.684-4.656 3.48-3.744h-2.16l-3.72 3.924v-3.924h-1.932v8.4h1.932zm9.6896-4.1879c-.376.1599-.676.3959-.9.708v-.8521h-1.788v6.456h1.872v-3.0479c0-.6001.152-1.0481.456-1.3441.304-.304.724-.456 1.26-.456.072 0 .212.0081.42.024v-1.728c-.496 0-.936.08-1.32.2401zm5.302-.2401c1 0 1.768.2401 2.304.72.536.472.804 1.188.804 2.148v3.684h-1.752v-.804c-.352.6-1.008.9-1.968.9-.496 0-.928-.084-1.296-.252-.36-.168-.636-.4-.828-.696s-.288-.632-.288-1.008c0-.6.224-1.072.672-1.416.456-.344 1.156-.516 2.1-.516h1.488c0-.408-.124-.72-.372-.936-.248-.2239-.62-.3359-1.116-.3359-.344 0-.684.056-1.02.168-.328.1039-.608.2479-.84.4319l-.672-1.3079c.352-.248.772-.4401 1.26-.5761.496-.136 1.004-.204 1.524-.204zm-.144 5.388c.32 0 .604-.072.852-.216.248-.152.424-.372.528-.66v-.66h-1.284c-.768 0-1.152.252-1.152.756 0 .24.092.432.276.5761.192.1359.452.2039.78.2039zm11.1022-4.668c-.488-.4799-1.132-.72-1.932-.72-.44 0-.844.076-1.212.228-.368.144-.676.352-.924.624v-.756h-1.788v6.456h1.872v-3.192c0-.576.14-1.008.42-1.296.28-.2959.656-.444 1.128-.444.424 0 .748.128.972.3841.224.2479.336.6279.336 1.1399v3.408h1.872v-3.696c0-.944-.248-1.656-.744-2.136zm16.9691 3.132c.024-.312.036-.48.036-.504 0-.672-.148-1.26-.444-1.764-.288-.5119-.688-.904-1.2-1.176s-1.084-.408-1.716-.408c-.648 0-1.236.144-1.764.432-.52.2801-.932.676-1.236 1.188-.296.504-.444 1.072-.444 1.704 0 .64.152 1.212.456 1.716.304.5041.736.9 1.296 1.188.56.28 1.204.42 1.932.42 1.168 0 2.056-.348 2.664-1.044l-.996-1.08c-.224.2161-.468.376-.732.4801-.256.096-.552.1439-.888.1439-.488 0-.896-.1159-1.224-.348-.328-.232-.536-.5479-.624-.948zm-4.38-2.076c.288-.24.644-.36 1.068-.36.416 0 .768.124 1.056.372.288.24.464.564.528.972h-3.18c.064-.416.24-.7439.528-.984zm9.887-1.776c.8 0 1.444.2401 1.932.72.496.48.744 1.192.744 2.136v3.696h-1.872v-3.408c0-.512-.112-.892-.336-1.1399-.224-.2561-.548-.3841-.972-.3841-.472 0-.848.1481-1.128.444-.28.288-.42.72-.42 1.296v3.192h-1.872v-6.456h1.788v.756c.248-.272.556-.48.924-.624.368-.152.772-.228 1.212-.228zm10.529.72c-.488-.4799-1.132-.72-1.932-.72-.416 0-.8.068-1.152.204-.352.128-.652.316-.9.5641v-3.1201h-1.872v8.904h1.872v-3.192c0-.576.14-1.008.42-1.296.28-.2959.656-.444 1.128-.444.424 0 .748.128.972.3841.224.2479.336.6279.336 1.1399v3.408h1.872v-3.696c0-.944-.248-1.656-.744-2.136zm5.344-.72c1 0 1.768.2401 2.304.72.536.472.804 1.188.804 2.148v3.684h-1.752v-.804c-.352.6-1.008.9-1.968.9-.496 0-.928-.084-1.296-.252-.36-.168-.636-.4-.828-.696s-.288-.632-.288-1.008c0-.6.224-1.072.672-1.416.456-.344 1.156-.516 2.1-.516h1.488c0-.408-.124-.72-.372-.936-.248-.2239-.62-.3359-1.116-.3359-.344 0-.684.056-1.02.168-.328.1039-.608.2479-.84.4319l-.672-1.3079c.352-.248.772-.4401 1.26-.5761.496-.136 1.004-.204 1.524-.204zm-.144 5.388c.32 0 .604-.072.852-.216.248-.152.424-.372.528-.66v-.66h-1.284c-.768 0-1.152.252-1.152.756 0 .24.092.432.276.5761.192.1359.452.2039.78.2039zm11.751 1.164v-6.456h-1.872v3.192c0 .5761-.136 1.012-.408 1.308-.272.288-.632.432-1.08.432-.872 0-1.308-.52-1.308-1.56v-3.372h-1.872v3.648c0 .96.248 1.684.744 2.172.496.4881 1.168.732 2.016.732.4 0 .772-.072 1.116-.216.344-.1519.64-.368.888-.648v.768zm4.206.096c-.536 0-1.06-.064-1.572-.192-.512-.136-.92-.304-1.224-.504l.624-1.344c.288.184.636.336 1.044.456.408.112.808.168 1.2.168.792 0 1.188-.196 1.188-.588 0-.184-.108-.316-.324-.396s-.548-.1479-.996-.204c-.528-.08-.964-.172-1.308-.2759-.344-.1041-.644-.2881-.9-.5521-.248-.264-.372-.64-.372-1.128 0-.408.116-.768.348-1.08.24-.32.584-.568 1.032-.744.456-.176.992-.264 1.608-.264.456 0 .908.052 1.356.1561.456.0959.832.2319 1.128.4079l-.624 1.332c-.568-.32-1.188-.48-1.86-.48-.4 0-.7.056-.9.168-.2.1121-.3.256-.3.432 0 .2.108.34.324.42.216.0801.56.156 1.032.228.528.088.96.184 1.296.288.336.096.628.276.876.54s.372.632.372 1.104c0 .4-.12.756-.36 1.068-.24.3121-.592.556-1.056.732-.456.168-1 .252-1.632.252zm10.037-.516c.704.376 1.492.5641 2.364.5641s1.656-.1881 2.352-.5641 1.244-.8919 1.644-1.548c.4-.6639.6-1.408.6-2.232s-.2-1.564-.6-2.22c-.4-.664-.948-1.1839-1.644-1.5599-.696-.3761-1.48-.5641-2.352-.5641s-1.66.188-2.364.5641c-.696.376-1.244.8959-1.644 1.5599-.392.656-.588 1.396-.588 2.22s.196 1.5681.588 2.232c.4.6561.948 1.172 1.644 1.548zm3.708-1.428c-.4.224-.848.336-1.344.336s-.944-.112-1.344-.336c-.4-.232-.716-.552-.948-.96-.224-.408-.336-.872-.336-1.392s.112-.984.336-1.3919c.232-.4081.548-.7241.948-.9481.4-.2319.848-.348 1.344-.348s.944.1161 1.344.348c.4.224.712.54.936.9481.232.4079.348.8719.348 1.3919s-.116.984-.348 1.392c-.224.408-.536.728-.936.96zm8.697-4.704c.6 0 1.144.14 1.632.4201.496.2719.884.6599 1.164 1.1639.28.496.42 1.076.42 1.74s-.14 1.2481-.42 1.752c-.28.4961-.668.884-1.164 1.1641-.488.2719-1.032.4079-1.632.4079-.888 0-1.564-.28-2.028-.8399v.7439h-1.788v-8.904h1.872v3.1321c.472-.5201 1.12-.7801 1.944-.7801zm-.324 5.112c.48 0 .872-.16 1.176-.48.312-.328.468-.764.468-1.308s-.156-.976-.468-1.296c-.304-.328-.696-.492-1.176-.492s-.876.164-1.188.492c-.304.32-.456.752-.456 1.296s.152.98.456 1.308c.312.32.708.48 1.188.48zm6.498-1.26h4.884c.024-.312.036-.48.036-.504 0-.672-.148-1.26-.444-1.764-.288-.5119-.688-.904-1.2-1.176s-1.084-.408-1.716-.408c-.648 0-1.236.144-1.764.432-.52.2801-.932.676-1.236 1.188-.296.504-.444 1.072-.444 1.704 0 .64.152 1.212.456 1.716.304.5041.736.9 1.296 1.188.56.28 1.204.42 1.932.42 1.168 0 2.056-.348 2.664-1.044l-.996-1.08c-.224.2161-.468.376-.732.4801-.256.096-.552.1439-.888.1439-.488 0-.896-.1159-1.224-.348-.328-.232-.536-.5479-.624-.948zm.504-2.076c.288-.24.644-.36 1.068-.36.416 0 .768.124 1.056.372.288.24.464.564.528.972h-3.18c.064-.416.24-.7439.528-.984zm7.75-.8279c.224-.3121.524-.5481.9-.708.384-.1601.824-.2401 1.32-.2401v1.728c-.208-.0159-.348-.024-.42-.024-.536 0-.956.152-1.26.456-.304.296-.456.744-.456 1.3441v3.0479h-1.872v-6.456h1.788zm9.489-.2281c-.488-.4799-1.132-.72-1.932-.72-.416 0-.8.068-1.152.204-.352.128-.652.316-.9.5641v-3.1201h-1.872v8.904h1.872v-3.192c0-.576.14-1.008.42-1.296.28-.2959.656-.444 1.128-.444.424 0 .748.128.972.3841.224.2479.336.6279.336 1.1399v3.408h1.872v-3.696c0-.944-.248-1.656-.744-2.136zm5.345-.72c1 0 1.768.2401 2.304.72.536.472.804 1.188.804 2.148v3.684h-1.752v-.804c-.352.6-1.008.9-1.968.9-.496 0-.928-.084-1.296-.252-.36-.168-.636-.4-.828-.696s-.288-.632-.288-1.008c0-.6.224-1.072.672-1.416.456-.344 1.156-.516 2.1-.516h1.488c0-.408-.124-.72-.372-.936-.248-.2239-.62-.3359-1.116-.3359-.344 0-.684.056-1.02.168-.328.1039-.608.2479-.84.4319l-.672-1.3079c.352-.248.772-.4401 1.26-.5761.496-.136 1.004-.204 1.524-.204zm-.144 5.388c.32 0 .604-.072.852-.216.248-.152.424-.372.528-.66v-.66h-1.284c-.768 0-1.152.252-1.152.756 0 .24.092.432.276.5761.192.1359.452.2039.78.2039zm11.75 1.164v-6.456h-1.872v3.192c0 .5761-.136 1.012-.408 1.308-.272.288-.632.432-1.08.432-.872 0-1.308-.52-1.308-1.56v-3.372h-1.872v3.648c0 .96.248 1.684.744 2.172.496.4881 1.168.732 2.016.732.4 0 .772-.072 1.116-.216.344-.1519.64-.368.888-.648v.768zm4.206.096c-.536 0-1.06-.064-1.572-.192-.512-.136-.92-.304-1.224-.504l.624-1.344c.288.184.636.336 1.044.456.408.112.808.168 1.2.168.792 0 1.188-.196 1.188-.588 0-.184-.108-.316-.324-.396s-.548-.1479-.996-.204c-.528-.08-.964-.172-1.308-.2759-.344-.1041-.644-.2881-.9-.5521-.248-.264-.372-.64-.372-1.128 0-.408.116-.768.348-1.08.24-.32.584-.568 1.032-.744.456-.176.992-.264 1.608-.264.456 0 .908.052 1.356.1561.456.0959.832.2319 1.128.4079l-.624 1.332c-.568-.32-1.188-.48-1.86-.48-.4 0-.7.056-.9.168-.2.1121-.3.256-.3.432 0 .2.108.34.324.42.216.0801.56.156 1.032.228.528.088.96.184 1.296.288.336.096.628.276.876.54s.372.632.372 1.104c0 .4-.12.756-.36 1.068-.24.3121-.592.556-1.056.732-.456.168-1 .252-1.632.252zm5.907-2.796h4.884c.024-.312.036-.48.036-.504 0-.672-.148-1.26-.444-1.764-.288-.5119-.688-.904-1.2-1.176s-1.084-.408-1.716-.408c-.648 0-1.236.144-1.764.432-.52.2801-.932.676-1.236 1.188-.296.504-.444 1.072-.444 1.704 0 .64.152 1.212.456 1.716.304.5041.736.9 1.296 1.188.56.28 1.204.42 1.932.42 1.168 0 2.056-.348 2.664-1.044l-.996-1.08c-.224.2161-.468.376-.732.4801-.256.096-.552.1439-.888.1439-.488 0-.896-.1159-1.224-.348-.328-.232-.536-.5479-.624-.948zm.504-2.076c.288-.24.644-.36 1.068-.36.416 0 .768.124 1.056.372.288.24.464.564.528.972h-3.18c.064-.416.24-.7439.528-.984zm9.887-1.776c.8 0 1.444.2401 1.932.72.496.48.744 1.192.744 2.136v3.696h-1.872v-3.408c0-.512-.112-.892-.336-1.1399-.224-.2561-.548-.3841-.972-.3841-.472 0-.848.1481-1.128.444-.28.288-.42.72-.42 1.296v3.192h-1.872v-6.456h1.788v.756c.248-.272.556-.48.924-.624.368-.152.772-.228 1.212-.228zm-112.645-15.8039c-.344 0-.624-.1-.84-.3s-.324-.448-.324-.744.108-.544.324-.744.496-.3.84-.3.624.096.84.288.324.432.324.72c0 .312-.108.572-.324.78-.216.2-.496.3-.84.3zm-2.974-1.548h-1.872v8.904h1.872zm-43.7349 7.344v1.56h-6.504v-8.4h6.348v1.56h-4.416v1.824h3.9v1.512h-3.9v1.944zm8.0642-4.896-2.724 6.456h-1.932l-2.712-6.456h1.932l1.788 4.392 1.848-4.392zm5.7609.624c-.536-.48-1.304-.72-2.304-.72-.52 0-1.028.068-1.524.204-.488.136-.908.328-1.26.576l.672 1.308c.232-.184.512-.328.84-.432.336-.112.676-.168 1.02-.168.496 0 .868.112 1.116.336.248.216.372.528.372.936h-1.488c-.944 0-1.644.172-2.1.516-.448.344-.672.816-.672 1.416 0 .376.096.712.288 1.008s.468.528.828.696c.368.168.8.252 1.296.252.96 0 1.616-.3 1.968-.9v.804h1.752v-3.684c0-.96-.268-1.676-.804-2.148zm-1.596 4.452c-.248.144-.532.216-.852.216-.328 0-.588-.068-.78-.204-.184-.144-.276-.336-.276-.576 0-.504.384-.756 1.152-.756h1.284v.66c-.104.288-.28.508-.528.66zm8.3183-5.172c.8 0 1.444.24 1.932.72.496.48.744 1.192.744 2.136v3.696h-1.872v-3.408c0-.512-.112-.892-.336-1.14-.224-.256-.548-.384-.972-.384-.472 0-.848.148-1.128.444-.28.288-.42.72-.42 1.296v3.192h-1.872v-6.456h1.788v.756c.248-.272.556-.48.924-.624.368-.152.772-.228 1.212-.228zm11.4035 5.472v-5.376h-1.776v.828c-.488-.616-1.2-.924-2.136-.924-.592 0-1.136.132-1.632.396-.488.256-.876.62-1.164 1.092s-.432 1.016-.432 1.632.144 1.16.432 1.632.676.84 1.164 1.104c.496.256 1.04.384 1.632.384.872 0 1.552-.268 2.04-.804v.276c0 .592-.156 1.032-.468 1.32-.304.296-.78.444-1.428.444-.416 0-.832-.068-1.248-.204-.416-.128-.76-.304-1.032-.528l-.744 1.344c.368.288.832.508 1.392.66s1.152.228 1.776.228c1.184 0 2.084-.288 2.7-.864s.924-1.456.924-2.64zm-2.328-1.2c-.312.288-.716.432-1.212.432s-.904-.144-1.224-.432c-.32-.296-.48-.68-.48-1.152s.16-.852.48-1.14c.32-.296.728-.444 1.224-.444s.9.148 1.212.444c.32.288.48.668.48 1.14s-.16.856-.48 1.152zm10.694-.924c0 .024-.012.192-.036.504h-4.884c.088.4.296.716.624.948s.736.348 1.224.348c.336 0 .632-.048.888-.144.264-.104.508-.264.732-.48l.996 1.08c-.608.696-1.496 1.044-2.664 1.044-.728 0-1.372-.14-1.932-.42-.56-.288-.992-.684-1.296-1.188s-.456-1.076-.456-1.716c0-.632.148-1.2.444-1.704.304-.512.716-.908 1.236-1.188.528-.288 1.116-.432 1.764-.432.632 0 1.204.136 1.716.408s.912.664 1.2 1.176c.296.504.444 1.092.444 1.764zm-3.348-1.932c-.424 0-.78.12-1.068.36s-.464.568-.528.984h3.18c-.064-.408-.24-.732-.528-.972-.288-.248-.64-.372-1.056-.372zm13.313 5.04c.512.128 1.036.192 1.572.192.632 0 1.176-.084 1.632-.252.464-.176.816-.42 1.056-.732s.36-.668.36-1.068c0-.472-.124-.84-.372-1.104s-.54-.444-.876-.54c-.336-.104-.768-.2-1.296-.288-.472-.072-.816-.148-1.032-.228s-.324-.22-.324-.42c0-.176.1-.32.3-.432s.5-.168.9-.168c.672 0 1.292.16 1.86.48l.624-1.332c-.296-.176-.672-.312-1.128-.408-.448-.104-.9-.156-1.356-.156-.616 0-1.152.088-1.608.264-.448.176-.792.424-1.032.744-.232.312-.348.672-.348 1.08 0 .488.124.864.372 1.128.256.264.556.448.9.552s.78.196 1.308.276c.448.056.78.124.996.204s.324.212.324.396c0 .392-.396.588-1.188.588-.392 0-.792-.056-1.2-.168-.408-.12-.756-.272-1.044-.456l-.624 1.344c.304.2.712.368 1.224.504zm9.195.192c-.688 0-1.308-.14-1.86-.42-.544-.288-.972-.684-1.284-1.188-.304-.504-.456-1.076-.456-1.716s.152-1.212.456-1.716c.312-.504.74-.896 1.284-1.176.552-.288 1.172-.432 1.86-.432.68 0 1.272.144 1.776.432.512.28.884.684 1.116 1.212l-1.452.78c-.336-.592-.82-.888-1.452-.888-.488 0-.892.16-1.212.48s-.48.756-.48 1.308.16.988.48 1.308.724.48 1.212.48c.64 0 1.124-.296 1.452-.888l1.452.792c-.232.512-.604.912-1.116 1.2-.504.288-1.096.432-1.776.432zm10.079-5.928c-.488-.48-1.132-.72-1.932-.72-.416 0-.8.068-1.152.204-.352.128-.652.316-.9.564v-3.12h-1.872v8.904h1.872v-3.192c0-.576.14-1.008.42-1.296.28-.296.656-.444 1.128-.444.424 0 .748.128.972.384.224.248.336.628.336 1.14v3.408h1.872v-3.696c0-.944-.248-1.656-.744-2.136zm9.135 2.628c0 .024-.012.192-.036.504h-4.884c.088.4.296.716.624.948s.736.348 1.224.348c.336 0 .632-.048.888-.144.264-.104.508-.264.732-.48l.996 1.08c-.608.696-1.496 1.044-2.664 1.044-.728 0-1.372-.14-1.932-.42-.56-.288-.992-.684-1.296-1.188s-.456-1.076-.456-1.716c0-.632.148-1.2.444-1.704.304-.512.716-.908 1.236-1.188.528-.288 1.116-.432 1.764-.432.632 0 1.204.136 1.716.408s.912.664 1.2 1.176c.296.504.444 1.092.444 1.764zm-3.348-1.932c-.424 0-.78.12-1.068.36s-.464.568-.528.984h3.18c-.064-.408-.24-.732-.528-.972-.288-.248-.64-.372-1.056-.372zm-29.57-1.32h1.872v6.456h-1.872zm35.065 6.36c.512.128 1.036.192 1.572.192.632 0 1.176-.084 1.632-.252.464-.176.816-.42 1.056-.732s.36-.668.36-1.068c0-.472-.124-.84-.372-1.104s-.54-.444-.876-.54c-.336-.104-.768-.2-1.296-.288-.472-.072-.816-.148-1.032-.228s-.324-.22-.324-.42c0-.176.1-.32.3-.432s.5-.168.9-.168c.672 0 1.292.16 1.86.48l.624-1.332c-.296-.176-.672-.312-1.128-.408-.448-.104-.9-.156-1.356-.156-.616 0-1.152.088-1.608.264-.448.176-.792.424-1.032.744-.232.312-.348.672-.348 1.08 0 .488.124.864.372 1.128.256.264.556.448.9.552s.78.196 1.308.276c.448.056.78.124.996.204s.324.212.324.396c0 .392-.396.588-1.188.588-.392 0-.792-.056-1.2-.168-.408-.12-.756-.272-1.044-.456l-.624 1.344c.304.2.712.368 1.224.504z" fill="#005285" fill-rule="evenodd" />
</symbol></defs></svg>