<svg width="64" height="64" viewBox="0 0 64 64" fill="none" xmlns="http://www.w3.org/2000/svg">
<path d="M40.2715 39.2684C40.2715 40.7934 40.7237 42.2841 41.5709 43.5521C42.4181 44.8201 43.6223 45.8084 45.0312 46.392C46.4401 46.9757 47.9904 47.1284 49.4861 46.8309C50.9818 46.5334 52.3557 45.799 53.4341 44.7207C54.5124 43.6424 55.2468 42.2685 55.5443 40.7728C55.8418 39.2771 55.6892 37.7268 55.1056 36.3179C54.522 34.9089 53.5337 33.7047 52.2657 32.8575C50.9977 32.0102 49.507 31.558 47.982 31.558C45.9378 31.5603 43.9779 32.3734 42.5324 33.8188C41.0869 35.2643 40.2738 37.2242 40.2715 39.2684ZM54.1925 39.2684C54.1925 40.4967 53.8283 41.6975 53.1459 42.7188C52.4635 43.7401 51.4935 44.5362 50.3587 45.0062C49.2239 45.4763 47.9752 45.5993 46.7705 45.3597C45.5657 45.1201 44.4591 44.5286 43.5905 43.66C42.722 42.7915 42.1305 41.6849 41.8908 40.4802C41.6512 39.2754 41.7742 38.0267 42.2442 36.8919C42.7143 35.7571 43.5103 34.7871 44.5316 34.1047C45.5529 33.4223 46.7537 33.058 47.982 33.058C49.6285 33.0599 51.2071 33.7148 52.3713 34.8791C53.5356 36.0433 54.1906 37.6219 54.1925 39.2684Z" fill="#141414"/>
<path d="M46.875 50.4234C46.6761 50.4234 46.4853 50.5024 46.3447 50.6431C46.204 50.7838 46.125 50.9745 46.125 51.1734V51.6109C46.125 51.8098 46.204 52.0006 46.3447 52.1413C46.4853 52.2819 46.6761 52.3609 46.875 52.3609C47.0739 52.3609 47.2647 52.2819 47.4053 52.1413C47.546 52.0006 47.625 51.8098 47.625 51.6109V51.1734C47.625 50.9745 47.546 50.7838 47.4053 50.6431C47.2647 50.5024 47.0739 50.4234 46.875 50.4234Z" fill="#141414"/>
<path d="M44.625 50.4234C44.4261 50.4234 44.2353 50.5024 44.0947 50.6431C43.954 50.7838 43.875 50.9745 43.875 51.1734V51.6109C43.875 51.8098 43.954 52.0006 44.0947 52.1413C44.2353 52.2819 44.4261 52.3609 44.625 52.3609C44.8239 52.3609 45.0147 52.2819 45.1553 52.1413C45.296 52.0006 45.375 51.8098 45.375 51.6109V51.1734C45.375 50.9745 45.296 50.7838 45.1553 50.6431C45.0147 50.5024 44.8239 50.4234 44.625 50.4234Z" fill="#141414"/>
<path d="M42.375 50.4234C42.1761 50.4234 41.9853 50.5024 41.8447 50.6431C41.704 50.7838 41.625 50.9745 41.625 51.1734V51.6109C41.625 51.8098 41.704 52.0006 41.8447 52.1413C41.9853 52.2819 42.1761 52.3609 42.375 52.3609C42.5739 52.3609 42.7647 52.2819 42.9053 52.1413C43.046 52.0006 43.125 51.8098 43.125 51.6109V51.1734C43.125 50.9745 43.046 50.7838 42.9053 50.6431C42.7647 50.5024 42.5739 50.4234 42.375 50.4234Z" fill="#141414"/>
<path d="M40.125 50.4234C39.9261 50.4234 39.7353 50.5024 39.5947 50.6431C39.454 50.7838 39.375 50.9745 39.375 51.1734V51.6109C39.375 51.8098 39.454 52.0006 39.5947 52.1413C39.7353 52.2819 39.9261 52.3609 40.125 52.3609C40.3239 52.3609 40.5147 52.2819 40.6553 52.1413C40.796 52.0006 40.875 51.8098 40.875 51.6109V51.1734C40.875 50.9745 40.796 50.7838 40.6553 50.6431C40.5147 50.5024 40.3239 50.4234 40.125 50.4234Z" fill="#141414"/>
<path d="M51.375 50.4234C51.1761 50.4234 50.9853 50.5024 50.8447 50.6431C50.704 50.7838 50.625 50.9745 50.625 51.1734V51.6109C50.625 51.8098 50.704 52.0006 50.8447 52.1413C50.9853 52.2819 51.1761 52.3609 51.375 52.3609C51.5739 52.3609 51.7647 52.2819 51.9053 52.1413C52.046 52.0006 52.125 51.8098 52.125 51.6109V51.1734C52.125 50.9745 52.046 50.7838 51.9053 50.6431C51.7647 50.5024 51.5739 50.4234 51.375 50.4234Z" fill="#141414"/>
<path d="M49.125 50.4234C48.9261 50.4234 48.7353 50.5024 48.5947 50.6431C48.454 50.7838 48.375 50.9745 48.375 51.1734V51.6109C48.375 51.8098 48.454 52.0006 48.5947 52.1413C48.7353 52.2819 48.9261 52.3609 49.125 52.3609C49.3239 52.3609 49.5147 52.2819 49.6553 52.1413C49.796 52.0006 49.875 51.8098 49.875 51.6109V51.1734C49.875 50.9745 49.796 50.7838 49.6553 50.6431C49.5147 50.5024 49.3239 50.4234 49.125 50.4234Z" fill="#141414"/>
<path d="M55.875 50.4234C55.6761 50.4234 55.4853 50.5024 55.3447 50.6431C55.204 50.7838 55.125 50.9745 55.125 51.1734V51.6109C55.125 51.8098 55.204 52.0006 55.3447 52.1413C55.4853 52.2819 55.6761 52.3609 55.875 52.3609C56.0739 52.3609 56.2647 52.2819 56.4053 52.1413C56.546 52.0006 56.625 51.8098 56.625 51.6109V51.1734C56.625 50.9745 56.546 50.7838 56.4053 50.6431C56.2647 50.5024 56.0739 50.4234 55.875 50.4234Z" fill="#141414"/>
<path d="M53.625 50.4234C53.4261 50.4234 53.2353 50.5024 53.0947 50.6431C52.954 50.7838 52.875 50.9745 52.875 51.1734V51.6109C52.875 51.8098 52.954 52.0006 53.0947 52.1413C53.2353 52.2819 53.4261 52.3609 53.625 52.3609C53.8239 52.3609 54.0147 52.2819 54.1553 52.1413C54.296 52.0006 54.375 51.8098 54.375 51.6109V51.1734C54.375 50.9745 54.296 50.7838 54.1553 50.6431C54.0147 50.5024 53.8239 50.4234 53.625 50.4234Z" fill="#141414"/>
<path d="M46.875 54.6656C46.6761 54.6656 46.4853 54.7446 46.3447 54.8853C46.204 55.0259 46.125 55.2167 46.125 55.4156V55.8531C46.125 56.052 46.204 56.2428 46.3447 56.3834C46.4853 56.5241 46.6761 56.6031 46.875 56.6031C47.0739 56.6031 47.2647 56.5241 47.4053 56.3834C47.546 56.2428 47.625 56.052 47.625 55.8531V55.4156C47.625 55.2167 47.546 55.0259 47.4053 54.8853C47.2647 54.7446 47.0739 54.6656 46.875 54.6656Z" fill="#141414"/>
<path d="M44.625 54.6656C44.4261 54.6656 44.2353 54.7446 44.0947 54.8853C43.954 55.0259 43.875 55.2167 43.875 55.4156V55.8531C43.875 56.052 43.954 56.2428 44.0947 56.3834C44.2353 56.5241 44.4261 56.6031 44.625 56.6031C44.8239 56.6031 45.0147 56.5241 45.1553 56.3834C45.296 56.2428 45.375 56.052 45.375 55.8531V55.4156C45.375 55.2167 45.296 55.0259 45.1553 54.8853C45.0147 54.7446 44.8239 54.6656 44.625 54.6656Z" fill="#141414"/>
<path d="M42.375 54.6656C42.1761 54.6656 41.9853 54.7446 41.8447 54.8853C41.704 55.0259 41.625 55.2167 41.625 55.4156V55.8531C41.625 56.052 41.704 56.2428 41.8447 56.3834C41.9853 56.5241 42.1761 56.6031 42.375 56.6031C42.5739 56.6031 42.7647 56.5241 42.9053 56.3834C43.046 56.2428 43.125 56.052 43.125 55.8531V55.4156C43.125 55.2167 43.046 55.0259 42.9053 54.8853C42.7647 54.7446 42.5739 54.6656 42.375 54.6656Z" fill="#141414"/>
<path d="M40.125 54.6656C39.9261 54.6656 39.7353 54.7446 39.5947 54.8853C39.454 55.0259 39.375 55.2167 39.375 55.4156V55.8531C39.375 56.052 39.454 56.2428 39.5947 56.3834C39.7353 56.5241 39.9261 56.6031 40.125 56.6031C40.3239 56.6031 40.5147 56.5241 40.6553 56.3834C40.796 56.2428 40.875 56.052 40.875 55.8531V55.4156C40.875 55.2167 40.796 55.0259 40.6553 54.8853C40.5147 54.7446 40.3239 54.6656 40.125 54.6656Z" fill="#141414"/>
<path d="M51.375 54.6656C51.1761 54.6656 50.9853 54.7446 50.8447 54.8853C50.704 55.0259 50.625 55.2167 50.625 55.4156V55.8531C50.625 56.052 50.704 56.2428 50.8447 56.3834C50.9853 56.5241 51.1761 56.6031 51.375 56.6031C51.5739 56.6031 51.7647 56.5241 51.9053 56.3834C52.046 56.2428 52.125 56.052 52.125 55.8531V55.4156C52.125 55.2167 52.046 55.0259 51.9053 54.8853C51.7647 54.7446 51.5739 54.6656 51.375 54.6656Z" fill="#141414"/>
<path d="M49.125 54.6656C48.9261 54.6656 48.7353 54.7446 48.5947 54.8853C48.454 55.0259 48.375 55.2167 48.375 55.4156V55.8531C48.375 56.052 48.454 56.2428 48.5947 56.3834C48.7353 56.5241 48.9261 56.6031 49.125 56.6031C49.3239 56.6031 49.5147 56.5241 49.6553 56.3834C49.796 56.2428 49.875 56.052 49.875 55.8531V55.4156C49.875 55.2167 49.796 55.0259 49.6553 54.8853C49.5147 54.7446 49.3239 54.6656 49.125 54.6656Z" fill="#141414"/>
<path d="M55.875 54.6656C55.6761 54.6656 55.4853 54.7446 55.3447 54.8853C55.204 55.0259 55.125 55.2167 55.125 55.4156V55.8531C55.125 56.052 55.204 56.2428 55.3447 56.3834C55.4853 56.5241 55.6761 56.6031 55.875 56.6031C56.0739 56.6031 56.2647 56.5241 56.4053 56.3834C56.546 56.2428 56.625 56.052 56.625 55.8531V55.4156C56.625 55.2167 56.546 55.0259 56.4053 54.8853C56.2647 54.7446 56.0739 54.6656 55.875 54.6656Z" fill="#141414"/>
<path d="M53.625 54.6656C53.4261 54.6656 53.2353 54.7446 53.0947 54.8853C52.954 55.0259 52.875 55.2167 52.875 55.4156V55.8531C52.875 56.052 52.954 56.2428 53.0947 56.3834C53.2353 56.5241 53.4261 56.6031 53.625 56.6031C53.8239 56.6031 54.0147 56.5241 54.1553 56.3834C54.296 56.2428 54.375 56.052 54.375 55.8531V55.4156C54.375 55.2167 54.296 55.0259 54.1553 54.8853C54.0147 54.7446 53.8239 54.6656 53.625 54.6656Z" fill="#141414"/>
<path d="M46.875 58.9094C46.6761 58.9094 46.4853 58.9884 46.3447 59.129C46.204 59.2697 46.125 59.4605 46.125 59.6594V60.0969C46.125 60.2958 46.204 60.4865 46.3447 60.6272C46.4853 60.7678 46.6761 60.8469 46.875 60.8469C47.0739 60.8469 47.2647 60.7678 47.4053 60.6272C47.546 60.4865 47.625 60.2958 47.625 60.0969V59.6594C47.625 59.4605 47.546 59.2697 47.4053 59.129C47.2647 58.9884 47.0739 58.9094 46.875 58.9094Z" fill="#141414"/>
<path d="M44.625 58.9094C44.4261 58.9094 44.2353 58.9884 44.0947 59.129C43.954 59.2697 43.875 59.4605 43.875 59.6594V60.0969C43.875 60.2958 43.954 60.4865 44.0947 60.6272C44.2353 60.7678 44.4261 60.8469 44.625 60.8469C44.8239 60.8469 45.0147 60.7678 45.1553 60.6272C45.296 60.4865 45.375 60.2958 45.375 60.0969V59.6594C45.375 59.4605 45.296 59.2697 45.1553 59.129C45.0147 58.9884 44.8239 58.9094 44.625 58.9094Z" fill="#141414"/>
<path d="M42.375 58.9094C42.1761 58.9094 41.9853 58.9884 41.8447 59.129C41.704 59.2697 41.625 59.4605 41.625 59.6594V60.0969C41.625 60.2958 41.704 60.4865 41.8447 60.6272C41.9853 60.7678 42.1761 60.8469 42.375 60.8469C42.5739 60.8469 42.7647 60.7678 42.9053 60.6272C43.046 60.4865 43.125 60.2958 43.125 60.0969V59.6594C43.125 59.4605 43.046 59.2697 42.9053 59.129C42.7647 58.9884 42.5739 58.9094 42.375 58.9094Z" fill="#141414"/>
<path d="M40.125 58.9094C39.9261 58.9094 39.7353 58.9884 39.5947 59.129C39.454 59.2697 39.375 59.4605 39.375 59.6594V60.0969C39.375 60.2958 39.454 60.4865 39.5947 60.6272C39.7353 60.7678 39.9261 60.8469 40.125 60.8469C40.3239 60.8469 40.5147 60.7678 40.6553 60.6272C40.796 60.4865 40.875 60.2958 40.875 60.0969V59.6594C40.875 59.4605 40.796 59.2697 40.6553 59.129C40.5147 58.9884 40.3239 58.9094 40.125 58.9094Z" fill="#141414"/>
<path d="M51.375 58.9094C51.1761 58.9094 50.9853 58.9884 50.8447 59.129C50.704 59.2697 50.625 59.4605 50.625 59.6594V60.0969C50.625 60.2958 50.704 60.4865 50.8447 60.6272C50.9853 60.7678 51.1761 60.8469 51.375 60.8469C51.5739 60.8469 51.7647 60.7678 51.9053 60.6272C52.046 60.4865 52.125 60.2958 52.125 60.0969V59.6594C52.125 59.4605 52.046 59.2697 51.9053 59.129C51.7647 58.9884 51.5739 58.9094 51.375 58.9094Z" fill="#141414"/>
<path d="M49.125 58.9094C48.9261 58.9094 48.7353 58.9884 48.5947 59.129C48.454 59.2697 48.375 59.4605 48.375 59.6594V60.0969C48.375 60.2958 48.454 60.4865 48.5947 60.6272C48.7353 60.7678 48.9261 60.8469 49.125 60.8469C49.3239 60.8469 49.5147 60.7678 49.6553 60.6272C49.796 60.4865 49.875 60.2958 49.875 60.0969V59.6594C49.875 59.4605 49.796 59.2697 49.6553 59.129C49.5147 58.9884 49.3239 58.9094 49.125 58.9094Z" fill="#141414"/>
<path d="M55.875 58.9094C55.6761 58.9094 55.4853 58.9884 55.3447 59.129C55.204 59.2697 55.125 59.4605 55.125 59.6594V60.0969C55.125 60.2958 55.204 60.4865 55.3447 60.6272C55.4853 60.7678 55.6761 60.8469 55.875 60.8469C56.0739 60.8469 56.2647 60.7678 56.4053 60.6272C56.546 60.4865 56.625 60.2958 56.625 60.0969V59.6594C56.625 59.4605 56.546 59.2697 56.4053 59.129C56.2647 58.9884 56.0739 58.9094 55.875 58.9094Z" fill="#141414"/>
<path d="M53.625 58.9094C53.4261 58.9094 53.2353 58.9884 53.0947 59.129C52.954 59.2697 52.875 59.4605 52.875 59.6594V60.0969C52.875 60.2958 52.954 60.4865 53.0947 60.6272C53.2353 60.7678 53.4261 60.8469 53.625 60.8469C53.8239 60.8469 54.0147 60.7678 54.1553 60.6272C54.296 60.4865 54.375 60.2958 54.375 60.0969V59.6594C54.375 59.4605 54.296 59.2697 54.1553 59.129C54.0147 58.9884 53.8239 58.9094 53.625 58.9094Z" fill="#141414"/>
<path d="M45.0686 37.7504H44.2373C44.0384 37.7504 43.8476 37.8294 43.707 37.97C43.5663 38.1107 43.4873 38.3015 43.4873 38.5004C43.4873 38.6993 43.5663 38.89 43.707 39.0307C43.8476 39.1714 44.0384 39.2504 44.2373 39.2504H44.7519C44.7519 39.2504 44.7496 39.3431 44.7496 39.3754C44.7496 39.4076 44.7513 39.3754 44.7519 39.5004H44.2373C44.0384 39.5004 43.8476 39.5794 43.707 39.72C43.5663 39.8607 43.4873 40.0515 43.4873 40.2504C43.4873 40.4493 43.5663 40.64 43.707 40.7807C43.8476 40.9214 44.0384 41.0004 44.2373 41.0004H45.0686C45.3888 41.7509 45.9249 42.3893 46.6088 42.8344C47.2926 43.2796 48.0934 43.5114 48.9093 43.5004H49.8623C50.0612 43.5004 50.252 43.4214 50.3926 43.2807C50.5333 43.14 50.6123 42.9493 50.6123 42.7504C50.6123 42.5515 50.5333 42.3607 50.3926 42.22C50.252 42.0794 50.0612 42.0004 49.8623 42.0004H48.9093C48.5026 42.0074 48.0997 41.9208 47.7317 41.7475C47.3637 41.5741 47.0405 41.3185 46.7869 41.0004H49.2869C49.4858 41.0004 49.6766 40.9214 49.8173 40.7807C49.9579 40.64 50.0369 40.4493 50.0369 40.2504C50.0369 40.0515 49.9579 39.8607 49.8173 39.72C49.6766 39.5794 49.4858 39.5004 49.2869 39.5004H46.2544C46.2533 39.3754 46.2496 39.4079 46.2496 39.3754C46.2496 39.3429 46.2533 39.2504 46.2544 39.2504H49.2867C49.4856 39.2504 49.6764 39.1714 49.817 39.0307C49.9577 38.89 50.0367 38.6993 50.0367 38.5004C50.0367 38.3015 49.9577 38.1107 49.817 37.97C49.6764 37.8294 49.4856 37.7504 49.2867 37.7504H46.7867C47.0402 37.4323 47.3635 37.1767 47.7314 37.0033C48.0994 36.8299 48.5023 36.7434 48.9091 36.7504H49.8621C50.061 36.7504 50.2517 36.6714 50.3924 36.5307C50.533 36.39 50.6121 36.1993 50.6121 36.0004C50.6121 35.8015 50.533 35.6107 50.3924 35.47C50.2517 35.3294 50.061 35.2504 49.8621 35.2504H48.9091C48.0932 35.2394 47.2925 35.4713 46.6087 35.9164C45.9248 36.3615 45.3888 36.9999 45.0686 37.7504Z" fill="#141414"/>
<path d="M21.7215 20.775C21.2894 20.7748 20.867 20.9027 20.5077 21.1426C20.1483 21.3825 19.8682 21.7236 19.7027 22.1227C19.5372 22.5218 19.4938 22.9611 19.578 23.3849C19.6621 23.8087 19.8701 24.198 20.1755 24.5036C20.481 24.8092 20.8702 25.0173 21.2939 25.1017C21.7177 25.1861 22.1569 25.1429 22.5561 24.9776C22.9553 24.8123 23.2965 24.5324 23.5366 24.1731C23.7767 23.8139 23.9049 23.3916 23.9049 22.9595C23.9044 22.3805 23.6742 21.8253 23.2649 21.4158C22.8556 21.0063 22.3005 20.7758 21.7215 20.775ZM21.7215 23.6437C21.5861 23.6439 21.4537 23.604 21.341 23.5289C21.2283 23.4538 21.1405 23.347 21.0885 23.2219C21.0366 23.0969 21.0229 22.9592 21.0492 22.8264C21.0755 22.6936 21.1406 22.5716 21.2363 22.4758C21.332 22.3799 21.4539 22.3147 21.5867 22.2882C21.7195 22.2617 21.8572 22.2752 21.9823 22.327C22.1074 22.3788 22.2143 22.4666 22.2895 22.5791C22.3648 22.6917 22.4049 22.8241 22.4049 22.9595C22.4048 23.1408 22.3328 23.3146 22.2047 23.4429C22.0766 23.5712 21.9028 23.6434 21.7215 23.6437Z" fill="#141414"/>
<path d="M29.785 20.775C29.3529 20.7748 28.9305 20.9027 28.5712 21.1426C28.2118 21.3825 27.9317 21.7236 27.7662 22.1227C27.6007 22.5218 27.5573 22.9611 27.6415 23.3849C27.7256 23.8087 27.9336 24.198 28.239 24.5036C28.5444 24.8092 28.9336 25.0173 29.3574 25.1017C29.7811 25.1861 30.2204 25.1429 30.6196 24.9776C31.0188 24.8123 31.36 24.5324 31.6001 24.1731C31.8402 23.8139 31.9683 23.3916 31.9684 22.9595C31.9678 22.3805 31.7377 21.8253 31.3283 21.4158C30.919 21.0063 30.364 20.7758 29.785 20.775ZM29.785 23.6437C29.6496 23.6439 29.5172 23.604 29.4045 23.5289C29.2918 23.4538 29.2039 23.347 29.152 23.2219C29.1 23.0969 29.0863 22.9592 29.1126 22.8264C29.139 22.6936 29.2041 22.5716 29.2998 22.4758C29.3954 22.3799 29.5174 22.3147 29.6502 22.2882C29.783 22.2617 29.9206 22.2752 30.0457 22.327C30.1708 22.3788 30.2778 22.4666 30.353 22.5791C30.4282 22.6917 30.4684 22.8241 30.4684 22.9595C30.4683 23.1408 30.3963 23.3146 30.2681 23.4429C30.14 23.5712 29.9663 23.6434 29.785 23.6437Z" fill="#141414"/>
<path d="M37.8474 25.1437C38.2795 25.1439 38.7019 25.016 39.0613 24.7761C39.4206 24.5362 39.7008 24.1951 39.8663 23.796C40.0317 23.3968 40.0751 22.9576 39.991 22.5338C39.9068 22.11 39.6988 21.7207 39.3933 21.4151C39.0879 21.1095 38.6986 20.9014 38.2749 20.817C37.8511 20.7327 37.4119 20.7759 37.0127 20.9412C36.6135 21.1065 36.2723 21.3865 36.0322 21.7458C35.7922 22.105 35.664 22.5274 35.6641 22.9595C35.6646 23.5385 35.8947 24.0936 36.3041 24.5031C36.7134 24.9126 37.2684 25.143 37.8474 25.1437ZM37.8474 22.275C37.9828 22.2748 38.1152 22.3148 38.2279 22.3898C38.3406 22.4649 38.4285 22.5717 38.4804 22.6967C38.5324 22.8218 38.5461 22.9594 38.5198 23.0922C38.4935 23.225 38.4284 23.3471 38.3328 23.4429C38.2371 23.5387 38.1152 23.604 37.9824 23.6305C37.8496 23.657 37.712 23.6435 37.5869 23.5918C37.4617 23.54 37.3548 23.4523 37.2795 23.3398C37.2043 23.2272 37.1641 23.0949 37.1641 22.9595C37.1641 22.7782 37.2361 22.6042 37.3642 22.4759C37.4923 22.3476 37.6661 22.2753 37.8474 22.275Z" fill="#141414"/>
<path d="M45.9119 25.1437C46.344 25.1439 46.7664 25.016 47.1257 24.7761C47.4851 24.5362 47.7652 24.1951 47.9307 23.796C48.0962 23.3968 48.1396 22.9576 48.0554 22.5338C47.9712 22.11 47.7632 21.7207 47.4578 21.4151C47.1523 21.1095 46.7631 20.9014 46.3393 20.817C45.9156 20.7327 45.4763 20.7759 45.0771 20.9412C44.6779 21.1065 44.3367 21.3865 44.0967 21.7458C43.8566 22.105 43.7285 22.5274 43.7285 22.9595C43.729 23.5385 43.9592 24.0936 44.3685 24.5031C44.7778 24.9126 45.3329 25.143 45.9119 25.1437ZM45.9119 22.275C46.0473 22.2748 46.1797 22.3148 46.2924 22.3898C46.405 22.4649 46.4929 22.5717 46.5449 22.6967C46.5968 22.8218 46.6105 22.9594 46.5842 23.0922C46.558 23.225 46.4929 23.3471 46.3972 23.4429C46.3016 23.5387 46.1796 23.604 46.0468 23.6305C45.9141 23.657 45.7764 23.6435 45.6513 23.5918C45.5262 23.54 45.4192 23.4523 45.344 23.3398C45.2687 23.2272 45.2285 23.0949 45.2285 22.9595C45.2285 22.7782 45.3005 22.6042 45.4286 22.4759C45.5568 22.3476 45.7306 22.2753 45.9119 22.275Z" fill="#141414"/>
<path d="M13.6571 27.4984C13.225 27.4982 12.8026 27.6262 12.4432 27.8661C12.0839 28.106 11.8037 28.4471 11.6382 28.8462C11.4728 29.2453 11.4294 29.6846 11.5135 30.1084C11.5977 30.5321 11.8057 30.9215 12.1111 31.2271C12.4166 31.5326 12.8058 31.7408 13.2295 31.8251C13.6533 31.9095 14.0925 31.8663 14.4917 31.701C14.8909 31.5357 15.2322 31.2557 15.4722 30.8965C15.7123 30.5373 15.8404 30.1149 15.8404 29.6828C15.8399 29.1038 15.6097 28.5487 15.2004 28.1392C14.7911 27.7297 14.2361 27.4992 13.6571 27.4984ZM13.6571 30.3672C13.5217 30.3674 13.3892 30.3274 13.2766 30.2523C13.1639 30.1773 13.076 30.0704 13.0241 29.9454C12.9721 29.8204 12.9584 29.6827 12.9847 29.5499C13.011 29.4171 13.0761 29.2951 13.1718 29.1992C13.2674 29.1034 13.3894 29.0382 13.5222 29.0117C13.655 28.9852 13.7926 28.9987 13.9177 29.0504C14.0428 29.1022 14.1498 29.1899 14.225 29.3025C14.3003 29.4151 14.3404 29.5474 14.3404 29.6828C14.3404 29.8641 14.2684 30.038 14.1403 30.1663C14.0121 30.2946 13.8384 30.3669 13.6571 30.3672Z" fill="#141414"/>
<path d="M21.7215 27.4984C21.2894 27.4982 20.867 27.6262 20.5077 27.8661C20.1483 28.106 19.8682 28.4471 19.7027 28.8462C19.5372 29.2453 19.4938 29.6846 19.578 30.1084C19.6622 30.5321 19.8701 30.9215 20.1756 31.2271C20.481 31.5326 20.8702 31.7408 21.294 31.8251C21.7177 31.9095 22.157 31.8663 22.5562 31.701C22.9554 31.5357 23.2966 31.2557 23.5367 30.8965C23.7767 30.5373 23.9049 30.1149 23.9049 29.6828C23.9044 29.1038 23.6742 28.5487 23.2649 28.1392C22.8555 27.7297 22.3005 27.4992 21.7215 27.4984ZM21.7215 30.3672C21.5861 30.3674 21.4537 30.3274 21.341 30.2523C21.2283 30.1773 21.1405 30.0704 21.0885 29.9454C21.0366 29.8204 21.0229 29.6827 21.0492 29.5499C21.0755 29.4171 21.1406 29.2951 21.2362 29.1992C21.3319 29.1034 21.4538 29.0382 21.5866 29.0117C21.7194 28.9852 21.8571 28.9987 21.9822 29.0504C22.1073 29.1022 22.2142 29.1899 22.2895 29.3025C22.3647 29.4151 22.4049 29.5474 22.4049 29.6828C22.4048 29.8641 22.3328 30.038 22.2047 30.1663C22.0766 30.2946 21.9028 30.3669 21.7215 30.3672Z" fill="#141414"/>
<path d="M29.785 27.4984C29.3529 27.4982 28.9305 27.6262 28.5711 27.8661C28.2118 28.106 27.9317 28.4471 27.7662 28.8462C27.6007 29.2453 27.5573 29.6846 27.6415 30.1084C27.7256 30.5321 27.9336 30.9215 28.239 31.2271C28.5445 31.5326 28.9337 31.7408 29.3575 31.8251C29.7812 31.9095 30.2205 31.8663 30.6197 31.701C31.0189 31.5357 31.3601 31.2557 31.6002 30.8965C31.8402 30.5373 31.9684 30.1149 31.9684 29.6828C31.9678 29.1038 31.7377 28.5487 31.3283 28.1392C30.919 27.7297 30.364 27.4992 29.785 27.4984ZM29.785 30.3672C29.6496 30.3674 29.5172 30.3274 29.4045 30.2523C29.2918 30.1773 29.2039 30.0704 29.152 29.9454C29.1 29.8204 29.0863 29.6827 29.1126 29.5499C29.1389 29.4171 29.204 29.2951 29.2997 29.1992C29.3954 29.1034 29.5173 29.0382 29.6501 29.0117C29.7829 28.9852 29.9205 28.9987 30.0457 29.0504C30.1708 29.1022 30.2777 29.1899 30.353 29.3025C30.4282 29.4151 30.4684 29.5474 30.4684 29.6828C30.4683 29.8641 30.3963 30.038 30.2682 30.1663C30.1401 30.2946 29.9663 30.3669 29.785 30.3672Z" fill="#141414"/>
<path d="M40.0308 29.6824C40.0306 29.2506 39.9024 28.8286 39.6624 28.4696C39.4223 28.1107 39.0813 27.831 38.6823 27.6659C38.2833 27.5008 37.8443 27.4577 37.4209 27.5421C36.9974 27.6264 36.6085 27.8345 36.3032 28.1398C35.998 28.4452 35.7901 28.8343 35.7059 29.2578C35.6218 29.6813 35.6651 30.1202 35.8304 30.5191C35.9956 30.918 36.2755 31.259 36.6345 31.4989C36.9936 31.7387 37.4156 31.8668 37.8474 31.8668C38.4264 31.866 38.9815 31.6356 39.3908 31.2261C39.8002 30.8165 40.0303 30.2614 40.0308 29.6824ZM37.1641 29.6824C37.1643 29.5473 37.2045 29.4152 37.2797 29.303C37.3549 29.1907 37.4617 29.1033 37.5866 29.0517C37.7115 29.0002 37.8489 28.9868 37.9814 29.0133C38.1139 29.0397 38.2355 29.1049 38.331 29.2005C38.4265 29.2961 38.4915 29.4179 38.5178 29.5504C38.544 29.683 38.5305 29.8203 38.4787 29.9451C38.4269 30.0699 38.3394 30.1766 38.227 30.2516C38.1146 30.3267 37.9826 30.3668 37.8474 30.3668C37.6661 30.3664 37.4923 30.2942 37.3642 30.1659C37.2361 30.0376 37.1641 29.8637 37.1641 29.6824Z" fill="#141414"/>
<path d="M13.6571 34.2219C13.225 34.2217 12.8026 34.3496 12.4432 34.5895C12.0839 34.8294 11.8037 35.1705 11.6383 35.5696C11.4728 35.9687 11.4294 36.4079 11.5135 36.8317C11.5977 37.2555 11.8056 37.6448 12.1111 37.9504C12.4165 38.256 12.8057 38.4642 13.2295 38.5486C13.6532 38.6329 14.0925 38.5898 14.4917 38.4245C14.8909 38.2592 15.2321 37.9792 15.4722 37.62C15.7122 37.2608 15.8404 36.8384 15.8404 36.4064C15.8399 35.8274 15.6097 35.2722 15.2004 34.8627C14.7911 34.4531 14.2361 34.2227 13.6571 34.2219ZM13.6571 37.0906C13.5217 37.0908 13.3892 37.0508 13.2766 36.9758C13.1639 36.9007 13.076 36.7938 13.0241 36.6688C12.9721 36.5438 12.9584 36.4061 12.9847 36.2733C13.011 36.1405 13.0761 36.0184 13.1718 35.9226C13.2675 35.8268 13.3895 35.7615 13.5222 35.7351C13.655 35.7086 13.7927 35.7221 13.9178 35.7739C14.0429 35.8257 14.1499 35.9134 14.2251 36.026C14.3003 36.1386 14.3405 36.271 14.3404 36.4064C14.3403 36.5877 14.2683 36.7615 14.1402 36.8898C14.0121 37.0181 13.8383 37.0903 13.6571 37.0906Z" fill="#141414"/>
<path d="M21.7215 34.2219C21.2894 34.2217 20.867 34.3496 20.5077 34.5895C20.1483 34.8294 19.8682 35.1705 19.7027 35.5696C19.5372 35.9687 19.4938 36.4079 19.578 36.8317C19.6621 37.2555 19.8701 37.6448 20.1755 37.9504C20.481 38.256 20.8702 38.4642 21.2939 38.5486C21.7177 38.6329 22.1569 38.5898 22.5561 38.4245C22.9553 38.2592 23.2965 37.9792 23.5366 37.62C23.7767 37.2608 23.9049 36.8384 23.9049 36.4064C23.9044 35.8274 23.6742 35.2722 23.2649 34.8627C22.8556 34.4531 22.3005 34.2227 21.7215 34.2219ZM21.7215 37.0906C21.5861 37.0908 21.4537 37.0508 21.341 36.9758C21.2283 36.9007 21.1405 36.7938 21.0885 36.6688C21.0366 36.5438 21.0229 36.4061 21.0492 36.2733C21.0755 36.1405 21.1406 36.0184 21.2363 35.9226C21.332 35.8268 21.4539 35.7615 21.5867 35.7351C21.7195 35.7086 21.8572 35.7221 21.9823 35.7739C22.1074 35.8257 22.2143 35.9134 22.2895 36.026C22.3648 36.1386 22.4049 36.271 22.4049 36.4064C22.4048 36.5877 22.3328 36.7615 22.2047 36.8898C22.0766 37.0181 21.9028 37.0903 21.7215 37.0906Z" fill="#141414"/>
<path d="M29.785 34.2219C29.3529 34.2217 28.9305 34.3496 28.5712 34.5895C28.2118 34.8294 27.9317 35.1705 27.7662 35.5696C27.6007 35.9687 27.5573 36.4079 27.6415 36.8317C27.7256 37.2555 27.9336 37.6448 28.239 37.9504C28.5444 38.256 28.9336 38.4642 29.3574 38.5486C29.7811 38.6329 30.2204 38.5898 30.6196 38.4245C31.0188 38.2592 31.36 37.9792 31.6001 37.62C31.8402 37.2608 31.9683 36.8384 31.9684 36.4064C31.9678 35.8274 31.7377 35.2722 31.3283 34.8627C30.919 34.4531 30.364 34.2227 29.785 34.2219ZM29.785 37.0906C29.6496 37.0908 29.5172 37.0508 29.4045 36.9758C29.2918 36.9007 29.2039 36.7938 29.152 36.6688C29.1 36.5438 29.0863 36.4061 29.1126 36.2733C29.139 36.1405 29.2041 36.0184 29.2998 35.9226C29.3954 35.8268 29.5174 35.7615 29.6502 35.7351C29.783 35.7086 29.9206 35.7221 30.0457 35.7739C30.1708 35.8257 30.2778 35.9134 30.353 36.026C30.4282 36.1386 30.4684 36.271 30.4684 36.4064C30.4683 36.5877 30.3963 36.7615 30.2681 36.8898C30.14 37.0181 29.9663 37.0903 29.785 37.0906Z" fill="#141414"/>
<path d="M13.6573 40.9469C13.2252 40.9466 12.8027 41.0746 12.4433 41.3145C12.084 41.5544 11.8038 41.8955 11.6383 42.2946C11.4728 42.6938 11.4294 43.1331 11.5135 43.5569C11.5977 43.9807 11.8057 44.3701 12.1112 44.6757C12.4166 44.9813 12.8059 45.1895 13.2297 45.2738C13.6535 45.3582 14.0928 45.315 14.492 45.1497C14.8912 44.9843 15.2324 44.7043 15.4725 44.345C15.7126 43.9858 15.8407 43.5634 15.8407 43.1312C15.8402 42.5522 15.61 41.9971 15.2007 41.5876C14.7913 41.1781 14.2363 40.9477 13.6573 40.9469ZM13.6573 43.8157C13.5219 43.816 13.3894 43.776 13.2767 43.7009C13.164 43.6259 13.0761 43.519 13.0241 43.394C12.9721 43.2689 12.9584 43.1312 12.9847 42.9984C13.011 42.8655 13.0761 42.7435 13.1718 42.6476C13.2675 42.5518 13.3894 42.4865 13.5222 42.46C13.655 42.4335 13.7927 42.447 13.9179 42.4987C14.043 42.5505 14.15 42.6382 14.2252 42.7508C14.3005 42.8634 14.3407 42.9958 14.3407 43.1312C14.3406 43.3126 14.2686 43.4865 14.1405 43.6148C14.0124 43.7431 13.8386 43.8154 13.6573 43.8157Z" fill="#141414"/>
<path d="M21.7218 40.9469C21.2897 40.9466 20.8672 41.0746 20.5078 41.3145C20.1484 41.5544 19.8682 41.8955 19.7027 42.2946C19.5372 42.6938 19.4938 43.1331 19.578 43.5569C19.6622 43.9807 19.8701 44.3701 20.1756 44.6757C20.4811 44.9813 20.8703 45.1895 21.2941 45.2738C21.7179 45.3582 22.1572 45.315 22.5564 45.1497C22.9557 44.9843 23.2969 44.7043 23.537 44.345C23.777 43.9858 23.9052 43.5634 23.9051 43.1312C23.9046 42.5522 23.6744 41.9971 23.2651 41.5876C22.8558 41.1781 22.3008 40.9477 21.7218 40.9469ZM21.7218 43.8157C21.5863 43.816 21.4539 43.776 21.3412 43.7009C21.2285 43.6259 21.1405 43.519 21.0886 43.394C21.0366 43.2689 21.0229 43.1312 21.0492 42.9984C21.0754 42.8655 21.1405 42.7435 21.2362 42.6476C21.3319 42.5518 21.4539 42.4865 21.5867 42.46C21.7195 42.4335 21.8572 42.447 21.9823 42.4987C22.1075 42.5505 22.2144 42.6382 22.2897 42.7508C22.365 42.8634 22.4051 42.9958 22.4051 43.1312C22.4051 43.3126 22.3331 43.4865 22.205 43.6148C22.0769 43.7431 21.9031 43.8154 21.7218 43.8157Z" fill="#141414"/>
<path d="M29.7843 40.9469C29.3522 40.9466 28.9297 41.0746 28.5703 41.3145C28.2109 41.5544 27.9307 41.8955 27.7652 42.2946C27.5997 42.6938 27.5563 43.1331 27.6405 43.5569C27.7247 43.9807 27.9326 44.3701 28.2381 44.6757C28.5436 44.9813 28.9328 45.1895 29.3566 45.2738C29.7804 45.3582 30.2197 45.315 30.6189 45.1497C31.0182 44.9843 31.3594 44.7043 31.5995 44.345C31.8395 43.9858 31.9677 43.5634 31.9676 43.1312C31.9671 42.5522 31.7369 41.9971 31.3276 41.5876C30.9183 41.1781 30.3633 40.9477 29.7843 40.9469ZM29.7843 43.8157C29.6488 43.816 29.5164 43.776 29.4037 43.7009C29.291 43.6259 29.203 43.519 29.1511 43.394C29.0991 43.2689 29.0854 43.1312 29.1116 42.9984C29.1379 42.8655 29.203 42.7435 29.2987 42.6476C29.3944 42.5518 29.5164 42.4865 29.6492 42.46C29.782 42.4335 29.9197 42.447 30.0448 42.4987C30.17 42.5505 30.2769 42.6382 30.3522 42.7508C30.4275 42.8634 30.4676 42.9958 30.4676 43.1312C30.4676 43.3126 30.3956 43.4865 30.2675 43.6148C30.1394 43.7431 29.9656 43.8154 29.7843 43.8157Z" fill="#141414"/>
<path d="M56.6438 48.5007H53.0729C54.6142 47.6555 55.9196 46.4381 56.8703 44.9596C57.821 43.481 58.3868 41.7881 58.5162 40.035C58.6457 38.282 58.3346 36.5244 57.6113 34.9222C56.8881 33.32 55.7756 31.9242 54.3752 30.8617V11.3924C54.374 10.8289 54.2614 10.2711 54.044 9.75128C53.8265 9.23143 53.5084 8.75968 53.108 8.36318C52.7076 7.96667 52.2328 7.65323 51.7108 7.44086C51.1888 7.2285 50.63 7.1214 50.0666 7.12574H47.3752V4.90936C47.3752 3.94795 46.9933 3.02592 46.3134 2.3461C45.6336 1.66628 44.7116 1.28436 43.7502 1.28436C42.7888 1.28436 41.8667 1.66628 41.1869 2.3461C40.5071 3.02592 40.1252 3.94795 40.1252 4.90936V7.12574H19.5002V4.90936C19.5002 3.93138 19.1117 2.99345 18.4201 2.30191C17.7286 1.61037 16.7907 1.22186 15.8127 1.22186C14.8347 1.22186 13.8968 1.61037 13.2052 2.30191C12.5137 2.99345 12.1252 3.93138 12.1252 4.90936V7.12574H9.50255C8.94202 7.1225 8.38645 7.23075 7.86814 7.44419C7.34983 7.65763 6.87914 7.972 6.48344 8.36902C6.08773 8.76603 5.77493 9.23777 5.56321 9.75678C5.35148 10.2758 5.24508 10.8317 5.25017 11.3922V48.1556C5.25017 50.5329 7.12518 52.5007 9.50293 52.5007H37.1627C37.2343 52.876 37.4041 53.2256 37.6548 53.5139C37.3133 53.9059 37.1251 54.4084 37.1252 54.9284V56.3429C37.1252 56.8629 37.3134 57.3653 37.6551 57.7574C37.3134 58.1494 37.1252 58.6518 37.1252 59.1717V60.5864C37.1329 61.1634 37.3678 61.7142 37.7788 62.1193C38.1898 62.5244 38.7438 62.7513 39.3209 62.7507H56.6438C57.8377 62.7507 58.7502 61.7797 58.7502 60.5864V59.1717C58.7502 58.6518 58.5619 58.1494 58.2203 57.7574C58.5619 57.3653 58.7501 56.8629 58.7502 56.3429V54.9284C58.7501 54.4083 58.5619 53.9059 58.2203 53.5139C58.5619 53.1219 58.7502 52.6195 58.7502 52.0995V50.6851C58.7502 49.4916 57.8377 48.5007 56.6438 48.5007ZM53.8361 32.3632L53.6311 32.5632C53.5599 32.6323 53.5032 32.7148 53.4642 32.8059C53.4253 32.8971 53.4048 32.995 53.4039 33.0942C53.4031 33.1933 53.422 33.2916 53.4595 33.3834C53.497 33.4751 53.5523 33.5585 53.6223 33.6288C53.6922 33.699 53.7754 33.7546 53.8671 33.7924C53.9587 33.8302 54.057 33.8494 54.1561 33.849C54.2552 33.8485 54.3532 33.8283 54.4445 33.7897C54.5358 33.751 54.6185 33.6946 54.6878 33.6237L54.8878 33.4141C56.098 34.8524 56.836 36.6284 57.0017 38.5007H56.7142C56.5153 38.5007 56.3245 38.5798 56.1838 38.7204C56.0432 38.8611 55.9642 39.0518 55.9642 39.2507C55.9642 39.4496 56.0432 39.6404 56.1838 39.7811C56.3245 39.9217 56.5153 40.0007 56.7142 40.0007H57.0017C56.8596 41.884 56.1189 43.6725 54.8877 45.1047L54.6877 44.9089C54.6178 44.8392 54.5349 44.784 54.4437 44.7464C54.3525 44.7088 54.2547 44.6896 54.1561 44.6897C53.9568 44.6901 53.7659 44.7695 53.6252 44.9107C53.4846 45.0518 53.4058 45.243 53.4061 45.4423C53.4064 45.6415 53.4859 45.8325 53.6271 45.9731L53.8363 46.174C52.3982 47.3842 50.6224 48.1223 48.7502 48.2882V48.0007C48.7502 47.8018 48.6712 47.6111 48.5305 47.4704C48.3899 47.3298 48.1991 47.2507 48.0002 47.2507C47.8013 47.2507 47.6105 47.3298 47.4698 47.4704C47.3292 47.6111 47.2502 47.8018 47.2502 48.0007V48.2882C45.367 48.1463 43.5786 47.4056 42.1465 46.1744L42.3426 45.9744C42.4818 45.8328 42.5595 45.6419 42.5585 45.4434C42.5575 45.2448 42.4779 45.0547 42.3372 44.9146C42.1965 44.7744 42.0061 44.6957 41.8075 44.6955C41.609 44.6953 41.4184 44.7737 41.2774 44.9136L41.0774 45.1049C39.8459 43.6727 39.1049 41.8842 38.9627 40.0007H39.2502C39.4491 40.0007 39.6399 39.9217 39.7805 39.7811C39.9212 39.6404 40.0002 39.4496 40.0002 39.2507C40.0002 39.0518 39.9212 38.8611 39.7805 38.7204C39.6399 38.5798 39.4491 38.5007 39.2502 38.5007H38.9627C39.1286 36.6288 39.8667 34.8532 41.0767 33.4152L41.2767 33.6202C41.3461 33.6899 41.4285 33.7452 41.5193 33.783C41.6101 33.8208 41.7074 33.8404 41.8058 33.8406C41.9041 33.8407 42.0015 33.8216 42.0924 33.7841C42.1834 33.7466 42.266 33.6916 42.3357 33.6222C42.4053 33.5528 42.4607 33.4704 42.4985 33.3796C42.5363 33.2888 42.5558 33.1915 42.556 33.0932C42.5562 32.9948 42.537 32.8974 42.4995 32.8065C42.4621 32.7156 42.4071 32.6329 42.3377 32.5632L42.1462 32.3632C43.5784 31.1321 45.3669 30.3916 47.2502 30.25V30.5375C47.2502 30.7364 47.3292 30.9272 47.4698 31.0678C47.6105 31.2085 47.8013 31.2875 48.0002 31.2875C48.1991 31.2875 48.3899 31.2085 48.5305 31.0678C48.6712 30.9272 48.7502 30.7364 48.7502 30.5375V30.25C50.6222 30.4157 52.3979 31.1535 53.8361 32.3632ZM41.6252 4.90936C41.6252 4.34578 41.8491 3.80528 42.2476 3.40676C42.6461 3.00825 43.1866 2.78436 43.7502 2.78436C44.3138 2.78436 44.8543 3.00825 45.2528 3.40676C45.6513 3.80528 45.8752 4.34578 45.8752 4.90936V10.5007H41.6252V4.90936ZM13.6252 4.90936C13.6252 4.3292 13.8556 3.7728 14.2659 3.36257C14.6761 2.95233 15.2325 2.72186 15.8127 2.72186C16.3928 2.72186 16.9492 2.95233 17.3595 3.36257C17.7697 3.7728 18.0002 4.3292 18.0002 4.90936V10.5007H13.6252V4.90936ZM6.75017 11.392C6.74491 11.0284 6.81241 10.6674 6.94872 10.3303C7.08502 9.99321 7.28737 9.68677 7.54386 9.42902C7.80035 9.17127 8.1058 8.96742 8.44224 8.82947C8.77868 8.69152 9.13932 8.62225 9.50293 8.62574H12.1252V11.233C12.1268 11.4348 12.2073 11.628 12.3493 11.7714C12.4913 11.9149 12.6837 11.9971 12.8856 12.0007H18.7028C18.9085 11.9985 19.1056 11.9178 19.2538 11.7751C19.402 11.6324 19.4902 11.4385 19.5002 11.233V8.62574H40.1252V11.233C40.1225 11.4328 40.1988 11.6256 40.3376 11.7694C40.4764 11.9132 40.6664 11.9963 40.8662 12.0007H46.6833C47.0975 12.0007 47.3752 11.6472 47.3752 11.233V8.62574H50.0663C50.4329 8.62114 50.7967 8.68925 51.1368 8.82613C51.4769 8.96301 51.7865 9.16594 52.0477 9.42319C52.3089 9.68044 52.5165 9.98691 52.6585 10.3249C52.8006 10.6629 52.8742 11.0256 52.8752 11.3922V15.6257H6.75017V11.392ZM37.1252 50.6851V51.0007H9.50318C7.95305 51.0007 6.75017 49.7064 6.75017 48.1559V17.1257H52.8752V29.9067C50.4122 28.6133 47.538 28.3448 44.878 29.1596C42.218 29.9744 39.9874 31.8066 38.6714 34.2577C37.3554 36.7087 37.0605 39.5802 37.8509 42.2476C38.6413 44.915 40.4529 47.1623 42.8918 48.5007H39.3209C38.7418 48.5047 38.1873 48.7357 37.7767 49.1442C37.3661 49.5527 37.1321 50.106 37.1252 50.6851ZM57.2502 60.5864C57.2501 60.7626 57.1801 60.9316 57.0555 61.0562C56.9309 61.1807 56.7619 61.2507 56.5857 61.2507H39.2897C39.1135 61.2507 38.9445 61.1807 38.8198 61.0562C38.6952 60.9316 38.6252 60.7626 38.6252 60.5864V59.1651C38.6252 58.9889 38.6952 58.8199 38.8198 58.6953C38.9445 58.5707 39.1135 58.5007 39.2897 58.5007H56.5857C56.7619 58.5007 56.9309 58.5707 57.0555 58.6953C57.1801 58.8199 57.2501 58.9889 57.2502 59.1651V60.5864ZM57.2502 56.3364C57.2501 56.5126 57.1801 56.6816 57.0555 56.8062C56.9309 56.9307 56.7619 57.0007 56.5857 57.0007H39.2897C39.1135 57.0007 38.9445 56.9307 38.8198 56.8062C38.6952 56.6816 38.6252 56.5126 38.6252 56.3364V54.9151C38.6252 54.7389 38.6952 54.5699 38.8198 54.4453C38.9445 54.3207 39.1135 54.2507 39.2897 54.2507H56.5857C56.7619 54.2507 56.9309 54.3207 57.0555 54.4453C57.1801 54.5699 57.2501 54.7389 57.2502 54.9151V56.3364ZM57.2502 52.0864C57.2501 52.2626 57.1801 52.4316 57.0555 52.5562C56.9309 52.6807 56.7619 52.7507 56.5857 52.7507H39.2897C39.1134 52.7507 38.9444 52.6807 38.8198 52.5561C38.6952 52.4315 38.6252 52.2625 38.6252 52.0862V50.6652C38.6252 50.489 38.6952 50.32 38.8198 50.1954C38.9444 50.0707 39.1134 50.0007 39.2897 50.0007H56.5857C56.7619 50.0007 56.9309 50.0707 57.0555 50.1954C57.1802 50.32 57.2502 50.489 57.2502 50.6652V52.0864Z" fill="#141414"/>
</svg>
