<svg width="64" height="64" viewBox="0 0 64 64" fill="none" xmlns="http://www.w3.org/2000/svg">
<path d="M11.8311 43.375H13.75V44.625H12C11.4033 44.625 10.831 44.8621 10.409 45.284C9.98705 45.706 9.75 46.2783 9.75 46.875V54C9.75 54.5967 9.98705 55.169 10.409 55.591C10.831 56.0129 11.4033 56.25 12 56.25H13.75V56.875C13.744 57.6267 13.8867 58.3721 14.1697 59.0685C14.4528 59.7649 14.8707 60.3984 15.3994 60.9328C15.9281 61.4671 16.5572 61.8917 17.2506 62.1821C17.9439 62.4725 18.6878 62.623 19.4395 62.625H44.5605C45.3122 62.623 46.0561 62.4725 46.7494 62.1821C47.4428 61.8917 48.0719 61.4671 48.6006 60.9328C49.1293 60.3984 49.5472 59.7649 49.8303 59.0685C50.1133 58.3721 50.256 57.6267 50.25 56.875V56.25H52C52.5967 56.25 53.169 56.0129 53.591 55.591C54.0129 55.169 54.25 54.5967 54.25 54V46.875C54.25 46.2783 54.0129 45.706 53.591 45.284C53.169 44.8621 52.5967 44.625 52 44.625H50.25V43.375H52.1689C55.0134 43.375 57.375 41.1225 57.375 38.2781V28.1406C57.3648 27.9353 57.2766 27.7416 57.1283 27.5991C56.9801 27.4567 56.783 27.3763 56.5774 27.3744H50.25V19.4154C50.2618 17.4337 49.6364 15.5007 48.4661 13.9015C47.2958 12.3024 45.6424 11.1217 43.75 10.5336V9.68575C43.7486 8.54259 43.2938 7.44668 42.4853 6.63851C41.6768 5.83033 40.5807 5.37593 39.4375 5.375H38.625V4.625C38.6241 3.76331 38.2815 2.93716 37.6721 2.32785C37.0628 1.71855 36.2367 1.37586 35.375 1.375H28.625C27.7633 1.37586 26.9372 1.71855 26.3279 2.32785C25.7185 2.93716 25.3759 3.76331 25.375 4.625V5.375H24.5625C23.4193 5.37593 22.3232 5.83033 21.5147 6.63851C20.7062 7.44668 20.2514 8.54259 20.25 9.68575V10.5384C18.3597 11.1284 16.7083 12.3089 15.5384 13.9067C14.3685 15.5044 13.7417 17.4351 13.75 19.4154V27.375H7.42263C7.21703 27.3769 7.01994 27.4573 6.87167 27.5998C6.7234 27.7422 6.63516 27.9359 6.625 28.1413V38.2788C6.625 41.1225 8.98663 43.375 11.8311 43.375ZM50.25 28.875H55.875V38.2781C55.875 40.2954 54.1863 41.875 52.1689 41.875H50.25V28.875ZM48.75 56.875C48.7562 57.4298 48.6525 57.9802 48.4449 58.4947C48.2373 59.0092 47.9299 59.4775 47.5405 59.8726C47.151 60.2677 46.6871 60.5818 46.1757 60.7967C45.6642 61.0117 45.1153 61.1233 44.5605 61.125H19.4395C18.8847 61.1233 18.3358 61.0117 17.8243 60.7967C17.3129 60.5818 16.849 60.2677 16.4595 59.8726C16.0701 59.4775 15.7627 59.0092 15.5551 58.4947C15.3475 57.9802 15.2438 57.4298 15.25 56.875V56.25H48.75V56.875ZM25.3756 32.0809L31.1256 35.398C31.2331 35.4599 31.3542 35.4942 31.4781 35.4979C31.602 35.5016 31.7249 35.4745 31.8359 35.4191L38.5067 32.0836C38.8814 31.8979 39.1965 31.6109 39.4164 31.2552C39.6362 30.8995 39.752 30.4893 39.7505 30.0711V26.7682C40.1665 26.8286 40.547 27.0365 40.8224 27.3541C41.0978 27.6718 41.2497 28.0779 41.2505 28.4982V44.625H22.75V28.4982C22.7508 28.0779 22.9027 27.6718 23.1781 27.3541C23.4535 27.0365 23.834 26.8286 24.25 26.7682V30.1319C24.2506 30.5268 24.3549 30.9147 24.5525 31.2567C24.75 31.5988 25.0338 31.8829 25.3756 32.0809ZM25.7506 30.1319V26.75H38.25V30.0713C38.2505 30.2106 38.2119 30.3473 38.1386 30.4659C38.0653 30.5845 37.9603 30.6801 37.8354 30.742L31.525 33.8971L26.125 30.7815C26.0111 30.7155 25.9165 30.6208 25.8507 30.5068C25.7849 30.3928 25.7501 30.2635 25.75 30.1319H25.7506ZM43.125 46.125V54.75H40.5V46.125H43.125ZM39 46.125V54.75H25V46.125H39ZM23.5 46.125V54.75H20.875V46.125H23.5ZM51.9976 46.125C52.0951 46.1227 52.192 46.1398 52.2828 46.1753C52.3736 46.2108 52.4564 46.264 52.5264 46.3318C52.5964 46.3996 52.6522 46.4806 52.6906 46.5702C52.729 46.6598 52.7492 46.7562 52.75 46.8536V53.9911C52.7496 54.1912 52.6705 54.383 52.5296 54.5251C52.3888 54.6671 52.1976 54.7479 51.9976 54.75H44.625V46.125H51.9976ZM26.875 4.625C26.8754 4.16099 27.0599 3.7161 27.388 3.388C27.7161 3.0599 28.161 2.8754 28.625 2.875H35.375C35.839 2.8754 36.2839 3.0599 36.612 3.388C36.9401 3.7161 37.1246 4.16099 37.125 4.625V5.375H26.875V4.625ZM24.5625 6.875H39.4375C39.9761 6.87541 40.5032 7.0303 40.9563 7.32131C41.4095 7.61231 41.7697 8.0272 41.9941 8.51675C35.4059 9.87397 28.6086 9.85853 22.0266 8.47138C22.2562 7.99354 22.6159 7.59022 23.0646 7.30781C23.5132 7.0254 24.0324 6.87538 24.5625 6.875ZM21.75 9.94462C25.1605 10.6627 28.6365 11.024 32.1217 11.0227C35.5239 11.0237 38.9174 10.6792 42.25 9.99463V16.7482C42.2498 16.9473 42.1708 17.1381 42.0303 17.279C41.8897 17.4199 41.699 17.4994 41.5 17.5H22.5C22.301 17.4994 22.1103 17.4199 21.9697 17.279C21.8292 17.1381 21.7502 16.9473 21.75 16.7482V9.94462ZM15.25 19.4154C15.2403 17.8343 15.714 16.2881 16.6076 14.9838C17.5013 13.6795 18.7721 12.6795 20.25 12.1176V16.7482C20.2506 17.345 20.4878 17.9171 20.9096 18.3392C21.3313 18.7613 21.9033 18.9989 22.5 19H41.5C42.0967 18.9989 42.6687 18.7613 43.0904 18.3392C43.5122 17.9171 43.7494 17.345 43.75 16.7482V12.1233C45.2265 12.6856 46.4962 13.6851 47.3897 14.9882C48.2831 16.2913 48.7577 17.8359 48.75 19.4159V44.625H42.75V28.4982C42.7489 27.6368 42.4061 26.8109 41.7968 26.2019C41.1875 25.593 40.3615 25.2506 39.5 25.25H24.5C23.6385 25.2506 22.8125 25.593 22.2032 26.2019C21.5939 26.8109 21.2511 27.6368 21.25 28.4982V44.625H15.25V19.4154ZM19.375 46.125V54.75H12.0024C11.8024 54.7479 11.6113 54.6671 11.4705 54.5251C11.3296 54.3831 11.2504 54.1914 11.25 53.9914V46.8539C11.2508 46.7564 11.2709 46.66 11.3093 46.5704C11.3477 46.4808 11.4035 46.3997 11.4735 46.3319C11.5435 46.264 11.6264 46.2108 11.7172 46.1753C11.808 46.1398 11.9049 46.1227 12.0024 46.125H19.375ZM8.125 28.875H13.75V41.875H11.8311C9.81375 41.875 8.125 40.2954 8.125 38.2781V28.875Z" fill="#141414"/>
</svg>
