<svg width="64" height="64" viewBox="0 0 64 64" fill="none" xmlns="http://www.w3.org/2000/svg">
<path d="M6.142 60.0696C5.71964 59.9838 5.30756 60.2567 5.22184 60.6792C5.13599 61.1015 5.40889 61.5136 5.83138 61.5993C5.83242 61.5996 5.83359 61.5997 5.83463 61.6L17.6912 63.9826C18.1128 64.0725 18.5274 63.8035 18.6173 63.382C18.7071 62.9604 18.4381 62.5459 18.0166 62.456C18.0106 62.4547 18.0047 62.4535 17.9987 62.4524L12.8356 61.4147L15.6926 47.1974C16.1229 47.2532 16.5563 47.2817 16.9901 47.2827C21.8772 47.2693 26.0769 43.8116 27.0285 39.018L31.5759 16.3859C31.6608 15.9634 31.387 15.5519 30.9645 15.467L12.3323 11.7233C11.9099 11.6383 11.4984 11.9121 11.4135 12.3346L6.86653 34.9648L6.85482 35.0232C5.81317 40.2811 8.99822 45.4536 14.162 46.8903L11.305 61.1076L6.142 60.0696ZM12.7902 13.4074L29.8915 16.8439L27.8345 27.0822L8.66822 33.9218L12.7902 13.4074ZM9.69049 41.8513C8.47571 40.0476 7.98662 37.8518 8.32091 35.7029L27.4759 28.867L25.4974 38.7131C24.565 43.4233 19.9907 46.4858 15.2805 45.5533C15.28 45.5532 15.2796 45.5532 15.2791 45.5531L15.2312 45.5434L15.2271 45.5427C12.9626 45.1011 10.9689 43.7718 9.69049 41.8513Z" fill="#141414"/>
<path d="M55.8903 31.0118C57.4278 28.7675 58.0036 26.0013 57.4894 23.3298L53.2508 0.637802C53.1719 0.214012 52.7644 -0.0655223 52.3406 0.0133041C52.3405 0.0133041 52.3404 0.0133041 52.3402 0.0134342L33.6593 3.50326C33.2355 3.58208 32.956 3.98961 33.0348 4.4134C33.0348 4.41353 33.0348 4.41366 33.0349 4.41379L37.2731 27.1027L37.2843 27.1624C38.203 31.9937 42.4198 35.4943 47.3377 35.5081C47.725 35.507 48.112 35.4843 48.4966 35.4396L51.1593 49.694L45.9822 50.6608C45.5584 50.7399 45.2788 51.1476 45.3578 51.5714C45.4369 51.9951 45.8446 52.2748 46.2684 52.1957L58.1563 49.9752C58.5801 49.8961 58.8598 49.4884 58.7807 49.0646C58.7016 48.6409 58.294 48.3612 57.8702 48.4403L52.6931 49.4071L50.0305 35.1526C52.4217 34.5295 54.5044 33.0578 55.8903 31.0118ZM51.8597 1.69142L55.4249 20.7779L37.0781 17.5556L34.7132 4.8943L51.8597 1.69142ZM42.4662 32.4361C40.5558 31.1427 39.242 29.1387 38.8181 26.871L37.3842 19.1941L55.7309 22.4165L55.9554 23.6187C56.8509 28.3359 53.7527 32.886 49.0354 33.7814L48.9863 33.7905L48.9814 33.7916C46.7157 34.2279 44.3698 33.7398 42.4662 32.4361Z" fill="#141414"/>
<path d="M20.4649 43.1632V41.1452L21.4436 41.5849C21.8368 41.7615 22.2987 41.5861 22.4753 41.1928L24.6663 36.315C24.843 35.9217 24.6675 35.4598 24.2743 35.2832L19.3964 33.0922C19.0032 32.9155 18.5413 33.091 18.3647 33.4842L16.7695 37.0353H14.3371C13.906 37.0353 13.5566 37.3847 13.5566 37.8158V43.1626C13.5566 43.5937 13.906 43.943 14.3371 43.943H19.6844C20.1152 43.943 20.4645 43.594 20.4649 43.1632ZM19.4694 34.8364L22.9227 36.3878L21.3714 39.8413L20.4649 39.4341V37.8164C20.4649 37.3854 20.1155 37.036 19.6844 37.036H18.4812L19.4694 34.8364ZM18.904 42.3828H15.1177V38.5969H18.904V42.3828Z" fill="#141414"/>
<path d="M49.4076 32.3528C49.5994 32.2753 49.7527 32.1247 49.8334 31.9341L51.9216 27.0119C52.0899 26.615 51.9046 26.1569 51.5079 25.9886C51.5079 25.9886 51.5079 25.9886 51.5078 25.9886L47.9238 24.4684L47.8728 22.0359C47.8619 21.6058 47.5064 21.2648 47.0761 21.272L41.7299 21.3842C41.299 21.3932 40.957 21.7499 40.966 22.1808V22.181L41.0782 27.5271C41.0872 27.9517 41.434 28.2913 41.8587 28.2912H41.8755L43.8931 28.2488L43.474 29.2366C43.3057 29.6333 43.4908 30.0916 43.8876 30.2599L48.8097 32.348C49.0003 32.4289 49.2152 32.4307 49.4072 32.3531L49.4076 32.3528ZM42.5439 22.9289L46.3292 22.8494L46.4087 26.6347L45.0853 26.6624H45.0824L42.6239 26.7144L42.5439 22.9289ZM48.7013 30.606L45.2161 29.1274L45.6043 28.2126L47.2214 28.1787C47.6523 28.1697 47.9943 27.813 47.9853 27.3821C47.9853 27.3821 47.9853 27.3821 47.9853 27.3819L47.9601 26.1791L50.1796 27.1208L48.7013 30.606Z" fill="#141414"/>
</svg>
