<svg width="64" height="64" viewBox="0 0 64 64" fill="none" xmlns="http://www.w3.org/2000/svg">
<path d="M55.3447 34.0262C54.3142 38.7594 51.9341 43.0925 48.4924 46.5012C48.4216 46.5704 48.3653 46.6528 48.3266 46.7438C48.2878 46.8348 48.2674 46.9325 48.2666 47.0314C48.2658 47.1303 48.2846 47.2284 48.3218 47.32C48.359 47.4116 48.414 47.495 48.4836 47.5652C48.5532 47.6355 48.6359 47.6914 48.7272 47.7295C48.8184 47.7677 48.9163 47.7874 49.0152 47.7876C49.1141 47.7878 49.212 47.7684 49.3034 47.7306C49.3948 47.6928 49.4778 47.6373 49.5476 47.5672C53.1274 44.011 55.6262 39.5132 56.7545 34.595C57.8827 29.6768 57.5943 24.5396 55.9226 19.7786C55.8565 19.591 55.7185 19.4374 55.5391 19.3515C55.3597 19.2657 55.1535 19.2546 54.9659 19.3207C54.7783 19.3869 54.6247 19.5249 54.5388 19.7043C54.4529 19.8837 54.4418 20.0899 54.508 20.2775C56.0621 24.693 56.3519 29.4549 55.3447 34.0262Z" fill="#141414"/>
<path d="M7.14515 24.1811C7.24103 24.2035 7.34038 24.2068 7.43751 24.1907C7.53465 24.1747 7.62767 24.1396 7.71126 24.0876C7.79485 24.0356 7.86736 23.9676 7.92465 23.8875C7.98194 23.8075 8.02289 23.7169 8.04515 23.621C9.12955 18.9882 11.5066 14.7584 14.8999 11.4231C18.2933 8.08792 22.5636 5.78432 27.2144 4.78013C27.4089 4.73852 27.5789 4.62135 27.6871 4.45438C27.7952 4.28742 27.8326 4.08434 27.791 3.88982C27.7494 3.6953 27.6322 3.52527 27.4652 3.41715C27.2983 3.30902 27.0952 3.27165 26.9007 3.31325C21.9716 4.37708 17.4458 6.81824 13.8494 10.3529C10.2531 13.8875 7.73397 18.3705 6.58503 23.2804C6.56266 23.3763 6.5594 23.4757 6.57545 23.5729C6.59149 23.6701 6.62652 23.7631 6.67853 23.8468C6.73054 23.9304 6.79852 24.003 6.87858 24.0604C6.95865 24.1177 7.04923 24.1588 7.14515 24.1811Z" fill="#141414"/>
<path d="M10.3203 28.6104C10.3203 35.8462 13.6578 42.4104 19.3011 46.399C18.9942 46.7025 18.7524 47.0653 18.5902 47.4652C18.428 47.8651 18.3489 48.2939 18.3576 48.7253C18.3664 49.1568 18.4628 49.582 18.6411 49.975C18.8194 50.3681 19.0758 50.7207 19.3947 51.0115L14.1917 58.9556C13.9234 59.3653 13.7984 59.8522 13.836 60.3405C13.8736 60.8287 14.0718 61.2907 14.3996 61.6545C14.7275 62.0182 15.1665 62.2631 15.6482 62.3511C16.1299 62.439 16.6272 62.365 17.0624 62.1406C20.2516 60.4964 31.8111 55.6434 46.6609 62.2356C46.9862 62.3802 47.3382 62.4549 47.6942 62.455C48.144 62.4553 48.5857 62.3353 48.9735 62.1073C49.3612 61.8792 49.6809 61.5516 49.8993 61.1584C50.1176 60.7651 50.2268 60.3206 50.2154 59.8709C50.2039 59.4212 50.0724 58.9828 49.8343 58.6011L44.8857 50.6533C45.3864 50.031 45.6346 49.243 45.5807 48.4461C45.5269 47.6492 45.175 46.9018 44.5952 46.3525C50.2699 42.3695 53.6251 35.825 53.6251 28.6104C53.6251 21.8452 50.2766 15.2295 44.8251 11.0914C45.7259 10.5667 46.7147 10.2102 47.7431 10.0393C47.9341 10.0049 48.1062 9.90272 48.2278 9.75144C48.3494 9.60017 48.4121 9.41004 48.4045 9.21612C48.3969 9.0222 48.3194 8.83757 48.1864 8.69629C48.0533 8.55501 47.8737 8.4666 47.6806 8.44738C42.3181 7.89 41.4469 4.06863 41.0283 2.2325C40.979 2.02468 40.857 1.84139 40.6842 1.7158C40.5115 1.59021 40.2994 1.53064 40.0866 1.54788C39.8846 1.56247 39.6937 1.64602 39.546 1.78454C39.3983 1.92305 39.3026 2.10812 39.2751 2.30875C39.0783 3.73238 38.4827 5.87938 36.7223 7.40725C35.1594 7.08401 33.5683 6.91607 31.9723 6.90588C20.0334 6.90588 10.3203 16.6425 10.3203 28.6104ZM48.5609 59.3937C48.6968 59.6098 48.7465 59.8691 48.7002 60.1201C48.6539 60.3711 48.5149 60.5955 48.3109 60.7489C48.1635 60.8594 47.9892 60.9284 47.8061 60.9488C47.623 60.9691 47.4378 60.94 47.2697 60.8645C31.8098 54.002 19.7142 59.0856 16.3753 60.8073C16.2346 60.8799 16.0737 60.9039 15.9179 60.8755C15.7621 60.8471 15.62 60.7679 15.514 60.6502C15.4079 60.5326 15.3438 60.3831 15.3316 60.2252C15.3194 60.0673 15.3599 59.9098 15.4467 59.7772L20.7126 51.7375C20.9837 51.811 21.2634 51.8482 21.5443 51.8483H42.4008C42.8456 51.8485 43.2855 51.7551 43.6918 51.574L48.5609 59.3937ZM19.8571 48.6605C19.8575 48.2131 20.0354 47.7841 20.3518 47.4677C20.6682 47.1514 21.0971 46.9734 21.5446 46.973H42.4008C42.8484 46.973 43.2776 47.1508 43.5941 47.4673C43.9105 47.7837 44.0883 48.2129 44.0883 48.6605C44.0883 49.1081 43.9105 49.5373 43.5941 49.8537C43.2776 50.1702 42.8484 50.348 42.4008 50.348H21.5443C21.0969 50.3475 20.668 50.1695 20.3517 49.8532C20.0354 49.5368 19.8575 49.1079 19.8571 48.6605ZM40.2152 4.74625C40.8861 6.40575 42.1843 8.35588 44.9051 9.35388C42.2676 10.5664 41.1196 12.6269 40.5753 14.3444C39.8314 12.6632 38.4611 10.7205 35.9598 9.70288C38.3791 8.5 39.6001 6.4695 40.2152 4.74625ZM31.9726 8.40588C32.9034 8.41041 33.833 8.47412 34.7557 8.59663C34.3207 8.771 33.8717 8.90828 33.4136 9.007C33.2283 9.0466 33.0629 9.15035 32.9466 9.29995C32.8303 9.44956 32.7706 9.63541 32.7779 9.82476C32.7852 10.0141 32.8592 10.1948 32.9867 10.3349C33.1142 10.4751 33.2871 10.5657 33.4749 10.5909C37.9543 11.2057 39.3741 14.7784 39.8217 16.8534C39.8641 17.0518 39.9737 17.2296 40.1319 17.3567C40.2901 17.4838 40.4873 17.5524 40.6902 17.5511H40.6926C40.9053 17.551 41.111 17.4751 41.2728 17.337C41.4346 17.1989 41.5418 17.0077 41.5753 16.7976C41.7538 15.6081 42.0564 13.6047 43.6003 12.0476C48.8726 15.8875 52.1251 22.178 52.1251 28.6104C52.1251 35.5959 48.7563 41.9023 43.0992 45.5514C42.8701 45.4997 42.6359 45.4735 42.4011 45.4734H21.5443C21.2775 45.4735 21.0118 45.5071 20.7534 45.5734C15.1541 41.9156 11.8203 35.6029 11.8203 28.6109C11.8203 17.4696 20.8606 8.40588 31.9726 8.40588Z" fill="#141414"/>
<path d="M16.4253 24.0154C16.6108 24.0872 16.8172 24.0825 16.9992 24.0021C17.1811 23.9218 17.3237 23.7725 17.3956 23.587C17.5377 23.2204 17.6963 22.8541 17.8672 22.4982C17.9099 22.4095 17.9346 22.3131 17.94 22.2148C17.9454 22.1165 17.9314 22.018 17.8987 21.9251C17.8661 21.8321 17.8155 21.7466 17.7498 21.6732C17.684 21.5998 17.6045 21.5401 17.5157 21.4975C17.4269 21.4549 17.3306 21.4301 17.2323 21.4247C17.1339 21.4193 17.0355 21.4333 16.9425 21.466C16.8496 21.4986 16.764 21.5493 16.6907 21.615C16.6173 21.6807 16.5576 21.7602 16.515 21.849C16.3275 22.2398 16.1525 22.6422 15.997 23.045C15.9614 23.1368 15.9442 23.2348 15.9465 23.3333C15.9488 23.4317 15.9704 23.5288 16.0102 23.6189C16.05 23.709 16.1071 23.7904 16.1783 23.8584C16.2496 23.9265 16.3335 23.9798 16.4253 24.0154Z" fill="#141414"/>
<path d="M17.346 37.4709C17.399 37.5539 17.4677 37.6258 17.5484 37.6822C17.6291 37.7387 17.7202 37.7787 17.8163 37.8C17.9125 37.8213 18.0119 37.8235 18.1089 37.8064C18.2059 37.7892 18.2986 37.7532 18.3816 37.7002C18.4647 37.6473 18.5365 37.5785 18.593 37.4978C18.6495 37.4171 18.6895 37.3261 18.7108 37.2299C18.7321 37.1338 18.7343 37.0344 18.7171 36.9374C18.7 36.8404 18.664 36.7477 18.611 36.6646C16.7518 33.721 16.0204 30.2041 16.5518 26.7632C16.5675 26.6654 16.5637 26.5653 16.5406 26.4689C16.5174 26.3725 16.4754 26.2817 16.4169 26.2016C16.3584 26.1216 16.2846 26.0539 16.1998 26.0025C16.115 25.9512 16.0208 25.9172 15.9228 25.9024C15.8248 25.8877 15.7248 25.8925 15.6286 25.9167C15.5325 25.9408 15.442 25.9838 15.3626 26.0431C15.2832 26.1024 15.2163 26.1769 15.1658 26.2622C15.1153 26.3476 15.0822 26.4421 15.0685 26.5402C14.4832 30.3393 15.2921 34.2218 17.346 37.4709Z" fill="#141414"/>
<path d="M25.7271 24.4082C26.9511 24.6401 29.4981 25.1225 29.999 28.626C30.0246 28.8143 30.1177 28.9868 30.2611 29.1115C30.4045 29.2361 30.5884 29.3044 30.7784 29.3035C30.9686 29.3045 31.1526 29.2361 31.2961 29.1112C31.4396 28.9864 31.5327 28.8135 31.558 28.625C32.0596 25.1166 34.5879 24.6375 35.8034 24.4062C36.0021 24.3668 36.1801 24.2577 36.3055 24.0986C36.4309 23.9395 36.4954 23.7409 36.4873 23.5385C36.4811 23.3457 36.4087 23.1609 36.2823 23.0152C36.1558 22.8695 35.983 22.7718 35.793 22.7385C34.4315 22.497 32.0705 21.6549 31.5555 18.726C31.5238 18.5433 31.4288 18.3777 31.287 18.2583C31.1452 18.1388 30.9659 18.0732 30.7805 18.073C30.5952 18.0732 30.4159 18.1387 30.2742 18.258C30.1324 18.3774 30.0373 18.5428 30.0055 18.7254C29.4893 21.6504 27.11 22.496 25.737 22.7399C25.5475 22.7733 25.3752 22.8709 25.249 23.0162C25.1228 23.1615 25.0503 23.3458 25.0438 23.5381C25.035 23.7409 25.0992 23.94 25.2245 24.0996C25.3498 24.2592 25.5281 24.3687 25.7271 24.4082ZM30.778 21.031C31.3879 22.1266 32.3247 23.0045 33.4575 23.5421C32.2958 24.0545 31.3482 24.9545 30.7769 26.0884C30.2001 24.9532 29.247 24.0536 28.0804 23.5434C29.2191 23.007 30.1621 22.1287 30.778 21.031Z" fill="#141414"/>
</svg>
